STARTFONT 2.1
COMMENT
COMMENT Converted from OpenType font "Galmuri11.ttf" by "otf2bdf 3.0".
COMMENT
FONT -FreeType-Galmuri11 Regular-Medium-R-Normal--12-90-100-100-P-108-ISO10646-1
SIZE 9 100 100
FONTBOUNDINGBOX 20 19 -2 -3
STARTPROPERTIES 19
FOUNDRY "FreeType"
FAMILY_NAME "Galmuri11 Regular"
WEIGHT_NAME "Medium"
SLANT "R"
SETWIDTH_NAME "Normal"
ADD_STYLE_NAME ""
PIXEL_SIZE 12
POINT_SIZE 90
RESOLUTION_X 100
RESOLUTION_Y 100
SPACING "P"
AVERAGE_WIDTH 108
CHARSET_REGISTRY "ISO10646"
CHARSET_ENCODING "1"
FONT_ASCENT 13
FONT_DESCENT -2
COPYRIGHT "Copyright (c) 2019-2022 Minseo Lee (itoupluk427@gmail.com), with Reserved Font Name "Galmuri"."
_OTF_FONTFILE "Galmuri11.ttf"
_OTF_PSNAME "Galmuri11-Regular"
ENDPROPERTIES
CHARS 20374
STARTCHAR 0020
ENCODING 32
SWIDTH 400 0
DWIDTH 5 0
BBX 0 0 0 0
BITMAP
ENDCHAR
STARTCHAR 0021
ENCODING 33
SWIDTH 320 0
DWIDTH 4 0
BBX 1 11 1 0
BITMAP
80
80
80
80
80
80
80
80
00
80
80
ENDCHAR
STARTCHAR 0022
ENCODING 34
SWIDTH 320 0
DWIDTH 4 0
BBX 3 3 0 8
BITMAP
A0
A0
A0
ENDCHAR
STARTCHAR 0023
ENCODING 35
SWIDTH 640 0
DWIDTH 8 0
BBX 7 11 0 0
BITMAP
14
14
14
7E
28
28
28
FC
50
50
50
ENDCHAR
STARTCHAR 0024
ENCODING 36
SWIDTH 640 0
DWIDTH 8 0
BBX 7 11 0 0
BITMAP
10
7C
92
90
90
7C
12
12
92
7C
10
ENDCHAR
STARTCHAR 0025
ENCODING 37
SWIDTH 800 0
DWIDTH 10 0
BBX 9 9 0 1
BITMAP
6080
9100
9200
6400
0800
1300
2480
4480
8300
ENDCHAR
STARTCHAR 0026
ENCODING 38
SWIDTH 640 0
DWIDTH 8 0
BBX 7 11 0 0
BITMAP
30
48
48
48
50
20
50
8A
84
4A
30
ENDCHAR
STARTCHAR 0027
ENCODING 39
SWIDTH 320 0
DWIDTH 4 0
BBX 1 3 1 8
BITMAP
80
80
80
ENDCHAR
STARTCHAR 0028
ENCODING 40
SWIDTH 320 0
DWIDTH 4 0
BBX 3 11 0 0
BITMAP
20
40
40
80
80
80
80
80
40
40
20
ENDCHAR
STARTCHAR 0029
ENCODING 41
SWIDTH 320 0
DWIDTH 4 0
BBX 3 11 0 0
BITMAP
80
40
40
20
20
20
20
20
40
40
80
ENDCHAR
STARTCHAR 002A
ENCODING 42
SWIDTH 480 0
DWIDTH 6 0
BBX 5 7 0 2
BITMAP
20
A8
70
20
70
A8
20
ENDCHAR
STARTCHAR 002B
ENCODING 43
SWIDTH 640 0
DWIDTH 8 0
BBX 7 7 0 2
BITMAP
10
10
10
FE
10
10
10
ENDCHAR
STARTCHAR 002C
ENCODING 44
SWIDTH 320 0
DWIDTH 4 0
BBX 2 2 0 -1
BITMAP
40
80
ENDCHAR
STARTCHAR 002D
ENCODING 45
SWIDTH 480 0
DWIDTH 6 0
BBX 5 1 0 5
BITMAP
F8
ENDCHAR
STARTCHAR 002E
ENCODING 46
SWIDTH 320 0
DWIDTH 4 0
BBX 1 1 1 0
BITMAP
80
ENDCHAR
STARTCHAR 002F
ENCODING 47
SWIDTH 480 0
DWIDTH 6 0
BBX 5 11 0 0
BITMAP
08
08
10
10
20
20
20
40
40
80
80
ENDCHAR
STARTCHAR 0030
ENCODING 48
SWIDTH 640 0
DWIDTH 8 0
BBX 7 11 0 0
BITMAP
38
44
82
82
82
82
82
82
82
44
38
ENDCHAR
STARTCHAR 0031
ENCODING 49
SWIDTH 480 0
DWIDTH 6 0
BBX 3 11 1 0
BITMAP
40
C0
40
40
40
40
40
40
40
40
E0
ENDCHAR
STARTCHAR 0032
ENCODING 50
SWIDTH 640 0
DWIDTH 8 0
BBX 7 11 0 0
BITMAP
38
44
82
02
04
18
20
40
80
80
FE
ENDCHAR
STARTCHAR 0033
ENCODING 51
SWIDTH 640 0
DWIDTH 8 0
BBX 7 11 0 0
BITMAP
38
44
82
02
04
38
04
02
82
44
38
ENDCHAR
STARTCHAR 0034
ENCODING 52
SWIDTH 640 0
DWIDTH 8 0
BBX 7 11 0 0
BITMAP
0C
14
14
24
24
44
44
84
FE
04
04
ENDCHAR
STARTCHAR 0035
ENCODING 53
SWIDTH 640 0
DWIDTH 8 0
BBX 7 11 0 0
BITMAP
FE
80
80
80
B8
C4
02
02
82
44
38
ENDCHAR
STARTCHAR 0036
ENCODING 54
SWIDTH 640 0
DWIDTH 8 0
BBX 7 11 0 0
BITMAP
18
20
40
40
B8
C4
82
82
82
44
38
ENDCHAR
STARTCHAR 0037
ENCODING 55
SWIDTH 640 0
DWIDTH 8 0
BBX 7 11 0 0
BITMAP
FE
02
02
04
04
08
08
10
10
20
20
ENDCHAR
STARTCHAR 0038
ENCODING 56
SWIDTH 640 0
DWIDTH 8 0
BBX 7 11 0 0
BITMAP
38
44
82
82
44
38
44
82
82
44
38
ENDCHAR
STARTCHAR 0039
ENCODING 57
SWIDTH 640 0
DWIDTH 8 0
BBX 7 11 0 0
BITMAP
38
44
82
82
82
46
3A
04
04
08
30
ENDCHAR
STARTCHAR 003A
ENCODING 58
SWIDTH 320 0
DWIDTH 4 0
BBX 1 6 1 2
BITMAP
80
80
00
00
80
80
ENDCHAR
STARTCHAR 003B
ENCODING 59
SWIDTH 320 0
DWIDTH 4 0
BBX 2 6 0 2
BITMAP
40
40
00
00
40
80
ENDCHAR
STARTCHAR 003C
ENCODING 60
SWIDTH 400 0
DWIDTH 5 0
BBX 4 7 0 2
BITMAP
10
20
40
80
40
20
10
ENDCHAR
STARTCHAR 003D
ENCODING 61
SWIDTH 480 0
DWIDTH 6 0
BBX 5 3 0 4
BITMAP
F8
00
F8
ENDCHAR
STARTCHAR 003E
ENCODING 62
SWIDTH 400 0
DWIDTH 5 0
BBX 4 7 0 2
BITMAP
80
40
20
10
20
40
80
ENDCHAR
STARTCHAR 003F
ENCODING 63
SWIDTH 480 0
DWIDTH 6 0
BBX 5 11 0 0
BITMAP
70
88
88
08
10
20
20
20
00
20
20
ENDCHAR
STARTCHAR 0040
ENCODING 64
SWIDTH 800 0
DWIDTH 10 0
BBX 9 9 0 1
BITMAP
3E00
4100
9C80
A480
A480
AD00
9600
4000
3F00
ENDCHAR
STARTCHAR 0041
ENCODING 65
SWIDTH 640 0
DWIDTH 8 0
BBX 7 11 0 0
BITMAP
10
28
28
28
44
44
44
7C
82
82
82
ENDCHAR
STARTCHAR 0042
ENCODING 66
SWIDTH 640 0
DWIDTH 8 0
BBX 7 11 0 0
BITMAP
F8
84
82
82
84
F8
84
82
82
84
F8
ENDCHAR
STARTCHAR 0043
ENCODING 67
SWIDTH 720 0
DWIDTH 9 0
BBX 8 11 0 0
BITMAP
3C
42
81
80
80
80
80
80
81
42
3C
ENDCHAR
STARTCHAR 0044
ENCODING 68
SWIDTH 640 0
DWIDTH 8 0
BBX 7 11 0 0
BITMAP
F8
84
82
82
82
82
82
82
82
84
F8
ENDCHAR
STARTCHAR 0045
ENCODING 69
SWIDTH 560 0
DWIDTH 7 0
BBX 6 11 0 0
BITMAP
FC
80
80
80
80
FC
80
80
80
80
FC
ENDCHAR
STARTCHAR 0046
ENCODING 70
SWIDTH 560 0
DWIDTH 7 0
BBX 6 11 0 0
BITMAP
FC
80
80
80
80
FC
80
80
80
80
80
ENDCHAR
STARTCHAR 0047
ENCODING 71
SWIDTH 720 0
DWIDTH 9 0
BBX 8 11 0 0
BITMAP
3C
42
81
80
80
8F
81
81
81
42
3C
ENDCHAR
STARTCHAR 0048
ENCODING 72
SWIDTH 640 0
DWIDTH 8 0
BBX 7 11 0 0
BITMAP
82
82
82
82
82
FE
82
82
82
82
82
ENDCHAR
STARTCHAR 0049
ENCODING 73
SWIDTH 320 0
DWIDTH 4 0
BBX 3 11 0 0
BITMAP
E0
40
40
40
40
40
40
40
40
40
E0
ENDCHAR
STARTCHAR 004A
ENCODING 74
SWIDTH 560 0
DWIDTH 7 0
BBX 6 11 0 0
BITMAP
04
04
04
04
04
04
04
04
84
48
30
ENDCHAR
STARTCHAR 004B
ENCODING 75
SWIDTH 640 0
DWIDTH 8 0
BBX 7 11 0 0
BITMAP
82
84
88
90
A0
C0
A0
90
88
84
82
ENDCHAR
STARTCHAR 004C
ENCODING 76
SWIDTH 560 0
DWIDTH 7 0
BBX 6 11 0 0
BITMAP
80
80
80
80
80
80
80
80
80
80
FC
ENDCHAR
STARTCHAR 004D
ENCODING 77
SWIDTH 800 0
DWIDTH 10 0
BBX 9 11 0 0
BITMAP
8080
C180
C180
A280
A280
A280
9480
9480
9480
8880
8880
ENDCHAR
STARTCHAR 004E
ENCODING 78
SWIDTH 640 0
DWIDTH 8 0
BBX 7 11 0 0
BITMAP
82
C2
C2
A2
A2
92
8A
8A
86
86
82
ENDCHAR
STARTCHAR 004F
ENCODING 79
SWIDTH 720 0
DWIDTH 9 0
BBX 8 11 0 0
BITMAP
3C
42
81
81
81
81
81
81
81
42
3C
ENDCHAR
STARTCHAR 0050
ENCODING 80
SWIDTH 640 0
DWIDTH 8 0
BBX 7 11 0 0
BITMAP
F8
84
82
82
82
84
F8
80
80
80
80
ENDCHAR
STARTCHAR 0051
ENCODING 81
SWIDTH 720 0
DWIDTH 9 0
BBX 8 11 0 0
BITMAP
3C
42
81
81
81
81
81
89
85
42
3D
ENDCHAR
STARTCHAR 0052
ENCODING 82
SWIDTH 640 0
DWIDTH 8 0
BBX 7 11 0 0
BITMAP
F8
84
82
82
82
84
F8
90
88
84
82
ENDCHAR
STARTCHAR 0053
ENCODING 83
SWIDTH 640 0
DWIDTH 8 0
BBX 7 11 0 0
BITMAP
38
44
82
80
40
38
04
02
82
44
38
ENDCHAR
STARTCHAR 0054
ENCODING 84
SWIDTH 640 0
DWIDTH 8 0
BBX 7 11 0 0
BITMAP
FE
10
10
10
10
10
10
10
10
10
10
ENDCHAR
STARTCHAR 0055
ENCODING 85
SWIDTH 720 0
DWIDTH 9 0
BBX 8 11 0 0
BITMAP
81
81
81
81
81
81
81
81
81
42
3C
ENDCHAR
STARTCHAR 0056
ENCODING 86
SWIDTH 640 0
DWIDTH 8 0
BBX 7 11 0 0
BITMAP
82
82
82
44
44
44
28
28
28
10
10
ENDCHAR
STARTCHAR 0057
ENCODING 87
SWIDTH 800 0
DWIDTH 10 0
BBX 9 11 0 0
BITMAP
8880
8880
8880
8880
5500
5500
5500
5500
2200
2200
2200
ENDCHAR
STARTCHAR 0058
ENCODING 88
SWIDTH 640 0
DWIDTH 8 0
BBX 7 11 0 0
BITMAP
82
44
44
28
28
10
28
28
44
44
82
ENDCHAR
STARTCHAR 0059
ENCODING 89
SWIDTH 640 0
DWIDTH 8 0
BBX 7 11 0 0
BITMAP
82
82
44
44
28
28
10
10
10
10
10
ENDCHAR
STARTCHAR 005A
ENCODING 90
SWIDTH 560 0
DWIDTH 7 0
BBX 6 11 0 0
BITMAP
FC
08
08
10
10
20
20
40
40
80
FC
ENDCHAR
STARTCHAR 005B
ENCODING 91
SWIDTH 320 0
DWIDTH 4 0
BBX 3 11 0 0
BITMAP
E0
80
80
80
80
80
80
80
80
80
E0
ENDCHAR
STARTCHAR 005C
ENCODING 92
SWIDTH 480 0
DWIDTH 6 0
BBX 5 11 0 0
BITMAP
80
80
40
40
20
20
20
10
10
08
08
ENDCHAR
STARTCHAR 005D
ENCODING 93
SWIDTH 320 0
DWIDTH 4 0
BBX 3 11 0 0
BITMAP
E0
20
20
20
20
20
20
20
20
20
E0
ENDCHAR
STARTCHAR 005E
ENCODING 94
SWIDTH 480 0
DWIDTH 6 0
BBX 5 3 0 8
BITMAP
20
50
88
ENDCHAR
STARTCHAR 005F
ENCODING 95
SWIDTH 480 0
DWIDTH 6 0
BBX 5 1 0 0
BITMAP
F8
ENDCHAR
STARTCHAR 0060
ENCODING 96
SWIDTH 320 0
DWIDTH 4 0
BBX 3 3 0 8
BITMAP
80
40
20
ENDCHAR
STARTCHAR 0061
ENCODING 97
SWIDTH 560 0
DWIDTH 7 0
BBX 6 8 0 0
BITMAP
78
84
04
3C
44
84
8C
74
ENDCHAR
STARTCHAR 0062
ENCODING 98
SWIDTH 640 0
DWIDTH 8 0
BBX 7 11 0 0
BITMAP
80
80
80
B8
C4
82
82
82
82
C4
B8
ENDCHAR
STARTCHAR 0063
ENCODING 99
SWIDTH 560 0
DWIDTH 7 0
BBX 6 8 0 0
BITMAP
38
44
80
80
80
80
44
38
ENDCHAR
STARTCHAR 0064
ENCODING 100
SWIDTH 640 0
DWIDTH 8 0
BBX 7 11 0 0
BITMAP
02
02
02
3A
46
82
82
82
82
46
3A
ENDCHAR
STARTCHAR 0065
ENCODING 101
SWIDTH 640 0
DWIDTH 8 0
BBX 7 8 0 0
BITMAP
38
44
82
FE
80
82
44
38
ENDCHAR
STARTCHAR 0066
ENCODING 102
SWIDTH 480 0
DWIDTH 6 0
BBX 5 11 0 0
BITMAP
18
20
20
F8
20
20
20
20
20
20
20
ENDCHAR
STARTCHAR 0067
ENCODING 103
SWIDTH 640 0
DWIDTH 8 0
BBX 7 10 0 -2
BITMAP
3A
46
82
82
82
46
3A
82
44
38
ENDCHAR
STARTCHAR 0068
ENCODING 104
SWIDTH 560 0
DWIDTH 7 0
BBX 6 11 0 0
BITMAP
80
80
80
B8
C4
84
84
84
84
84
84
ENDCHAR
STARTCHAR 0069
ENCODING 105
SWIDTH 320 0
DWIDTH 4 0
BBX 1 10 1 0
BITMAP
80
00
80
80
80
80
80
80
80
80
ENDCHAR
STARTCHAR 006A
ENCODING 106
SWIDTH 480 0
DWIDTH 6 0
BBX 4 12 0 -2
BITMAP
10
00
10
10
10
10
10
10
10
10
90
60
ENDCHAR
STARTCHAR 006B
ENCODING 107
SWIDTH 560 0
DWIDTH 7 0
BBX 6 11 0 0
BITMAP
80
80
80
84
88
90
E0
A0
90
88
84
ENDCHAR
STARTCHAR 006C
ENCODING 108
SWIDTH 320 0
DWIDTH 4 0
BBX 1 11 1 0
BITMAP
80
80
80
80
80
80
80
80
80
80
80
ENDCHAR
STARTCHAR 006D
ENCODING 109
SWIDTH 800 0
DWIDTH 10 0
BBX 9 8 0 0
BITMAP
B300
CC80
8880
8880
8880
8880
8880
8880
ENDCHAR
STARTCHAR 006E
ENCODING 110
SWIDTH 560 0
DWIDTH 7 0
BBX 6 8 0 0
BITMAP
B8
C4
84
84
84
84
84
84
ENDCHAR
STARTCHAR 006F
ENCODING 111
SWIDTH 640 0
DWIDTH 8 0
BBX 7 8 0 0
BITMAP
38
44
82
82
82
82
44
38
ENDCHAR
STARTCHAR 0070
ENCODING 112
SWIDTH 640 0
DWIDTH 8 0
BBX 7 10 0 -2
BITMAP
B8
C4
82
82
82
C4
B8
80
80
80
ENDCHAR
STARTCHAR 0071
ENCODING 113
SWIDTH 640 0
DWIDTH 8 0
BBX 7 10 0 -2
BITMAP
3A
46
82
82
82
46
3A
02
02
02
ENDCHAR
STARTCHAR 0072
ENCODING 114
SWIDTH 480 0
DWIDTH 6 0
BBX 5 8 0 0
BITMAP
B0
C8
80
80
80
80
80
80
ENDCHAR
STARTCHAR 0073
ENCODING 115
SWIDTH 560 0
DWIDTH 7 0
BBX 6 8 0 0
BITMAP
78
84
80
60
18
04
84
78
ENDCHAR
STARTCHAR 0074
ENCODING 116
SWIDTH 480 0
DWIDTH 6 0
BBX 5 10 0 0
BITMAP
40
40
F8
40
40
40
40
40
48
30
ENDCHAR
STARTCHAR 0075
ENCODING 117
SWIDTH 640 0
DWIDTH 8 0
BBX 7 8 0 0
BITMAP
82
82
82
82
82
82
46
3A
ENDCHAR
STARTCHAR 0076
ENCODING 118
SWIDTH 640 0
DWIDTH 8 0
BBX 7 8 0 0
BITMAP
82
82
44
44
28
28
10
10
ENDCHAR
STARTCHAR 0077
ENCODING 119
SWIDTH 800 0
DWIDTH 10 0
BBX 9 8 0 0
BITMAP
8880
8880
8880
5500
5500
5500
2200
2200
ENDCHAR
STARTCHAR 0078
ENCODING 120
SWIDTH 640 0
DWIDTH 8 0
BBX 7 8 0 0
BITMAP
82
44
28
10
10
28
44
82
ENDCHAR
STARTCHAR 0079
ENCODING 121
SWIDTH 640 0
DWIDTH 8 0
BBX 7 10 0 -2
BITMAP
82
82
44
44
28
28
10
10
20
C0
ENDCHAR
STARTCHAR 007A
ENCODING 122
SWIDTH 560 0
DWIDTH 7 0
BBX 6 8 0 0
BITMAP
FC
04
08
10
20
40
80
FC
ENDCHAR
STARTCHAR 007B
ENCODING 123
SWIDTH 400 0
DWIDTH 5 0
BBX 4 11 0 0
BITMAP
30
40
40
40
40
80
40
40
40
40
30
ENDCHAR
STARTCHAR 007C
ENCODING 124
SWIDTH 320 0
DWIDTH 4 0
BBX 1 11 1 0
BITMAP
80
80
80
80
80
80
80
80
80
80
80
ENDCHAR
STARTCHAR 007D
ENCODING 125
SWIDTH 400 0
DWIDTH 5 0
BBX 4 11 0 0
BITMAP
C0
20
20
20
20
10
20
20
20
20
C0
ENDCHAR
STARTCHAR 007E
ENCODING 126
SWIDTH 640 0
DWIDTH 8 0
BBX 7 3 0 4
BITMAP
60
92
0C
ENDCHAR
STARTCHAR 00A0
ENCODING 160
SWIDTH 400 0
DWIDTH 5 0
BBX 0 0 0 0
BITMAP
ENDCHAR
STARTCHAR 00A1
ENCODING 161
SWIDTH 320 0
DWIDTH 4 0
BBX 1 11 1 -3
BITMAP
80
80
00
80
80
80
80
80
80
80
80
ENDCHAR
STARTCHAR 00A2
ENCODING 162
SWIDTH 640 0
DWIDTH 8 0
BBX 7 11 0 0
BITMAP
04
38
4C
8A
90
90
90
A2
64
38
40
ENDCHAR
STARTCHAR 00A3
ENCODING 163
SWIDTH 720 0
DWIDTH 9 0
BBX 8 9 0 1
BITMAP
1C
22
22
20
7C
10
71
91
6E
ENDCHAR
STARTCHAR 00A4
ENCODING 164
SWIDTH 640 0
DWIDTH 8 0
BBX 7 7 0 2
BITMAP
BA
44
82
82
82
44
BA
ENDCHAR
STARTCHAR 00A5
ENCODING 165
SWIDTH 640 0
DWIDTH 8 0
BBX 7 9 0 1
BITMAP
82
44
28
10
FE
10
FE
10
10
ENDCHAR
STARTCHAR 00A6
ENCODING 166
SWIDTH 320 0
DWIDTH 4 0
BBX 1 11 1 0
BITMAP
80
80
80
80
80
00
80
80
80
80
80
ENDCHAR
STARTCHAR 00A7
ENCODING 167
SWIDTH 400 0
DWIDTH 5 0
BBX 4 11 0 0
BITMAP
60
90
80
40
A0
90
50
20
10
90
60
ENDCHAR
STARTCHAR 00A8
ENCODING 168
SWIDTH 320 0
DWIDTH 4 0
BBX 3 1 0 10
BITMAP
A0
ENDCHAR
STARTCHAR 00A9
ENCODING 169
SWIDTH 960 0
DWIDTH 12 0
BBX 11 11 0 0
BITMAP
1F00
2080
4E40
9120
A020
A020
A020
9120
4E40
2080
1F00
ENDCHAR
STARTCHAR 00AA
ENCODING 170
SWIDTH 400 0
DWIDTH 5 0
BBX 4 7 0 6
BITMAP
E0
10
70
90
70
00
F0
ENDCHAR
STARTCHAR 00AB
ENCODING 171
SWIDTH 560 0
DWIDTH 7 0
BBX 6 5 0 3
BITMAP
24
48
90
48
24
ENDCHAR
STARTCHAR 00AC
ENCODING 172
SWIDTH 880 0
DWIDTH 11 0
BBX 10 6 0 0
BITMAP
FFC0
0040
0040
0040
0040
0040
ENDCHAR
STARTCHAR 00AE
ENCODING 174
SWIDTH 800 0
DWIDTH 10 0
BBX 9 9 0 3
BITMAP
3E00
4100
BC80
A280
BC80
A480
A280
4100
3E00
ENDCHAR
STARTCHAR 00AF
ENCODING 175
SWIDTH 480 0
DWIDTH 6 0
BBX 5 1 0 10
BITMAP
F8
ENDCHAR
STARTCHAR 00B0
ENCODING 176
SWIDTH 320 0
DWIDTH 4 0
BBX 3 3 0 8
BITMAP
40
A0
40
ENDCHAR
STARTCHAR 00B1
ENCODING 177
SWIDTH 640 0
DWIDTH 8 0
BBX 7 9 0 1
BITMAP
10
10
10
FE
10
10
10
00
FE
ENDCHAR
STARTCHAR 00B2
ENCODING 178
SWIDTH 400 0
DWIDTH 5 0
BBX 4 7 0 6
BITMAP
E0
00
10
20
40
80
F0
ENDCHAR
STARTCHAR 00B3
ENCODING 179
SWIDTH 400 0
DWIDTH 5 0
BBX 4 7 0 6
BITMAP
E0
00
10
60
10
10
E0
ENDCHAR
STARTCHAR 00B4
ENCODING 180
SWIDTH 320 0
DWIDTH 4 0
BBX 3 3 0 10
BITMAP
20
40
80
ENDCHAR
STARTCHAR 00B5
ENCODING 181
SWIDTH 560 0
DWIDTH 7 0
BBX 6 10 0 -2
BITMAP
84
84
84
84
84
84
CC
B4
80
80
ENDCHAR
STARTCHAR 00B6
ENCODING 182
SWIDTH 560 0
DWIDTH 7 0
BBX 6 11 0 0
BITMAP
7C
F4
F4
F4
74
14
14
14
14
14
14
ENDCHAR
STARTCHAR 00B7
ENCODING 183
SWIDTH 320 0
DWIDTH 4 0
BBX 1 1 1 5
BITMAP
80
ENDCHAR
STARTCHAR 00B8
ENCODING 184
SWIDTH 320 0
DWIDTH 4 0
BBX 3 3 0 -2
BITMAP
40
20
C0
ENDCHAR
STARTCHAR 00B9
ENCODING 185
SWIDTH 320 0
DWIDTH 4 0
BBX 3 7 0 6
BITMAP
C0
40
40
40
40
40
E0
ENDCHAR
STARTCHAR 00BA
ENCODING 186
SWIDTH 400 0
DWIDTH 5 0
BBX 4 7 0 6
BITMAP
60
90
90
90
60
00
F0
ENDCHAR
STARTCHAR 00BB
ENCODING 187
SWIDTH 560 0
DWIDTH 7 0
BBX 6 5 0 3
BITMAP
90
48
24
48
90
ENDCHAR
STARTCHAR 00BC
ENCODING 188
SWIDTH 960 0
DWIDTH 12 0
BBX 10 11 1 0
BITMAP
C000
4080
4100
4200
4480
4980
1280
2480
47C0
8080
0080
ENDCHAR
STARTCHAR 00BD
ENCODING 189
SWIDTH 960 0
DWIDTH 12 0
BBX 10 11 1 0
BITMAP
C000
4080
4100
4200
4400
4B80
1040
2080
4100
8200
03C0
ENDCHAR
STARTCHAR 00BE
ENCODING 190
SWIDTH 1040 0
DWIDTH 13 0
BBX 12 11 0 0
BITMAP
E000
1040
6080
1100
1240
E4C0
0940
1240
23F0
4040
0040
ENDCHAR
STARTCHAR 00BF
ENCODING 191
SWIDTH 480 0
DWIDTH 6 0
BBX 5 11 0 -3
BITMAP
20
20
00
20
20
20
40
80
88
88
70
ENDCHAR
STARTCHAR 00C0
ENCODING 192
SWIDTH 640 0
DWIDTH 8 0
BBX 7 14 0 0
BITMAP
20
10
00
10
28
28
28
44
44
44
7C
82
82
82
ENDCHAR
STARTCHAR 00C1
ENCODING 193
SWIDTH 640 0
DWIDTH 8 0
BBX 7 14 0 0
BITMAP
08
10
00
10
28
28
28
44
44
44
7C
82
82
82
ENDCHAR
STARTCHAR 00C2
ENCODING 194
SWIDTH 640 0
DWIDTH 8 0
BBX 7 14 0 0
BITMAP
10
28
00
10
28
28
28
44
44
44
7C
82
82
82
ENDCHAR
STARTCHAR 00C3
ENCODING 195
SWIDTH 640 0
DWIDTH 8 0
BBX 7 14 0 0
BITMAP
32
4C
00
10
28
28
28
44
44
44
7C
82
82
82
ENDCHAR
STARTCHAR 00C4
ENCODING 196
SWIDTH 640 0
DWIDTH 8 0
BBX 7 13 0 0
BITMAP
28
00
10
28
28
28
44
44
44
7C
82
82
82
ENDCHAR
STARTCHAR 00C5
ENCODING 197
SWIDTH 640 0
DWIDTH 8 0
BBX 7 14 0 0
BITMAP
10
28
10
10
28
28
28
44
44
44
7C
82
82
82
ENDCHAR
STARTCHAR 00C6
ENCODING 198
SWIDTH 800 0
DWIDTH 10 0
BBX 9 11 0 0
BITMAP
1F80
2800
2800
2800
4800
4F80
4800
7800
8800
8800
8F80
ENDCHAR
STARTCHAR 00C7
ENCODING 199
SWIDTH 720 0
DWIDTH 9 0
BBX 8 13 0 -2
BITMAP
3C
42
81
80
80
80
80
80
81
42
3C
08
30
ENDCHAR
STARTCHAR 00C8
ENCODING 200
SWIDTH 560 0
DWIDTH 7 0
BBX 6 14 0 0
BITMAP
20
10
00
FC
80
80
80
80
FC
80
80
80
80
FC
ENDCHAR
STARTCHAR 00C9
ENCODING 201
SWIDTH 560 0
DWIDTH 7 0
BBX 6 14 0 0
BITMAP
10
20
00
FC
80
80
80
80
FC
80
80
80
80
FC
ENDCHAR
STARTCHAR 00CA
ENCODING 202
SWIDTH 560 0
DWIDTH 7 0
BBX 6 14 0 0
BITMAP
10
28
00
FC
80
80
80
80
FC
80
80
80
80
FC
ENDCHAR
STARTCHAR 00CB
ENCODING 203
SWIDTH 640 0
DWIDTH 8 0
BBX 6 13 0 0
BITMAP
28
00
FC
80
80
80
80
FC
80
80
80
80
FC
ENDCHAR
STARTCHAR 00CC
ENCODING 204
SWIDTH 320 0
DWIDTH 4 0
BBX 3 14 0 0
BITMAP
80
40
00
E0
40
40
40
40
40
40
40
40
40
E0
ENDCHAR
STARTCHAR 00CD
ENCODING 205
SWIDTH 320 0
DWIDTH 4 0
BBX 3 14 0 0
BITMAP
20
40
00
E0
40
40
40
40
40
40
40
40
40
E0
ENDCHAR
STARTCHAR 00CE
ENCODING 206
SWIDTH 320 0
DWIDTH 4 0
BBX 3 14 0 0
BITMAP
40
A0
00
E0
40
40
40
40
40
40
40
40
40
E0
ENDCHAR
STARTCHAR 00CF
ENCODING 207
SWIDTH 320 0
DWIDTH 4 0
BBX 3 13 0 0
BITMAP
A0
00
E0
40
40
40
40
40
40
40
40
40
E0
ENDCHAR
STARTCHAR 00D0
ENCODING 208
SWIDTH 800 0
DWIDTH 10 0
BBX 9 11 0 0
BITMAP
3E00
2100
2080
2080
2080
F880
2080
2080
2080
2100
3E00
ENDCHAR
STARTCHAR 00D1
ENCODING 209
SWIDTH 640 0
DWIDTH 8 0
BBX 7 14 0 0
BITMAP
32
4C
00
82
C2
C2
A2
A2
92
8A
8A
86
86
82
ENDCHAR
STARTCHAR 00D2
ENCODING 210
SWIDTH 720 0
DWIDTH 9 0
BBX 8 14 0 0
BITMAP
10
08
00
3C
42
81
81
81
81
81
81
81
42
3C
ENDCHAR
STARTCHAR 00D3
ENCODING 211
SWIDTH 720 0
DWIDTH 9 0
BBX 8 14 0 0
BITMAP
08
10
00
3C
42
81
81
81
81
81
81
81
42
3C
ENDCHAR
STARTCHAR 00D4
ENCODING 212
SWIDTH 720 0
DWIDTH 9 0
BBX 8 14 0 0
BITMAP
08
14
00
3C
42
81
81
81
81
81
81
81
42
3C
ENDCHAR
STARTCHAR 00D5
ENCODING 213
SWIDTH 720 0
DWIDTH 9 0
BBX 8 14 0 0
BITMAP
32
4C
00
3C
42
81
81
81
81
81
81
81
42
3C
ENDCHAR
STARTCHAR 00D6
ENCODING 214
SWIDTH 720 0
DWIDTH 9 0
BBX 8 13 0 0
BITMAP
24
00
3C
42
81
81
81
81
81
81
81
42
3C
ENDCHAR
STARTCHAR 00D7
ENCODING 215
SWIDTH 640 0
DWIDTH 8 0
BBX 7 7 0 2
BITMAP
82
44
28
10
28
44
82
ENDCHAR
STARTCHAR 00D8
ENCODING 216
SWIDTH 800 0
DWIDTH 10 0
BBX 9 11 0 0
BITMAP
1C00
2280
4100
4300
4500
4900
5100
6100
4100
A200
1C00
ENDCHAR
STARTCHAR 00D9
ENCODING 217
SWIDTH 640 0
DWIDTH 8 0
BBX 7 14 0 0
BITMAP
20
10
00
82
82
82
82
82
82
82
82
82
44
38
ENDCHAR
STARTCHAR 00DA
ENCODING 218
SWIDTH 640 0
DWIDTH 8 0
BBX 7 14 0 0
BITMAP
08
10
00
82
82
82
82
82
82
82
82
82
44
38
ENDCHAR
STARTCHAR 00DB
ENCODING 219
SWIDTH 640 0
DWIDTH 8 0
BBX 7 14 0 0
BITMAP
10
28
00
82
82
82
82
82
82
82
82
82
44
38
ENDCHAR
STARTCHAR 00DC
ENCODING 220
SWIDTH 640 0
DWIDTH 8 0
BBX 7 13 0 0
BITMAP
28
00
82
82
82
82
82
82
82
82
82
44
38
ENDCHAR
STARTCHAR 00DD
ENCODING 221
SWIDTH 640 0
DWIDTH 8 0
BBX 7 14 0 0
BITMAP
08
10
00
82
82
44
44
28
28
10
10
10
10
10
ENDCHAR
STARTCHAR 00DE
ENCODING 222
SWIDTH 640 0
DWIDTH 8 0
BBX 7 11 0 0
BITMAP
80
80
F8
84
82
82
84
F8
80
80
80
ENDCHAR
STARTCHAR 00DF
ENCODING 223
SWIDTH 560 0
DWIDTH 7 0
BBX 6 11 0 0
BITMAP
30
48
84
84
88
B0
88
84
84
88
B0
ENDCHAR
STARTCHAR 00E0
ENCODING 224
SWIDTH 560 0
DWIDTH 7 0
BBX 6 11 0 0
BITMAP
20
10
00
78
84
04
3C
44
84
8C
74
ENDCHAR
STARTCHAR 00E1
ENCODING 225
SWIDTH 560 0
DWIDTH 7 0
BBX 6 11 0 0
BITMAP
10
20
00
78
84
04
3C
44
84
8C
74
ENDCHAR
STARTCHAR 00E2
ENCODING 226
SWIDTH 560 0
DWIDTH 7 0
BBX 6 11 0 0
BITMAP
10
28
00
78
84
04
3C
44
84
8C
74
ENDCHAR
STARTCHAR 00E3
ENCODING 227
SWIDTH 560 0
DWIDTH 7 0
BBX 6 11 0 0
BITMAP
64
98
00
78
84
04
3C
44
84
8C
74
ENDCHAR
STARTCHAR 00E4
ENCODING 228
SWIDTH 560 0
DWIDTH 7 0
BBX 6 10 0 0
BITMAP
48
00
78
84
04
3C
44
84
8C
74
ENDCHAR
STARTCHAR 00E5
ENCODING 229
SWIDTH 560 0
DWIDTH 7 0
BBX 6 12 0 0
BITMAP
10
28
10
00
78
84
04
3C
44
84
8C
74
ENDCHAR
STARTCHAR 00E6
ENCODING 230
SWIDTH 640 0
DWIDTH 8 0
BBX 7 8 0 0
BITMAP
6C
92
12
3E
50
90
92
6C
ENDCHAR
STARTCHAR 00E7
ENCODING 231
SWIDTH 560 0
DWIDTH 7 0
BBX 6 10 0 -2
BITMAP
38
44
80
80
80
80
44
38
08
30
ENDCHAR
STARTCHAR 00E8
ENCODING 232
SWIDTH 640 0
DWIDTH 8 0
BBX 7 11 0 0
BITMAP
20
10
00
38
44
82
FE
80
82
44
38
ENDCHAR
STARTCHAR 00E9
ENCODING 233
SWIDTH 640 0
DWIDTH 8 0
BBX 7 11 0 0
BITMAP
08
10
00
38
44
82
FE
80
82
44
38
ENDCHAR
STARTCHAR 00EA
ENCODING 234
SWIDTH 640 0
DWIDTH 8 0
BBX 7 11 0 0
BITMAP
10
28
00
38
44
82
FE
80
82
44
38
ENDCHAR
STARTCHAR 00EB
ENCODING 235
SWIDTH 640 0
DWIDTH 8 0
BBX 7 10 0 0
BITMAP
28
00
38
44
82
FE
80
82
44
38
ENDCHAR
STARTCHAR 00EC
ENCODING 236
SWIDTH 320 0
DWIDTH 4 0
BBX 2 11 0 0
BITMAP
80
40
00
40
40
40
40
40
40
40
40
ENDCHAR
STARTCHAR 00ED
ENCODING 237
SWIDTH 320 0
DWIDTH 4 0
BBX 2 11 1 0
BITMAP
40
80
00
80
80
80
80
80
80
80
80
ENDCHAR
STARTCHAR 00EE
ENCODING 238
SWIDTH 320 0
DWIDTH 4 0
BBX 3 11 0 0
BITMAP
40
A0
00
40
40
40
40
40
40
40
40
ENDCHAR
STARTCHAR 00EF
ENCODING 239
SWIDTH 320 0
DWIDTH 4 0
BBX 3 10 0 0
BITMAP
A0
00
40
40
40
40
40
40
40
40
ENDCHAR
STARTCHAR 00F0
ENCODING 240
SWIDTH 640 0
DWIDTH 8 0
BBX 7 11 0 0
BITMAP
64
18
24
02
3A
46
82
82
82
44
38
ENDCHAR
STARTCHAR 00F1
ENCODING 241
SWIDTH 560 0
DWIDTH 7 0
BBX 6 11 0 0
BITMAP
64
98
00
B8
C4
84
84
84
84
84
84
ENDCHAR
STARTCHAR 00F2
ENCODING 242
SWIDTH 640 0
DWIDTH 8 0
BBX 7 11 0 0
BITMAP
20
10
00
38
44
82
82
82
82
44
38
ENDCHAR
STARTCHAR 00F3
ENCODING 243
SWIDTH 640 0
DWIDTH 8 0
BBX 7 11 0 0
BITMAP
08
10
00
38
44
82
82
82
82
44
38
ENDCHAR
STARTCHAR 00F4
ENCODING 244
SWIDTH 640 0
DWIDTH 8 0
BBX 7 11 0 0
BITMAP
10
28
00
38
44
82
82
82
82
44
38
ENDCHAR
STARTCHAR 00F5
ENCODING 245
SWIDTH 640 0
DWIDTH 8 0
BBX 7 11 0 0
BITMAP
34
48
00
38
44
82
82
82
82
44
38
ENDCHAR
STARTCHAR 00F6
ENCODING 246
SWIDTH 640 0
DWIDTH 8 0
BBX 7 10 0 0
BITMAP
28
00
38
44
82
82
82
82
44
38
ENDCHAR
STARTCHAR 00F7
ENCODING 247
SWIDTH 640 0
DWIDTH 8 0
BBX 7 7 0 2
BITMAP
10
00
00
FE
00
00
10
ENDCHAR
STARTCHAR 00F8
ENCODING 248
SWIDTH 640 0
DWIDTH 8 0
BBX 7 8 0 0
BITMAP
3A
44
8A
92
92
A2
44
B8
ENDCHAR
STARTCHAR 00F9
ENCODING 249
SWIDTH 640 0
DWIDTH 8 0
BBX 7 11 0 0
BITMAP
20
10
00
82
82
82
82
82
82
46
3A
ENDCHAR
STARTCHAR 00FA
ENCODING 250
SWIDTH 640 0
DWIDTH 8 0
BBX 7 11 0 0
BITMAP
08
10
00
82
82
82
82
82
82
46
3A
ENDCHAR
STARTCHAR 00FB
ENCODING 251
SWIDTH 640 0
DWIDTH 8 0
BBX 7 11 0 0
BITMAP
10
28
00
82
82
82
82
82
82
46
3A
ENDCHAR
STARTCHAR 00FC
ENCODING 252
SWIDTH 640 0
DWIDTH 8 0
BBX 7 10 0 0
BITMAP
28
00
82
82
82
82
82
82
46
3A
ENDCHAR
STARTCHAR 00FD
ENCODING 253
SWIDTH 640 0
DWIDTH 8 0
BBX 7 13 0 -2
BITMAP
08
10
00
82
82
44
44
28
28
10
10
20
C0
ENDCHAR
STARTCHAR 00FE
ENCODING 254
SWIDTH 560 0
DWIDTH 7 0
BBX 7 12 0 -2
BITMAP
80
80
B8
C4
82
82
82
82
C4
B8
80
80
ENDCHAR
STARTCHAR 00FF
ENCODING 255
SWIDTH 640 0
DWIDTH 8 0
BBX 7 12 0 -2
BITMAP
28
00
82
82
44
44
28
28
10
10
20
C0
ENDCHAR
STARTCHAR 0100
ENCODING 256
SWIDTH 640 0
DWIDTH 8 0
BBX 7 13 0 0
BITMAP
7C
00
10
28
28
28
44
44
44
7C
82
82
82
ENDCHAR
STARTCHAR 0101
ENCODING 257
SWIDTH 560 0
DWIDTH 7 0
BBX 6 10 0 0
BITMAP
78
00
78
84
04
3C
44
84
8C
74
ENDCHAR
STARTCHAR 0102
ENCODING 258
SWIDTH 640 0
DWIDTH 8 0
BBX 7 14 0 0
BITMAP
24
18
00
10
28
28
28
44
44
44
7C
82
82
82
ENDCHAR
STARTCHAR 0103
ENCODING 259
SWIDTH 560 0
DWIDTH 7 0
BBX 6 11 0 0
BITMAP
48
30
00
78
84
04
3C
44
84
8C
74
ENDCHAR
STARTCHAR 0104
ENCODING 260
SWIDTH 640 0
DWIDTH 8 0
BBX 8 13 0 -2
BITMAP
10
28
28
28
44
44
44
7C
82
82
82
04
03
ENDCHAR
STARTCHAR 0105
ENCODING 261
SWIDTH 560 0
DWIDTH 7 0
BBX 7 10 0 -2
BITMAP
78
84
04
3C
44
84
8C
74
08
06
ENDCHAR
STARTCHAR 0106
ENCODING 262
SWIDTH 720 0
DWIDTH 9 0
BBX 8 14 0 0
BITMAP
08
10
00
3C
42
81
80
80
80
80
80
81
42
3C
ENDCHAR
STARTCHAR 0107
ENCODING 263
SWIDTH 560 0
DWIDTH 7 0
BBX 6 11 0 0
BITMAP
08
10
00
38
44
80
80
80
80
44
38
ENDCHAR
STARTCHAR 0108
ENCODING 264
SWIDTH 720 0
DWIDTH 9 0
BBX 8 14 0 0
BITMAP
08
14
00
3C
42
81
80
80
80
80
80
81
42
3C
ENDCHAR
STARTCHAR 0109
ENCODING 265
SWIDTH 560 0
DWIDTH 7 0
BBX 6 11 0 0
BITMAP
10
28
00
38
44
80
80
80
80
44
38
ENDCHAR
STARTCHAR 010A
ENCODING 266
SWIDTH 720 0
DWIDTH 9 0
BBX 8 13 0 0
BITMAP
08
00
3C
42
81
80
80
80
80
80
81
42
3C
ENDCHAR
STARTCHAR 010B
ENCODING 267
SWIDTH 560 0
DWIDTH 7 0
BBX 6 10 0 0
BITMAP
10
00
38
44
80
80
80
80
44
38
ENDCHAR
STARTCHAR 010C
ENCODING 268
SWIDTH 720 0
DWIDTH 9 0
BBX 8 14 0 0
BITMAP
14
08
00
3C
42
81
80
80
80
80
80
81
42
3C
ENDCHAR
STARTCHAR 010D
ENCODING 269
SWIDTH 560 0
DWIDTH 7 0
BBX 6 11 0 0
BITMAP
28
10
00
38
44
80
80
80
80
44
38
ENDCHAR
STARTCHAR 010E
ENCODING 270
SWIDTH 640 0
DWIDTH 8 0
BBX 7 14 0 0
BITMAP
28
10
00
F8
84
82
82
82
82
82
82
82
84
F8
ENDCHAR
STARTCHAR 010F
ENCODING 271
SWIDTH 640 0
DWIDTH 8 0
BBX 8 14 0 0
BITMAP
05
02
00
02
02
02
3A
46
82
82
82
82
46
3A
ENDCHAR
STARTCHAR 0110
ENCODING 272
SWIDTH 800 0
DWIDTH 10 0
BBX 9 11 0 0
BITMAP
3E00
2100
2080
2080
2080
F880
2080
2080
2080
2100
3E00
ENDCHAR
STARTCHAR 0111
ENCODING 273
SWIDTH 800 0
DWIDTH 10 0
BBX 9 11 0 0
BITMAP
0200
0F80
0200
3A00
4600
8200
8200
8200
8200
4600
3A00
ENDCHAR
STARTCHAR 0112
ENCODING 274
SWIDTH 560 0
DWIDTH 7 0
BBX 6 13 0 0
BITMAP
78
00
FC
80
80
80
80
FC
80
80
80
80
FC
ENDCHAR
STARTCHAR 0113
ENCODING 275
SWIDTH 640 0
DWIDTH 8 0
BBX 7 10 0 0
BITMAP
7C
00
38
44
82
FE
80
82
44
38
ENDCHAR
STARTCHAR 0114
ENCODING 276
SWIDTH 560 0
DWIDTH 7 0
BBX 6 14 0 0
BITMAP
48
30
00
FC
80
80
80
80
FC
80
80
80
80
FC
ENDCHAR
STARTCHAR 0115
ENCODING 277
SWIDTH 640 0
DWIDTH 8 0
BBX 7 11 0 0
BITMAP
24
18
00
38
44
82
FE
80
82
44
38
ENDCHAR
STARTCHAR 0116
ENCODING 278
SWIDTH 560 0
DWIDTH 7 0
BBX 6 13 0 0
BITMAP
10
00
FC
80
80
80
80
FC
80
80
80
80
FC
ENDCHAR
STARTCHAR 0117
ENCODING 279
SWIDTH 640 0
DWIDTH 8 0
BBX 7 10 0 0
BITMAP
10
00
38
44
82
FE
80
82
44
38
ENDCHAR
STARTCHAR 0118
ENCODING 280
SWIDTH 560 0
DWIDTH 7 0
BBX 6 13 0 -2
BITMAP
FC
80
80
80
80
FC
80
80
80
80
FC
20
18
ENDCHAR
STARTCHAR 0119
ENCODING 281
SWIDTH 640 0
DWIDTH 8 0
BBX 7 10 0 -2
BITMAP
38
44
82
FE
80
82
44
38
20
18
ENDCHAR
STARTCHAR 011A
ENCODING 282
SWIDTH 560 0
DWIDTH 7 0
BBX 6 14 0 0
BITMAP
28
10
00
FC
80
80
80
80
FC
80
80
80
80
FC
ENDCHAR
STARTCHAR 011B
ENCODING 283
SWIDTH 640 0
DWIDTH 8 0
BBX 7 11 0 0
BITMAP
28
10
00
38
44
82
FE
80
82
44
38
ENDCHAR
STARTCHAR 011C
ENCODING 284
SWIDTH 720 0
DWIDTH 9 0
BBX 8 14 0 0
BITMAP
08
14
00
3C
42
81
80
80
8F
81
81
81
42
3C
ENDCHAR
STARTCHAR 011D
ENCODING 285
SWIDTH 640 0
DWIDTH 8 0
BBX 7 13 0 -2
BITMAP
10
28
00
3A
46
82
82
82
46
3A
82
44
38
ENDCHAR
STARTCHAR 011E
ENCODING 286
SWIDTH 720 0
DWIDTH 9 0
BBX 8 14 0 0
BITMAP
24
18
00
3C
42
81
80
80
8F
81
81
81
42
3C
ENDCHAR
STARTCHAR 011F
ENCODING 287
SWIDTH 640 0
DWIDTH 8 0
BBX 7 13 0 -2
BITMAP
24
18
00
3A
46
82
82
82
46
3A
82
44
38
ENDCHAR
STARTCHAR 0120
ENCODING 288
SWIDTH 720 0
DWIDTH 9 0
BBX 8 13 0 0
BITMAP
08
00
3C
42
81
80
80
8F
81
81
81
42
3C
ENDCHAR
STARTCHAR 0121
ENCODING 289
SWIDTH 640 0
DWIDTH 8 0
BBX 7 12 0 -2
BITMAP
10
00
3A
46
82
82
82
46
3A
82
44
38
ENDCHAR
STARTCHAR 0122
ENCODING 290
SWIDTH 720 0
DWIDTH 9 0
BBX 8 13 0 -2
BITMAP
3C
42
81
80
80
8F
81
81
81
42
3C
08
10
ENDCHAR
STARTCHAR 0123
ENCODING 291
SWIDTH 640 0
DWIDTH 8 0
BBX 7 13 0 -2
BITMAP
08
10
00
3A
46
82
82
82
46
3A
82
44
38
ENDCHAR
STARTCHAR 0124
ENCODING 292
SWIDTH 640 0
DWIDTH 8 0
BBX 7 13 0 0
BITMAP
10
28
82
82
82
82
82
FE
82
82
82
82
82
ENDCHAR
STARTCHAR 0125
ENCODING 293
SWIDTH 560 0
DWIDTH 7 0
BBX 7 14 -1 0
BITMAP
40
A0
00
40
40
40
5C
62
42
42
42
42
42
42
ENDCHAR
STARTCHAR 0126
ENCODING 294
SWIDTH 800 0
DWIDTH 10 0
BBX 9 11 0 0
BITMAP
4100
4100
FF80
4100
4100
7F00
4100
4100
4100
4100
4100
ENDCHAR
STARTCHAR 0127
ENCODING 295
SWIDTH 720 0
DWIDTH 9 0
BBX 8 11 0 0
BITMAP
20
F8
20
2E
31
21
21
21
21
21
21
ENDCHAR
STARTCHAR 0128
ENCODING 296
SWIDTH 320 0
DWIDTH 4 0
BBX 4 14 0 0
BITMAP
50
A0
00
E0
40
40
40
40
40
40
40
40
40
E0
ENDCHAR
STARTCHAR 0129
ENCODING 297
SWIDTH 320 0
DWIDTH 4 0
BBX 4 11 0 0
BITMAP
50
A0
00
40
40
40
40
40
40
40
40
ENDCHAR
STARTCHAR 012A
ENCODING 298
SWIDTH 320 0
DWIDTH 4 0
BBX 3 13 0 0
BITMAP
E0
00
E0
40
40
40
40
40
40
40
40
40
E0
ENDCHAR
STARTCHAR 012B
ENCODING 299
SWIDTH 320 0
DWIDTH 4 0
BBX 3 10 0 0
BITMAP
E0
00
40
40
40
40
40
40
40
40
ENDCHAR
STARTCHAR 012C
ENCODING 300
SWIDTH 320 0
DWIDTH 4 0
BBX 4 14 0 0
BITMAP
90
60
00
E0
40
40
40
40
40
40
40
40
40
E0
ENDCHAR
STARTCHAR 012D
ENCODING 301
SWIDTH 320 0
DWIDTH 4 0
BBX 4 11 0 0
BITMAP
90
60
00
40
40
40
40
40
40
40
40
ENDCHAR
STARTCHAR 012E
ENCODING 302
SWIDTH 320 0
DWIDTH 4 0
BBX 4 13 0 -2
BITMAP
E0
40
40
40
40
40
40
40
40
40
E0
40
30
ENDCHAR
STARTCHAR 012F
ENCODING 303
SWIDTH 320 0
DWIDTH 4 0
BBX 3 13 0 -2
BITMAP
40
40
00
40
40
40
40
40
40
40
40
80
60
ENDCHAR
STARTCHAR 0130
ENCODING 304
SWIDTH 320 0
DWIDTH 4 0
BBX 3 13 0 0
BITMAP
40
00
E0
40
40
40
40
40
40
40
40
40
E0
ENDCHAR
STARTCHAR 0131
ENCODING 305
SWIDTH 320 0
DWIDTH 4 0
BBX 1 8 1 0
BITMAP
80
80
80
80
80
80
80
80
ENDCHAR
STARTCHAR 0132
ENCODING 306
SWIDTH 880 0
DWIDTH 11 0
BBX 9 11 1 0
BITMAP
8080
8080
8080
8080
8080
8080
8080
8080
9080
8900
8600
ENDCHAR
STARTCHAR 0133
ENCODING 307
SWIDTH 560 0
DWIDTH 7 0
BBX 4 12 1 -2
BITMAP
90
00
90
90
90
90
90
90
90
90
10
E0
ENDCHAR
STARTCHAR 0134
ENCODING 308
SWIDTH 560 0
DWIDTH 7 0
BBX 7 14 0 0
BITMAP
04
0A
00
04
04
04
04
04
04
04
04
84
48
30
ENDCHAR
STARTCHAR 0135
ENCODING 309
SWIDTH 480 0
DWIDTH 6 0
BBX 5 13 0 -2
BITMAP
10
28
00
10
10
10
10
10
10
10
10
90
60
ENDCHAR
STARTCHAR 0136
ENCODING 310
SWIDTH 640 0
DWIDTH 8 0
BBX 7 13 0 -2
BITMAP
82
84
88
90
A0
C0
A0
90
88
84
82
10
20
ENDCHAR
STARTCHAR 0137
ENCODING 311
SWIDTH 560 0
DWIDTH 7 0
BBX 6 13 0 -2
BITMAP
80
80
80
84
88
90
E0
A0
90
88
84
10
20
ENDCHAR
STARTCHAR 0138
ENCODING 312
SWIDTH 560 0
DWIDTH 7 0
BBX 6 8 0 0
BITMAP
84
88
90
E0
A0
90
88
84
ENDCHAR
STARTCHAR 0139
ENCODING 313
SWIDTH 560 0
DWIDTH 7 0
BBX 6 14 0 0
BITMAP
40
80
00
80
80
80
80
80
80
80
80
80
80
FC
ENDCHAR
STARTCHAR 013A
ENCODING 314
SWIDTH 320 0
DWIDTH 4 0
BBX 2 14 1 0
BITMAP
40
80
00
80
80
80
80
80
80
80
80
80
80
80
ENDCHAR
STARTCHAR 013B
ENCODING 315
SWIDTH 560 0
DWIDTH 7 0
BBX 6 13 0 -2
BITMAP
80
80
80
80
80
80
80
80
80
80
FC
10
20
ENDCHAR
STARTCHAR 013C
ENCODING 316
SWIDTH 320 0
DWIDTH 4 0
BBX 2 13 1 -2
BITMAP
80
80
80
80
80
80
80
80
80
80
80
40
80
ENDCHAR
STARTCHAR 013D
ENCODING 317
SWIDTH 560 0
DWIDTH 7 0
BBX 7 14 -1 0
BITMAP
A0
40
00
40
40
40
40
40
40
40
40
40
40
7E
ENDCHAR
STARTCHAR 013E
ENCODING 318
SWIDTH 320 0
DWIDTH 4 0
BBX 3 14 0 0
BITMAP
A0
40
00
40
40
40
40
40
40
40
40
40
40
40
ENDCHAR
STARTCHAR 013F
ENCODING 319
SWIDTH 560 0
DWIDTH 7 0
BBX 6 11 0 0
BITMAP
80
80
80
80
80
90
80
80
80
80
FC
ENDCHAR
STARTCHAR 0140
ENCODING 320
SWIDTH 400 0
DWIDTH 5 0
BBX 3 11 1 0
BITMAP
80
80
80
80
80
A0
80
80
80
80
80
ENDCHAR
STARTCHAR 0141
ENCODING 321
SWIDTH 720 0
DWIDTH 9 0
BBX 8 11 0 0
BITMAP
20
20
20
28
30
20
60
A0
20
20
3F
ENDCHAR
STARTCHAR 0142
ENCODING 322
SWIDTH 480 0
DWIDTH 6 0
BBX 5 11 0 0
BITMAP
20
20
20
28
30
20
60
A0
20
20
20
ENDCHAR
STARTCHAR 0143
ENCODING 323
SWIDTH 640 0
DWIDTH 8 0
BBX 7 14 0 0
BITMAP
08
10
00
82
C2
C2
A2
A2
92
8A
8A
86
86
82
ENDCHAR
STARTCHAR 0144
ENCODING 324
SWIDTH 560 0
DWIDTH 7 0
BBX 6 11 0 0
BITMAP
10
20
00
B8
C4
84
84
84
84
84
84
ENDCHAR
STARTCHAR 0145
ENCODING 325
SWIDTH 640 0
DWIDTH 8 0
BBX 7 13 0 -2
BITMAP
82
C2
C2
A2
A2
92
8A
8A
86
86
82
10
20
ENDCHAR
STARTCHAR 0146
ENCODING 326
SWIDTH 560 0
DWIDTH 7 0
BBX 6 10 0 -2
BITMAP
B8
C4
84
84
84
84
84
84
10
20
ENDCHAR
STARTCHAR 0147
ENCODING 327
SWIDTH 640 0
DWIDTH 8 0
BBX 7 13 0 0
BITMAP
28
10
82
C2
C2
A2
A2
92
8A
8A
86
86
82
ENDCHAR
STARTCHAR 0148
ENCODING 328
SWIDTH 560 0
DWIDTH 7 0
BBX 6 11 0 0
BITMAP
28
10
00
B8
C4
84
84
84
84
84
84
ENDCHAR
STARTCHAR 0149
ENCODING 329
SWIDTH 560 0
DWIDTH 7 0
BBX 6 11 0 0
BITMAP
40
80
00
B8
C4
84
84
84
84
84
84
ENDCHAR
STARTCHAR 014A
ENCODING 330
SWIDTH 640 0
DWIDTH 8 0
BBX 7 13 0 -2
BITMAP
82
C2
C2
A2
A2
92
8A
8A
86
86
82
02
0C
ENDCHAR
STARTCHAR 014B
ENCODING 331
SWIDTH 560 0
DWIDTH 7 0
BBX 6 10 0 -2
BITMAP
B8
C4
84
84
84
84
84
84
04
18
ENDCHAR
STARTCHAR 014C
ENCODING 332
SWIDTH 720 0
DWIDTH 9 0
BBX 8 13 0 0
BITMAP
3C
00
3C
42
81
81
81
81
81
81
81
42
3C
ENDCHAR
STARTCHAR 014D
ENCODING 333
SWIDTH 640 0
DWIDTH 8 0
BBX 7 10 0 0
BITMAP
38
00
38
44
82
82
82
82
44
38
ENDCHAR
STARTCHAR 014E
ENCODING 334
SWIDTH 720 0
DWIDTH 9 0
BBX 8 14 0 0
BITMAP
24
18
00
3C
42
81
81
81
81
81
81
81
42
3C
ENDCHAR
STARTCHAR 014F
ENCODING 335
SWIDTH 640 0
DWIDTH 8 0
BBX 7 11 0 0
BITMAP
24
18
00
38
44
82
82
82
82
44
38
ENDCHAR
STARTCHAR 0150
ENCODING 336
SWIDTH 720 0
DWIDTH 9 0
BBX 8 14 0 0
BITMAP
14
28
00
3C
42
81
81
81
81
81
81
81
42
3C
ENDCHAR
STARTCHAR 0151
ENCODING 337
SWIDTH 640 0
DWIDTH 8 0
BBX 7 11 0 0
BITMAP
14
28
00
38
44
82
82
82
82
44
38
ENDCHAR
STARTCHAR 0152
ENCODING 338
SWIDTH 800 0
DWIDTH 10 0
BBX 9 11 0 0
BITMAP
3F80
4800
8800
8800
8800
8F80
8800
8800
8800
4800
3F80
ENDCHAR
STARTCHAR 0153
ENCODING 339
SWIDTH 640 0
DWIDTH 8 0
BBX 7 8 0 0
BITMAP
6C
92
92
9E
90
90
92
6C
ENDCHAR
STARTCHAR 0154
ENCODING 340
SWIDTH 640 0
DWIDTH 8 0
BBX 7 14 0 0
BITMAP
10
20
00
F8
84
82
82
82
84
F8
90
88
84
82
ENDCHAR
STARTCHAR 0155
ENCODING 341
SWIDTH 480 0
DWIDTH 6 0
BBX 5 11 0 0
BITMAP
20
40
00
B0
C8
80
80
80
80
80
80
ENDCHAR
STARTCHAR 0156
ENCODING 342
SWIDTH 640 0
DWIDTH 8 0
BBX 7 13 0 -2
BITMAP
F8
84
82
82
82
84
F8
90
88
84
82
10
20
ENDCHAR
STARTCHAR 0157
ENCODING 343
SWIDTH 480 0
DWIDTH 6 0
BBX 5 10 0 -2
BITMAP
B0
C8
80
80
80
80
80
80
20
40
ENDCHAR
STARTCHAR 0158
ENCODING 344
SWIDTH 640 0
DWIDTH 8 0
BBX 7 14 0 0
BITMAP
28
10
00
F8
84
82
82
82
84
F8
90
88
84
82
ENDCHAR
STARTCHAR 0159
ENCODING 345
SWIDTH 480 0
DWIDTH 6 0
BBX 5 11 0 0
BITMAP
50
20
00
B0
C8
80
80
80
80
80
80
ENDCHAR
STARTCHAR 015A
ENCODING 346
SWIDTH 640 0
DWIDTH 8 0
BBX 7 14 0 0
BITMAP
08
10
00
38
44
82
80
40
38
04
02
82
44
38
ENDCHAR
STARTCHAR 015B
ENCODING 347
SWIDTH 560 0
DWIDTH 7 0
BBX 6 11 0 0
BITMAP
10
20
00
78
84
80
60
18
04
84
78
ENDCHAR
STARTCHAR 015C
ENCODING 348
SWIDTH 640 0
DWIDTH 8 0
BBX 7 14 0 0
BITMAP
10
28
00
38
44
82
80
40
38
04
02
82
44
38
ENDCHAR
STARTCHAR 015D
ENCODING 349
SWIDTH 560 0
DWIDTH 7 0
BBX 6 11 0 0
BITMAP
10
28
00
78
84
80
60
18
04
84
78
ENDCHAR
STARTCHAR 015E
ENCODING 350
SWIDTH 640 0
DWIDTH 8 0
BBX 7 13 0 -2
BITMAP
38
44
82
80
40
38
04
02
82
44
38
08
30
ENDCHAR
STARTCHAR 015F
ENCODING 351
SWIDTH 560 0
DWIDTH 7 0
BBX 6 10 0 -2
BITMAP
78
84
80
60
18
04
84
78
10
60
ENDCHAR
STARTCHAR 0160
ENCODING 352
SWIDTH 640 0
DWIDTH 8 0
BBX 7 14 0 0
BITMAP
28
10
00
38
44
82
80
40
38
04
02
82
44
38
ENDCHAR
STARTCHAR 0161
ENCODING 353
SWIDTH 560 0
DWIDTH 7 0
BBX 6 11 0 0
BITMAP
28
10
00
78
84
80
60
18
04
84
78
ENDCHAR
STARTCHAR 0162
ENCODING 354
SWIDTH 640 0
DWIDTH 8 0
BBX 7 13 0 -2
BITMAP
FE
10
10
10
10
10
10
10
10
10
10
08
30
ENDCHAR
STARTCHAR 0163
ENCODING 355
SWIDTH 480 0
DWIDTH 6 0
BBX 5 12 0 -2
BITMAP
40
40
F8
40
40
40
40
40
48
30
10
60
ENDCHAR
STARTCHAR 0164
ENCODING 356
SWIDTH 640 0
DWIDTH 8 0
BBX 7 14 0 0
BITMAP
28
10
00
FE
10
10
10
10
10
10
10
10
10
10
ENDCHAR
STARTCHAR 0165
ENCODING 357
SWIDTH 480 0
DWIDTH 6 0
BBX 5 13 0 0
BITMAP
A0
40
00
40
40
F8
40
40
40
40
40
48
30
ENDCHAR
STARTCHAR 0166
ENCODING 358
SWIDTH 640 0
DWIDTH 8 0
BBX 7 11 0 0
BITMAP
FE
10
10
10
10
7C
10
10
10
10
10
ENDCHAR
STARTCHAR 0167
ENCODING 359
SWIDTH 480 0
DWIDTH 6 0
BBX 5 10 0 0
BITMAP
40
40
F8
40
F8
40
40
40
48
30
ENDCHAR
STARTCHAR 0168
ENCODING 360
SWIDTH 720 0
DWIDTH 9 0
BBX 8 14 0 0
BITMAP
32
4C
00
81
81
81
81
81
81
81
81
81
42
3C
ENDCHAR
STARTCHAR 0169
ENCODING 361
SWIDTH 640 0
DWIDTH 8 0
BBX 7 11 0 0
BITMAP
34
48
00
82
82
82
82
82
82
46
3A
ENDCHAR
STARTCHAR 016A
ENCODING 362
SWIDTH 720 0
DWIDTH 9 0
BBX 8 13 0 0
BITMAP
3C
00
81
81
81
81
81
81
81
81
81
42
3C
ENDCHAR
STARTCHAR 016B
ENCODING 363
SWIDTH 640 0
DWIDTH 8 0
BBX 7 10 0 0
BITMAP
38
00
82
82
82
82
82
82
46
3A
ENDCHAR
STARTCHAR 016C
ENCODING 364
SWIDTH 720 0
DWIDTH 9 0
BBX 8 14 0 0
BITMAP
24
18
00
81
81
81
81
81
81
81
81
81
42
3C
ENDCHAR
STARTCHAR 016D
ENCODING 365
SWIDTH 640 0
DWIDTH 8 0
BBX 7 11 0 0
BITMAP
24
18
00
82
82
82
82
82
82
46
3A
ENDCHAR
STARTCHAR 016E
ENCODING 366
SWIDTH 720 0
DWIDTH 9 0
BBX 8 14 0 0
BITMAP
08
14
08
81
81
81
81
81
81
81
81
81
42
3C
ENDCHAR
STARTCHAR 016F
ENCODING 367
SWIDTH 640 0
DWIDTH 8 0
BBX 7 11 0 0
BITMAP
10
28
10
82
82
82
82
82
82
46
3A
ENDCHAR
STARTCHAR 0170
ENCODING 368
SWIDTH 640 0
DWIDTH 8 0
BBX 7 14 0 0
BITMAP
14
28
00
82
82
82
82
82
82
82
82
82
44
38
ENDCHAR
STARTCHAR 0171
ENCODING 369
SWIDTH 640 0
DWIDTH 8 0
BBX 7 11 0 0
BITMAP
14
28
00
82
82
82
82
82
82
46
3A
ENDCHAR
STARTCHAR 0172
ENCODING 370
SWIDTH 640 0
DWIDTH 8 0
BBX 7 13 0 -2
BITMAP
82
82
82
82
82
82
82
82
82
44
38
20
18
ENDCHAR
STARTCHAR 0173
ENCODING 371
SWIDTH 640 0
DWIDTH 8 0
BBX 8 10 0 -2
BITMAP
82
82
82
82
82
82
46
3A
04
03
ENDCHAR
STARTCHAR 0174
ENCODING 372
SWIDTH 800 0
DWIDTH 10 0
BBX 9 14 0 0
BITMAP
0800
1400
0000
8880
8880
8880
8880
5500
5500
5500
5500
2200
2200
2200
ENDCHAR
STARTCHAR 0175
ENCODING 373
SWIDTH 800 0
DWIDTH 10 0
BBX 9 11 0 0
BITMAP
0800
1400
0000
8880
8880
8880
5500
5500
5500
2200
2200
ENDCHAR
STARTCHAR 0176
ENCODING 374
SWIDTH 640 0
DWIDTH 8 0
BBX 7 14 0 0
BITMAP
10
28
00
82
82
44
44
28
28
10
10
10
10
10
ENDCHAR
STARTCHAR 0177
ENCODING 375
SWIDTH 640 0
DWIDTH 8 0
BBX 7 13 0 -2
BITMAP
10
28
00
82
82
44
44
28
28
10
10
20
C0
ENDCHAR
STARTCHAR 0178
ENCODING 376
SWIDTH 640 0
DWIDTH 8 0
BBX 7 13 0 0
BITMAP
28
00
82
82
44
44
28
28
10
10
10
10
10
ENDCHAR
STARTCHAR 0179
ENCODING 377
SWIDTH 560 0
DWIDTH 7 0
BBX 6 14 0 0
BITMAP
10
20
00
FC
08
08
10
10
20
20
40
40
80
FC
ENDCHAR
STARTCHAR 017A
ENCODING 378
SWIDTH 560 0
DWIDTH 7 0
BBX 6 11 0 0
BITMAP
10
20
00
FC
04
08
10
20
40
80
FC
ENDCHAR
STARTCHAR 017B
ENCODING 379
SWIDTH 560 0
DWIDTH 7 0
BBX 6 13 0 0
BITMAP
10
00
FC
08
08
10
10
20
20
40
40
80
FC
ENDCHAR
STARTCHAR 017C
ENCODING 380
SWIDTH 560 0
DWIDTH 7 0
BBX 6 10 0 0
BITMAP
10
00
FC
04
08
10
20
40
80
FC
ENDCHAR
STARTCHAR 017D
ENCODING 381
SWIDTH 560 0
DWIDTH 7 0
BBX 6 14 0 0
BITMAP
28
10
00
FC
08
08
10
10
20
20
40
40
80
FC
ENDCHAR
STARTCHAR 017E
ENCODING 382
SWIDTH 560 0
DWIDTH 7 0
BBX 6 11 0 0
BITMAP
28
10
00
FC
04
08
10
20
40
80
FC
ENDCHAR
STARTCHAR 017F
ENCODING 383
SWIDTH 320 0
DWIDTH 4 0
BBX 3 11 0 0
BITMAP
60
80
80
80
80
80
80
80
80
80
80
ENDCHAR
STARTCHAR 0186
ENCODING 390
SWIDTH 720 0
DWIDTH 9 0
BBX 8 11 0 0
BITMAP
3C
42
81
01
01
01
01
01
81
42
3C
ENDCHAR
STARTCHAR 018E
ENCODING 398
SWIDTH 560 0
DWIDTH 7 0
BBX 6 11 0 0
BITMAP
FC
04
04
04
04
FC
04
04
04
04
FC
ENDCHAR
STARTCHAR 018F
ENCODING 399
SWIDTH 720 0
DWIDTH 9 0
BBX 8 11 0 0
BITMAP
3C
42
81
01
01
FF
81
81
81
42
3C
ENDCHAR
STARTCHAR 0190
ENCODING 400
SWIDTH 720 0
DWIDTH 9 0
BBX 8 11 0 0
BITMAP
3C
42
81
80
40
3C
40
80
81
42
3C
ENDCHAR
STARTCHAR 0191
ENCODING 401
SWIDTH 640 0
DWIDTH 8 0
BBX 9 13 -2 -2
BITMAP
3F80
2000
2000
2000
2000
3F80
2000
2000
2000
2000
2000
2000
C000
ENDCHAR
STARTCHAR 0192
ENCODING 402
SWIDTH 480 0
DWIDTH 6 0
BBX 5 13 0 -2
BITMAP
18
20
20
F8
20
20
20
20
20
20
20
20
C0
ENDCHAR
STARTCHAR 0198
ENCODING 408
SWIDTH 640 0
DWIDTH 8 0
BBX 7 11 0 0
BITMAP
62
84
88
90
A0
C0
A0
90
88
84
82
ENDCHAR
STARTCHAR 0199
ENCODING 409
SWIDTH 560 0
DWIDTH 7 0
BBX 6 11 0 0
BITMAP
60
80
80
84
88
90
E0
A0
90
88
84
ENDCHAR
STARTCHAR 019C
ENCODING 412
SWIDTH 800 0
DWIDTH 10 0
BBX 9 11 0 0
BITMAP
8880
8880
8880
8880
8880
8880
8880
8880
8880
9980
6680
ENDCHAR
STARTCHAR 019D
ENCODING 413
SWIDTH 640 0
DWIDTH 8 0
BBX 9 13 -2 -2
BITMAP
2080
3080
3080
2880
2880
2480
2280
2280
2180
2180
2080
2000
C000
ENDCHAR
STARTCHAR 019E
ENCODING 414
SWIDTH 560 0
DWIDTH 7 0
BBX 6 10 0 -2
BITMAP
B8
C4
84
84
84
84
84
84
04
04
ENDCHAR
STARTCHAR 019F
ENCODING 415
SWIDTH 720 0
DWIDTH 9 0
BBX 8 11 0 0
BITMAP
3C
42
81
81
81
FF
81
81
81
42
3C
ENDCHAR
STARTCHAR 01A7
ENCODING 423
SWIDTH 640 0
DWIDTH 8 0
BBX 7 11 0 0
BITMAP
38
44
82
02
04
38
40
80
82
44
38
ENDCHAR
STARTCHAR 01A8
ENCODING 424
SWIDTH 560 0
DWIDTH 7 0
BBX 6 8 0 0
BITMAP
78
84
04
18
60
80
84
78
ENDCHAR
STARTCHAR 01A9
ENCODING 425
SWIDTH 640 0
DWIDTH 8 0
BBX 7 11 0 0
BITMAP
FE
80
40
20
10
08
10
20
40
80
FE
ENDCHAR
STARTCHAR 01AE
ENCODING 430
SWIDTH 640 0
DWIDTH 8 0
BBX 7 13 0 -2
BITMAP
FE
10
10
10
10
10
10
10
10
10
10
10
0C
ENDCHAR
STARTCHAR 01B5
ENCODING 437
SWIDTH 560 0
DWIDTH 7 0
BBX 6 11 0 0
BITMAP
FC
08
08
10
10
FC
20
40
40
80
FC
ENDCHAR
STARTCHAR 01B6
ENCODING 438
SWIDTH 560 0
DWIDTH 7 0
BBX 6 8 0 0
BITMAP
FC
04
08
FC
20
40
80
FC
ENDCHAR
STARTCHAR 01C0
ENCODING 448
SWIDTH 320 0
DWIDTH 4 0
BBX 1 13 1 -2
BITMAP
80
80
80
80
80
80
80
80
80
80
80
80
80
ENDCHAR
STARTCHAR 01C1
ENCODING 449
SWIDTH 480 0
DWIDTH 6 0
BBX 3 13 1 -2
BITMAP
A0
A0
A0
A0
A0
A0
A0
A0
A0
A0
A0
A0
A0
ENDCHAR
STARTCHAR 01C2
ENCODING 450
SWIDTH 480 0
DWIDTH 6 0
BBX 5 13 0 -2
BITMAP
20
20
20
20
F8
20
20
20
F8
20
20
20
20
ENDCHAR
STARTCHAR 01C3
ENCODING 451
SWIDTH 320 0
DWIDTH 4 0
BBX 1 11 1 0
BITMAP
80
80
80
80
80
80
80
80
00
80
80
ENDCHAR
STARTCHAR 01C4
ENCODING 452
SWIDTH 1120 0
DWIDTH 14 0
BBX 13 14 0 0
BITMAP
0050
0020
0000
F1F8
8810
8410
8420
8420
8440
8440
8480
8480
8900
F1F8
ENDCHAR
STARTCHAR 01C5
ENCODING 453
SWIDTH 1200 0
DWIDTH 15 0
BBX 12 11 1 0
BITMAP
F0A0
8840
8400
85F0
8420
8420
8440
8440
8480
8880
F1F0
ENDCHAR
STARTCHAR 01C6
ENCODING 454
SWIDTH 1040 0
DWIDTH 13 0
BBX 12 11 0 0
BITMAP
04A0
0440
0400
35F0
4C20
8420
8440
8440
8480
4C80
35F0
ENDCHAR
STARTCHAR 01C7
ENCODING 455
SWIDTH 1200 0
DWIDTH 15 0
BBX 14 11 0 0
BITMAP
8004
8004
8004
8004
8004
8004
8004
8004
8104
8090
FC60
ENDCHAR
STARTCHAR 01C8
ENCODING 456
SWIDTH 800 0
DWIDTH 10 0
BBX 9 13 0 -2
BITMAP
8000
8080
8000
8080
8080
8080
8080
8080
8080
8080
FC80
0080
0300
ENDCHAR
STARTCHAR 01C9
ENCODING 457
SWIDTH 480 0
DWIDTH 6 0
BBX 4 13 1 -2
BITMAP
80
90
80
90
90
90
90
90
90
90
90
10
60
ENDCHAR
STARTCHAR 01CA
ENCODING 458
SWIDTH 1040 0
DWIDTH 13 0
BBX 12 11 0 0
BITMAP
8410
C410
C410
A410
A410
9410
9410
8C10
8C10
8510
84E0
ENDCHAR
STARTCHAR 01CB
ENCODING 459
SWIDTH 800 0
DWIDTH 10 0
BBX 9 13 0 -2
BITMAP
8400
C480
C400
A480
A480
9480
9480
8C80
8C80
8480
8480
0080
0300
ENDCHAR
STARTCHAR 01CC
ENCODING 460
SWIDTH 720 0
DWIDTH 9 0
BBX 8 12 0 -2
BITMAP
01
00
B1
C9
89
89
89
89
89
89
01
06
ENDCHAR
STARTCHAR 01CD
ENCODING 461
SWIDTH 640 0
DWIDTH 8 0
BBX 7 14 0 0
BITMAP
28
10
00
10
28
28
28
44
44
44
7C
82
82
82
ENDCHAR
STARTCHAR 01CE
ENCODING 462
SWIDTH 560 0
DWIDTH 7 0
BBX 6 11 0 0
BITMAP
28
10
00
78
84
04
3C
44
84
8C
74
ENDCHAR
STARTCHAR 01CF
ENCODING 463
SWIDTH 320 0
DWIDTH 4 0
BBX 3 14 0 0
BITMAP
A0
40
00
E0
40
40
40
40
40
40
40
40
40
E0
ENDCHAR
STARTCHAR 01D0
ENCODING 464
SWIDTH 320 0
DWIDTH 4 0
BBX 3 11 0 0
BITMAP
A0
40
00
40
40
40
40
40
40
40
40
ENDCHAR
STARTCHAR 01D1
ENCODING 465
SWIDTH 720 0
DWIDTH 9 0
BBX 8 14 0 0
BITMAP
14
08
00
3C
42
81
81
81
81
81
81
81
42
3C
ENDCHAR
STARTCHAR 01D2
ENCODING 466
SWIDTH 640 0
DWIDTH 8 0
BBX 7 11 0 0
BITMAP
28
10
00
38
44
82
82
82
82
44
38
ENDCHAR
STARTCHAR 01D3
ENCODING 467
SWIDTH 720 0
DWIDTH 9 0
BBX 8 14 0 0
BITMAP
14
08
00
81
81
81
81
81
81
81
81
81
42
3C
ENDCHAR
STARTCHAR 01D4
ENCODING 468
SWIDTH 640 0
DWIDTH 8 0
BBX 7 11 0 0
BITMAP
28
10
00
82
82
82
82
82
82
46
3A
ENDCHAR
STARTCHAR 01D5
ENCODING 469
SWIDTH 720 0
DWIDTH 9 0
BBX 8 15 0 0
BITMAP
3C
00
24
00
81
81
81
81
81
81
81
81
81
42
3C
ENDCHAR
STARTCHAR 01D6
ENCODING 470
SWIDTH 640 0
DWIDTH 8 0
BBX 7 12 0 0
BITMAP
38
00
28
00
82
82
82
82
82
82
46
3A
ENDCHAR
STARTCHAR 01D7
ENCODING 471
SWIDTH 720 0
DWIDTH 9 0
BBX 8 16 0 0
BITMAP
08
10
00
24
00
81
81
81
81
81
81
81
81
81
42
3C
ENDCHAR
STARTCHAR 01D8
ENCODING 472
SWIDTH 640 0
DWIDTH 8 0
BBX 7 13 0 0
BITMAP
08
10
00
28
00
82
82
82
82
82
82
46
3A
ENDCHAR
STARTCHAR 01D9
ENCODING 473
SWIDTH 720 0
DWIDTH 9 0
BBX 8 16 0 0
BITMAP
14
08
00
24
00
81
81
81
81
81
81
81
81
81
42
3C
ENDCHAR
STARTCHAR 01DA
ENCODING 474
SWIDTH 640 0
DWIDTH 8 0
BBX 7 13 0 0
BITMAP
28
10
00
28
00
82
82
82
82
82
82
46
3A
ENDCHAR
STARTCHAR 01DB
ENCODING 475
SWIDTH 720 0
DWIDTH 9 0
BBX 8 16 0 0
BITMAP
10
08
00
24
00
81
81
81
81
81
81
81
81
81
42
3C
ENDCHAR
STARTCHAR 01DC
ENCODING 476
SWIDTH 640 0
DWIDTH 8 0
BBX 7 13 0 0
BITMAP
20
10
00
28
00
82
82
82
82
82
82
46
3A
ENDCHAR
STARTCHAR 01DD
ENCODING 477
SWIDTH 640 0
DWIDTH 8 0
BBX 7 8 0 0
BITMAP
38
44
82
02
FE
82
44
38
ENDCHAR
STARTCHAR 01DE
ENCODING 478
SWIDTH 640 0
DWIDTH 8 0
BBX 7 15 0 0
BITMAP
7C
00
28
00
10
28
28
28
44
44
44
7C
82
82
82
ENDCHAR
STARTCHAR 01DF
ENCODING 479
SWIDTH 560 0
DWIDTH 7 0
BBX 6 12 0 0
BITMAP
7C
00
28
00
78
84
04
3C
44
84
8C
74
ENDCHAR
STARTCHAR 01E0
ENCODING 480
SWIDTH 640 0
DWIDTH 8 0
BBX 7 15 0 0
BITMAP
7C
00
10
00
10
28
28
28
44
44
44
7C
82
82
82
ENDCHAR
STARTCHAR 01E1
ENCODING 481
SWIDTH 560 0
DWIDTH 7 0
BBX 6 12 0 0
BITMAP
7C
00
10
00
78
84
04
3C
44
84
8C
74
ENDCHAR
STARTCHAR 01E2
ENCODING 482
SWIDTH 800 0
DWIDTH 10 0
BBX 9 13 0 0
BITMAP
1F00
0000
1F80
2800
2800
2800
4800
4F80
4800
7800
8800
8800
8F80
ENDCHAR
STARTCHAR 01E3
ENCODING 483
SWIDTH 640 0
DWIDTH 8 0
BBX 7 10 0 0
BITMAP
7C
00
6C
92
12
3E
50
90
92
6C
ENDCHAR
STARTCHAR 01E6
ENCODING 486
SWIDTH 720 0
DWIDTH 9 0
BBX 8 14 0 0
BITMAP
14
08
00
3C
42
81
80
80
8F
81
81
81
42
3C
ENDCHAR
STARTCHAR 01E7
ENCODING 487
SWIDTH 640 0
DWIDTH 8 0
BBX 7 13 0 -2
BITMAP
28
10
00
3A
46
82
82
82
46
3A
82
44
38
ENDCHAR
STARTCHAR 01E8
ENCODING 488
SWIDTH 640 0
DWIDTH 8 0
BBX 7 13 0 0
BITMAP
28
10
82
84
88
90
A0
C0
A0
90
88
84
82
ENDCHAR
STARTCHAR 01E9
ENCODING 489
SWIDTH 560 0
DWIDTH 7 0
BBX 6 13 0 0
BITMAP
50
20
80
80
80
84
88
90
E0
A0
90
88
84
ENDCHAR
STARTCHAR 01F0
ENCODING 496
SWIDTH 400 0
DWIDTH 5 0
BBX 5 13 0 -2
BITMAP
48
30
00
10
10
10
10
10
10
10
10
90
60
ENDCHAR
STARTCHAR 01F1
ENCODING 497
SWIDTH 1120 0
DWIDTH 14 0
BBX 13 11 0 0
BITMAP
F1F8
8810
8410
8420
8420
8440
8440
8480
8480
8900
F1F8
ENDCHAR
STARTCHAR 01F2
ENCODING 498
SWIDTH 1040 0
DWIDTH 13 0
BBX 12 11 0 0
BITMAP
F000
8800
8400
85F0
8420
8420
8440
8440
8480
8880
F1F0
ENDCHAR
STARTCHAR 01F3
ENCODING 499
SWIDTH 1040 0
DWIDTH 13 0
BBX 12 11 0 0
BITMAP
0400
0400
0400
35F0
4C20
8420
8440
8440
8480
4C80
35F0
ENDCHAR
STARTCHAR 01F4
ENCODING 500
SWIDTH 720 0
DWIDTH 9 0
BBX 8 14 0 0
BITMAP
08
10
00
3C
42
81
80
80
8F
81
81
81
42
3C
ENDCHAR
STARTCHAR 01F5
ENCODING 501
SWIDTH 640 0
DWIDTH 8 0
BBX 7 13 0 -2
BITMAP
08
10
00
3A
46
82
82
82
46
3A
82
44
38
ENDCHAR
STARTCHAR 01F8
ENCODING 504
SWIDTH 640 0
DWIDTH 8 0
BBX 7 13 0 0
BITMAP
20
10
82
C2
C2
A2
A2
92
8A
8A
86
86
82
ENDCHAR
STARTCHAR 01F9
ENCODING 505
SWIDTH 560 0
DWIDTH 7 0
BBX 6 11 0 0
BITMAP
20
10
00
B8
C4
84
84
84
84
84
84
ENDCHAR
STARTCHAR 01FA
ENCODING 506
SWIDTH 640 0
DWIDTH 8 0
BBX 7 14 0 0
BITMAP
08
10
28
10
28
28
28
44
44
44
7C
82
82
82
ENDCHAR
STARTCHAR 01FB
ENCODING 507
SWIDTH 560 0
DWIDTH 7 0
BBX 6 13 0 0
BITMAP
08
10
28
10
00
78
84
04
3C
44
84
8C
74
ENDCHAR
STARTCHAR 01FC
ENCODING 508
SWIDTH 800 0
DWIDTH 10 0
BBX 9 14 0 0
BITMAP
0100
0200
0000
1F80
2800
2800
2800
4800
4F80
4800
7800
8800
8800
8F80
ENDCHAR
STARTCHAR 01FD
ENCODING 509
SWIDTH 640 0
DWIDTH 8 0
BBX 7 11 0 0
BITMAP
08
10
00
6C
92
12
3E
50
90
92
6C
ENDCHAR
STARTCHAR 01FE
ENCODING 510
SWIDTH 800 0
DWIDTH 10 0
BBX 9 14 0 0
BITMAP
0400
0800
0000
1C00
2280
4100
4300
4500
4900
5100
6100
4100
A200
1C00
ENDCHAR
STARTCHAR 01FF
ENCODING 511
SWIDTH 640 0
DWIDTH 8 0
BBX 7 11 0 0
BITMAP
08
10
00
3A
44
8A
92
92
A2
44
B8
ENDCHAR
STARTCHAR 0200
ENCODING 512
SWIDTH 640 0
DWIDTH 8 0
BBX 7 14 0 0
BITMAP
50
28
00
10
28
28
28
44
44
44
7C
82
82
82
ENDCHAR
STARTCHAR 0201
ENCODING 513
SWIDTH 560 0
DWIDTH 7 0
BBX 6 11 0 0
BITMAP
50
28
00
78
84
04
3C
44
84
8C
74
ENDCHAR
STARTCHAR 0202
ENCODING 514
SWIDTH 640 0
DWIDTH 8 0
BBX 7 13 0 0
BITMAP
18
24
10
28
28
28
44
44
44
7C
82
82
82
ENDCHAR
STARTCHAR 0203
ENCODING 515
SWIDTH 560 0
DWIDTH 7 0
BBX 6 11 0 0
BITMAP
30
48
00
78
84
04
3C
44
84
8C
74
ENDCHAR
STARTCHAR 0204
ENCODING 516
SWIDTH 560 0
DWIDTH 7 0
BBX 6 14 0 0
BITMAP
50
28
00
FC
80
80
80
80
FC
80
80
80
80
FC
ENDCHAR
STARTCHAR 0205
ENCODING 517
SWIDTH 640 0
DWIDTH 8 0
BBX 7 11 0 0
BITMAP
50
28
00
38
44
82
FE
80
82
44
38
ENDCHAR
STARTCHAR 0206
ENCODING 518
SWIDTH 560 0
DWIDTH 7 0
BBX 6 14 0 0
BITMAP
30
48
00
FC
80
80
80
80
FC
80
80
80
80
FC
ENDCHAR
STARTCHAR 0207
ENCODING 519
SWIDTH 640 0
DWIDTH 8 0
BBX 7 11 0 0
BITMAP
18
24
00
38
44
82
FE
80
82
44
38
ENDCHAR
STARTCHAR 0208
ENCODING 520
SWIDTH 320 0
DWIDTH 4 0
BBX 4 14 -1 0
BITMAP
A0
50
00
70
20
20
20
20
20
20
20
20
20
70
ENDCHAR
STARTCHAR 0209
ENCODING 521
SWIDTH 320 0
DWIDTH 4 0
BBX 4 11 -1 0
BITMAP
A0
50
00
20
20
20
20
20
20
20
20
ENDCHAR
STARTCHAR 020A
ENCODING 522
SWIDTH 320 0
DWIDTH 4 0
BBX 4 14 0 0
BITMAP
60
90
00
E0
40
40
40
40
40
40
40
40
40
E0
ENDCHAR
STARTCHAR 020B
ENCODING 523
SWIDTH 320 0
DWIDTH 4 0
BBX 4 11 0 0
BITMAP
60
90
00
40
40
40
40
40
40
40
40
ENDCHAR
STARTCHAR 020C
ENCODING 524
SWIDTH 720 0
DWIDTH 9 0
BBX 8 14 0 0
BITMAP
28
14
00
3C
42
81
81
81
81
81
81
81
42
3C
ENDCHAR
STARTCHAR 020D
ENCODING 525
SWIDTH 640 0
DWIDTH 8 0
BBX 7 11 0 0
BITMAP
50
28
00
38
44
82
82
82
82
44
38
ENDCHAR
STARTCHAR 020E
ENCODING 526
SWIDTH 720 0
DWIDTH 9 0
BBX 8 14 0 0
BITMAP
18
24
00
3C
42
81
81
81
81
81
81
81
42
3C
ENDCHAR
STARTCHAR 020F
ENCODING 527
SWIDTH 640 0
DWIDTH 8 0
BBX 7 11 0 0
BITMAP
18
24
00
38
44
82
82
82
82
44
38
ENDCHAR
STARTCHAR 0210
ENCODING 528
SWIDTH 640 0
DWIDTH 8 0
BBX 7 14 0 0
BITMAP
50
28
00
F8
84
82
82
82
84
F8
90
88
84
82
ENDCHAR
STARTCHAR 0211
ENCODING 529
SWIDTH 480 0
DWIDTH 6 0
BBX 5 11 0 0
BITMAP
A0
50
00
B0
C8
80
80
80
80
80
80
ENDCHAR
STARTCHAR 0212
ENCODING 530
SWIDTH 640 0
DWIDTH 8 0
BBX 7 14 0 0
BITMAP
30
48
00
F8
84
82
82
82
84
F8
90
88
84
82
ENDCHAR
STARTCHAR 0213
ENCODING 531
SWIDTH 480 0
DWIDTH 6 0
BBX 5 11 0 0
BITMAP
30
48
00
B0
C8
80
80
80
80
80
80
ENDCHAR
STARTCHAR 0214
ENCODING 532
SWIDTH 720 0
DWIDTH 9 0
BBX 8 13 0 0
BITMAP
28
14
81
81
81
81
81
81
81
81
81
42
3C
ENDCHAR
STARTCHAR 0215
ENCODING 533
SWIDTH 640 0
DWIDTH 8 0
BBX 7 10 0 0
BITMAP
50
28
82
82
82
82
82
82
46
3A
ENDCHAR
STARTCHAR 0216
ENCODING 534
SWIDTH 720 0
DWIDTH 9 0
BBX 8 13 0 0
BITMAP
18
24
81
81
81
81
81
81
81
81
81
42
3C
ENDCHAR
STARTCHAR 0217
ENCODING 535
SWIDTH 640 0
DWIDTH 8 0
BBX 7 11 0 0
BITMAP
18
24
00
82
82
82
82
82
82
46
3A
ENDCHAR
STARTCHAR 0218
ENCODING 536
SWIDTH 640 0
DWIDTH 8 0
BBX 7 14 0 -3
BITMAP
38
44
82
80
40
38
04
02
82
44
38
00
10
20
ENDCHAR
STARTCHAR 0219
ENCODING 537
SWIDTH 560 0
DWIDTH 7 0
BBX 6 11 0 -3
BITMAP
78
84
80
60
18
04
84
78
00
10
20
ENDCHAR
STARTCHAR 021A
ENCODING 538
SWIDTH 640 0
DWIDTH 8 0
BBX 7 14 0 -3
BITMAP
FE
10
10
10
10
10
10
10
10
10
10
00
10
20
ENDCHAR
STARTCHAR 021B
ENCODING 539
SWIDTH 480 0
DWIDTH 6 0
BBX 5 13 0 -3
BITMAP
40
40
F8
40
40
40
40
40
48
30
00
10
20
ENDCHAR
STARTCHAR 021E
ENCODING 542
SWIDTH 640 0
DWIDTH 8 0
BBX 7 13 0 0
BITMAP
24
18
82
82
82
82
82
FE
82
82
82
82
82
ENDCHAR
STARTCHAR 021F
ENCODING 543
SWIDTH 560 0
DWIDTH 7 0
BBX 6 13 0 0
BITMAP
48
30
80
80
80
B8
C4
84
84
84
84
84
84
ENDCHAR
STARTCHAR 0220
ENCODING 544
SWIDTH 720 0
DWIDTH 9 0
BBX 8 13 0 -2
BITMAP
BC
C2
81
81
81
81
81
81
81
81
81
01
01
ENDCHAR
STARTCHAR 0226
ENCODING 550
SWIDTH 640 0
DWIDTH 8 0
BBX 7 13 0 0
BITMAP
10
00
10
28
28
28
44
44
44
7C
82
82
82
ENDCHAR
STARTCHAR 0227
ENCODING 551
SWIDTH 560 0
DWIDTH 7 0
BBX 6 10 0 0
BITMAP
10
00
78
84
04
3C
44
84
8C
74
ENDCHAR
STARTCHAR 022A
ENCODING 554
SWIDTH 720 0
DWIDTH 9 0
BBX 8 15 0 0
BITMAP
3C
00
24
00
3C
42
81
81
81
81
81
81
81
42
3C
ENDCHAR
STARTCHAR 022B
ENCODING 555
SWIDTH 640 0
DWIDTH 8 0
BBX 7 12 0 0
BITMAP
7C
00
28
00
38
44
82
82
82
82
44
38
ENDCHAR
STARTCHAR 022C
ENCODING 556
SWIDTH 720 0
DWIDTH 9 0
BBX 8 16 0 0
BITMAP
3C
00
32
4C
00
3C
42
81
81
81
81
81
81
81
42
3C
ENDCHAR
STARTCHAR 022D
ENCODING 557
SWIDTH 640 0
DWIDTH 8 0
BBX 7 13 0 0
BITMAP
3C
00
32
4C
00
38
44
82
82
82
82
44
38
ENDCHAR
STARTCHAR 022E
ENCODING 558
SWIDTH 720 0
DWIDTH 9 0
BBX 8 13 0 0
BITMAP
08
00
3C
42
81
81
81
81
81
81
81
42
3C
ENDCHAR
STARTCHAR 022F
ENCODING 559
SWIDTH 640 0
DWIDTH 8 0
BBX 7 10 0 0
BITMAP
10
00
38
44
82
82
82
82
44
38
ENDCHAR
STARTCHAR 0230
ENCODING 560
SWIDTH 720 0
DWIDTH 9 0
BBX 8 15 0 0
BITMAP
3E
00
08
00
3C
42
81
81
81
81
81
81
81
42
3C
ENDCHAR
STARTCHAR 0231
ENCODING 561
SWIDTH 640 0
DWIDTH 8 0
BBX 7 12 0 0
BITMAP
7C
00
10
00
38
44
82
82
82
82
44
38
ENDCHAR
STARTCHAR 0232
ENCODING 562
SWIDTH 640 0
DWIDTH 8 0
BBX 7 13 0 0
BITMAP
7C
00
82
82
44
44
28
28
10
10
10
10
10
ENDCHAR
STARTCHAR 0233
ENCODING 563
SWIDTH 640 0
DWIDTH 8 0
BBX 7 12 0 -2
BITMAP
7C
00
82
82
44
44
28
28
10
10
20
C0
ENDCHAR
STARTCHAR 0237
ENCODING 567
SWIDTH 400 0
DWIDTH 5 0
BBX 4 10 0 -2
BITMAP
10
10
10
10
10
10
10
10
90
60
ENDCHAR
STARTCHAR 0238
ENCODING 568
SWIDTH 960 0
DWIDTH 12 0
BBX 11 11 0 0
BITMAP
0400
0400
0400
3580
4E40
8420
8420
8420
8420
4E40
3580
ENDCHAR
STARTCHAR 0239
ENCODING 569
SWIDTH 960 0
DWIDTH 12 0
BBX 11 10 0 -2
BITMAP
3580
4E40
8420
8420
8420
8420
4E40
3580
0400
0400
ENDCHAR
STARTCHAR 0245
ENCODING 581
SWIDTH 640 0
DWIDTH 8 0
BBX 7 11 0 0
BITMAP
10
10
28
28
28
44
44
44
82
82
82
ENDCHAR
STARTCHAR 0250
ENCODING 592
SWIDTH 560 0
DWIDTH 7 0
BBX 6 8 0 0
BITMAP
B8
C4
84
88
F0
80
84
78
ENDCHAR
STARTCHAR 0253
ENCODING 595
SWIDTH 640 0
DWIDTH 8 0
BBX 7 11 0 0
BITMAP
60
80
80
B8
C4
82
82
82
82
C4
B8
ENDCHAR
STARTCHAR 0254
ENCODING 596
SWIDTH 640 0
DWIDTH 8 0
BBX 7 8 0 0
BITMAP
38
44
82
02
02
82
44
38
ENDCHAR
STARTCHAR 0255
ENCODING 597
SWIDTH 560 0
DWIDTH 7 0
BBX 6 8 0 0
BITMAP
38
44
80
80
80
B8
44
B8
ENDCHAR
STARTCHAR 0256
ENCODING 598
SWIDTH 640 0
DWIDTH 8 0
BBX 9 13 0 -2
BITMAP
0200
0200
0200
3A00
4600
8200
8200
8200
8200
4600
3A00
0200
0180
ENDCHAR
STARTCHAR 0257
ENCODING 599
SWIDTH 720 0
DWIDTH 9 0
BBX 9 11 0 0
BITMAP
0180
0200
0200
3A00
4600
8200
8200
8200
8200
4600
3A00
ENDCHAR
STARTCHAR 0258
ENCODING 600
SWIDTH 640 0
DWIDTH 8 0
BBX 7 8 0 0
BITMAP
38
44
82
FE
02
82
44
38
ENDCHAR
STARTCHAR 0259
ENCODING 601
SWIDTH 640 0
DWIDTH 8 0
BBX 7 8 0 0
BITMAP
38
44
82
02
FE
82
44
38
ENDCHAR
STARTCHAR 025B
ENCODING 603
SWIDTH 560 0
DWIDTH 7 0
BBX 6 8 0 0
BITMAP
78
84
80
70
80
80
84
78
ENDCHAR
STARTCHAR 025C
ENCODING 604
SWIDTH 560 0
DWIDTH 7 0
BBX 6 8 0 0
BITMAP
78
84
04
38
04
04
84
78
ENDCHAR
STARTCHAR 025E
ENCODING 606
SWIDTH 560 0
DWIDTH 7 0
BBX 6 8 0 0
BITMAP
78
84
84
B8
84
84
84
78
ENDCHAR
STARTCHAR 025F
ENCODING 607
SWIDTH 480 0
DWIDTH 6 0
BBX 5 10 0 -2
BITMAP
20
20
20
20
20
20
20
F8
20
C0
ENDCHAR
STARTCHAR 0260
ENCODING 608
SWIDTH 720 0
DWIDTH 9 0
BBX 9 12 0 -2
BITMAP
0180
0200
3A00
4600
8200
8200
8200
4600
3A00
8200
4400
3800
ENDCHAR
STARTCHAR 0261
ENCODING 609
SWIDTH 640 0
DWIDTH 8 0
BBX 7 10 0 -2
BITMAP
3A
46
82
82
82
46
3A
82
44
38
ENDCHAR
STARTCHAR 0262
ENCODING 610
SWIDTH 640 0
DWIDTH 8 0
BBX 7 8 0 0
BITMAP
38
44
82
80
9E
82
44
38
ENDCHAR
STARTCHAR 0265
ENCODING 613
SWIDTH 560 0
DWIDTH 7 0
BBX 6 10 0 -2
BITMAP
84
84
84
84
84
84
8C
74
04
04
ENDCHAR
STARTCHAR 0266
ENCODING 614
SWIDTH 560 0
DWIDTH 7 0
BBX 6 11 0 0
BITMAP
60
80
80
B8
C4
84
84
84
84
84
84
ENDCHAR
STARTCHAR 0267
ENCODING 615
SWIDTH 560 0
DWIDTH 7 0
BBX 6 13 0 -2
BITMAP
60
80
80
B8
C4
84
84
84
84
84
84
04
18
ENDCHAR
STARTCHAR 0268
ENCODING 616
SWIDTH 320 0
DWIDTH 4 0
BBX 3 10 0 0
BITMAP
40
00
40
40
40
E0
40
40
40
40
ENDCHAR
STARTCHAR 0269
ENCODING 617
SWIDTH 320 0
DWIDTH 4 0
BBX 3 10 1 -2
BITMAP
80
80
80
80
80
80
80
80
80
60
ENDCHAR
STARTCHAR 026A
ENCODING 618
SWIDTH 320 0
DWIDTH 4 0
BBX 3 8 0 0
BITMAP
E0
40
40
40
40
40
40
E0
ENDCHAR
STARTCHAR 026B
ENCODING 619
SWIDTH 480 0
DWIDTH 6 0
BBX 5 11 0 0
BITMAP
20
20
20
20
68
B0
20
20
20
20
20
ENDCHAR
STARTCHAR 026C
ENCODING 620
SWIDTH 480 0
DWIDTH 6 0
BBX 5 11 0 0
BITMAP
20
20
20
20
60
A0
78
20
20
20
20
ENDCHAR
STARTCHAR 026D
ENCODING 621
SWIDTH 320 0
DWIDTH 4 0
BBX 3 13 1 -2
BITMAP
80
80
80
80
80
80
80
80
80
80
80
80
60
ENDCHAR
STARTCHAR 026F
ENCODING 623
SWIDTH 800 0
DWIDTH 10 0
BBX 9 8 0 0
BITMAP
8880
8880
8880
8880
8880
8880
9980
6680
ENDCHAR
STARTCHAR 0270
ENCODING 624
SWIDTH 800 0
DWIDTH 10 0
BBX 9 10 0 -2
BITMAP
8880
8880
8880
8880
8880
8880
9980
6680
0080
0080
ENDCHAR
STARTCHAR 0271
ENCODING 625
SWIDTH 800 0
DWIDTH 10 0
BBX 9 10 0 -2
BITMAP
B300
CC80
8880
8880
8880
8880
8880
8880
0080
0300
ENDCHAR
STARTCHAR 0272
ENCODING 626
SWIDTH 560 0
DWIDTH 7 0
BBX 8 10 -2 -2
BITMAP
2E
31
21
21
21
21
21
21
20
C0
ENDCHAR
STARTCHAR 0273
ENCODING 627
SWIDTH 560 0
DWIDTH 7 0
BBX 8 10 0 -2
BITMAP
B8
C4
84
84
84
84
84
84
04
03
ENDCHAR
STARTCHAR 0274
ENCODING 628
SWIDTH 640 0
DWIDTH 8 0
BBX 7 8 0 0
BITMAP
82
C2
A2
92
92
8A
86
82
ENDCHAR
STARTCHAR 0275
ENCODING 629
SWIDTH 640 0
DWIDTH 8 0
BBX 7 8 0 0
BITMAP
38
44
82
FE
82
82
44
38
ENDCHAR
STARTCHAR 0276
ENCODING 630
SWIDTH 640 0
DWIDTH 8 0
BBX 7 8 0 0
BITMAP
6C
92
92
9E
90
90
92
6C
ENDCHAR
STARTCHAR 0277
ENCODING 631
SWIDTH 800 0
DWIDTH 10 0
BBX 9 8 0 0
BITMAP
3E00
4100
8080
8880
8880
8880
4900
3600
ENDCHAR
STARTCHAR 0279
ENCODING 633
SWIDTH 480 0
DWIDTH 6 0
BBX 5 8 0 0
BITMAP
08
08
08
08
08
08
98
68
ENDCHAR
STARTCHAR 027A
ENCODING 634
SWIDTH 480 0
DWIDTH 6 0
BBX 5 11 0 0
BITMAP
08
08
08
08
08
08
08
08
08
98
68
ENDCHAR
STARTCHAR 027B
ENCODING 635
SWIDTH 480 0
DWIDTH 6 0
BBX 7 10 0 -2
BITMAP
08
08
08
08
08
08
98
68
08
06
ENDCHAR
STARTCHAR 027C
ENCODING 636
SWIDTH 480 0
DWIDTH 6 0
BBX 5 10 0 -2
BITMAP
B0
C8
80
80
80
80
80
80
80
80
ENDCHAR
STARTCHAR 027D
ENCODING 637
SWIDTH 480 0
DWIDTH 6 0
BBX 5 10 0 -2
BITMAP
B0
C8
80
80
80
80
80
80
80
60
ENDCHAR
STARTCHAR 027E
ENCODING 638
SWIDTH 400 0
DWIDTH 5 0
BBX 4 8 0 0
BITMAP
70
80
80
80
80
80
80
80
ENDCHAR
STARTCHAR 027F
ENCODING 639
SWIDTH 400 0
DWIDTH 5 0
BBX 4 10 0 -2
BITMAP
E0
10
10
10
10
10
10
10
10
10
ENDCHAR
STARTCHAR 0280
ENCODING 640
SWIDTH 560 0
DWIDTH 7 0
BBX 6 8 0 0
BITMAP
F8
84
84
84
F8
88
84
84
ENDCHAR
STARTCHAR 0281
ENCODING 641
SWIDTH 560 0
DWIDTH 7 0
BBX 6 8 0 0
BITMAP
84
84
44
7C
84
84
84
7C
ENDCHAR
STARTCHAR 0282
ENCODING 642
SWIDTH 560 0
DWIDTH 7 0
BBX 6 10 0 -2
BITMAP
78
84
80
60
18
04
84
F8
80
60
ENDCHAR
STARTCHAR 0283
ENCODING 643
SWIDTH 480 0
DWIDTH 6 0
BBX 5 13 0 -2
BITMAP
18
20
20
20
20
20
20
20
20
20
20
20
C0
ENDCHAR
STARTCHAR 0284
ENCODING 644
SWIDTH 480 0
DWIDTH 6 0
BBX 5 13 0 -2
BITMAP
18
20
20
20
20
20
F8
20
20
20
20
20
C0
ENDCHAR
STARTCHAR 0285
ENCODING 645
SWIDTH 480 0
DWIDTH 6 0
BBX 5 10 0 -2
BITMAP
C0
20
20
20
20
20
20
20
20
18
ENDCHAR
STARTCHAR 0286
ENCODING 646
SWIDTH 560 0
DWIDTH 7 0
BBX 6 13 0 -2
BITMAP
0C
10
10
10
10
10
10
10
10
10
7C
90
60
ENDCHAR
STARTCHAR 0287
ENCODING 647
SWIDTH 480 0
DWIDTH 6 0
BBX 5 10 0 -2
BITMAP
60
90
10
10
10
10
10
F8
10
10
ENDCHAR
STARTCHAR 0288
ENCODING 648
SWIDTH 480 0
DWIDTH 6 0
BBX 5 12 0 -2
BITMAP
40
40
F8
40
40
40
40
40
40
40
48
30
ENDCHAR
STARTCHAR 028C
ENCODING 652
SWIDTH 640 0
DWIDTH 8 0
BBX 7 8 0 0
BITMAP
10
10
28
28
44
44
82
82
ENDCHAR
STARTCHAR 028D
ENCODING 653
SWIDTH 800 0
DWIDTH 10 0
BBX 9 8 0 0
BITMAP
2200
2200
5500
5500
5500
8880
8880
8880
ENDCHAR
STARTCHAR 028E
ENCODING 654
SWIDTH 640 0
DWIDTH 8 0
BBX 7 11 0 0
BITMAP
06
08
08
10
10
28
28
44
44
82
82
ENDCHAR
STARTCHAR 028F
ENCODING 655
SWIDTH 640 0
DWIDTH 8 0
BBX 7 8 0 0
BITMAP
82
44
44
28
10
10
10
10
ENDCHAR
STARTCHAR 0299
ENCODING 665
SWIDTH 560 0
DWIDTH 7 0
BBX 6 8 0 0
BITMAP
F8
84
84
F8
84
84
84
F8
ENDCHAR
STARTCHAR 029A
ENCODING 666
SWIDTH 560 0
DWIDTH 7 0
BBX 6 8 0 0
BITMAP
78
84
84
74
84
84
84
78
ENDCHAR
STARTCHAR 029C
ENCODING 668
SWIDTH 560 0
DWIDTH 7 0
BBX 6 8 0 0
BITMAP
84
84
84
FC
84
84
84
84
ENDCHAR
STARTCHAR 029D
ENCODING 669
SWIDTH 400 0
DWIDTH 5 0
BBX 5 12 0 -2
BITMAP
10
00
10
10
10
10
10
10
10
78
90
60
ENDCHAR
STARTCHAR 029E
ENCODING 670
SWIDTH 560 0
DWIDTH 7 0
BBX 6 10 0 -2
BITMAP
84
44
24
14
1C
24
44
84
04
04
ENDCHAR
STARTCHAR 029F
ENCODING 671
SWIDTH 480 0
DWIDTH 6 0
BBX 5 8 0 0
BITMAP
80
80
80
80
80
80
80
F8
ENDCHAR
STARTCHAR 02AE
ENCODING 686
SWIDTH 720 0
DWIDTH 9 0
BBX 8 10 0 -2
BITMAP
C1
21
21
21
21
21
23
1D
01
01
ENDCHAR
STARTCHAR 02AF
ENCODING 687
SWIDTH 720 0
DWIDTH 9 0
BBX 10 10 0 -2
BITMAP
C100
2100
2100
2100
2100
2100
2300
1D00
0100
00C0
ENDCHAR
STARTCHAR 037E
ENCODING 894
SWIDTH 320 0
DWIDTH 4 0
BBX 2 6 0 2
BITMAP
40
40
00
00
40
80
ENDCHAR
STARTCHAR 037F
ENCODING 895
SWIDTH 560 0
DWIDTH 7 0
BBX 6 11 0 0
BITMAP
04
04
04
04
04
04
04
04
84
48
30
ENDCHAR
STARTCHAR 0384
ENCODING 900
SWIDTH 240 0
DWIDTH 3 0
BBX 2 2 0 9
BITMAP
40
80
ENDCHAR
STARTCHAR 0385
ENCODING 901
SWIDTH 560 0
DWIDTH 7 0
BBX 6 2 0 9
BITMAP
10
A4
ENDCHAR
STARTCHAR 0386
ENCODING 902
SWIDTH 720 0
DWIDTH 9 0
BBX 8 11 0 0
BITMAP
48
94
14
14
22
22
22
3E
41
41
41
ENDCHAR
STARTCHAR 0387
ENCODING 903
SWIDTH 320 0
DWIDTH 4 0
BBX 1 1 1 5
BITMAP
80
ENDCHAR
STARTCHAR 0388
ENCODING 904
SWIDTH 800 0
DWIDTH 10 0
BBX 9 11 0 0
BITMAP
5F80
9000
1000
1000
1000
1F80
1000
1000
1000
1000
1F80
ENDCHAR
STARTCHAR 0389
ENCODING 905
SWIDTH 880 0
DWIDTH 11 0
BBX 10 11 0 0
BITMAP
5040
9040
1040
1040
1040
1FC0
1040
1040
1040
1040
1040
ENDCHAR
STARTCHAR 038A
ENCODING 906
SWIDTH 560 0
DWIDTH 7 0
BBX 6 11 0 0
BITMAP
5C
88
08
08
08
08
08
08
08
08
1C
ENDCHAR
STARTCHAR 038C
ENCODING 908
SWIDTH 880 0
DWIDTH 11 0
BBX 10 11 0 0
BITMAP
4F00
9080
2040
2040
2040
2040
2040
2040
2040
1080
0F00
ENDCHAR
STARTCHAR 038E
ENCODING 910
SWIDTH 880 0
DWIDTH 11 0
BBX 10 11 0 0
BITMAP
5040
9040
0880
0880
0500
0500
0200
0200
0200
0200
0200
ENDCHAR
STARTCHAR 038F
ENCODING 911
SWIDTH 880 0
DWIDTH 11 0
BBX 10 11 0 0
BITMAP
4F00
9080
2040
2040
2040
2040
2040
1080
0900
0900
39C0
ENDCHAR
STARTCHAR 0390
ENCODING 912
SWIDTH 560 0
DWIDTH 7 0
BBX 6 11 0 0
BITMAP
10
A4
00
20
20
20
20
20
20
20
18
ENDCHAR
STARTCHAR 0391
ENCODING 913
SWIDTH 640 0
DWIDTH 8 0
BBX 7 11 0 0
BITMAP
10
28
28
28
44
44
44
7C
82
82
82
ENDCHAR
STARTCHAR 0392
ENCODING 914
SWIDTH 640 0
DWIDTH 8 0
BBX 7 11 0 0
BITMAP
F8
84
82
82
84
F8
84
82
82
84
F8
ENDCHAR
STARTCHAR 0393
ENCODING 915
SWIDTH 560 0
DWIDTH 7 0
BBX 6 11 0 0
BITMAP
FC
80
80
80
80
80
80
80
80
80
80
ENDCHAR
STARTCHAR 0394
ENCODING 916
SWIDTH 640 0
DWIDTH 8 0
BBX 7 11 0 0
BITMAP
10
28
28
28
44
44
44
44
82
82
FE
ENDCHAR
STARTCHAR 0395
ENCODING 917
SWIDTH 560 0
DWIDTH 7 0
BBX 6 11 0 0
BITMAP
FC
80
80
80
80
FC
80
80
80
80
FC
ENDCHAR
STARTCHAR 0396
ENCODING 918
SWIDTH 560 0
DWIDTH 7 0
BBX 6 11 0 0
BITMAP
FC
08
08
10
10
20
20
40
40
80
FC
ENDCHAR
STARTCHAR 0397
ENCODING 919
SWIDTH 640 0
DWIDTH 8 0
BBX 7 11 0 0
BITMAP
82
82
82
82
82
FE
82
82
82
82
82
ENDCHAR
STARTCHAR 0398
ENCODING 920
SWIDTH 720 0
DWIDTH 9 0
BBX 8 11 0 0
BITMAP
3C
42
81
81
81
BD
81
81
81
42
3C
ENDCHAR
STARTCHAR 0399
ENCODING 921
SWIDTH 320 0
DWIDTH 4 0
BBX 3 11 0 0
BITMAP
E0
40
40
40
40
40
40
40
40
40
E0
ENDCHAR
STARTCHAR 039A
ENCODING 922
SWIDTH 640 0
DWIDTH 8 0
BBX 7 11 0 0
BITMAP
82
84
88
90
A0
C0
A0
90
88
84
82
ENDCHAR
STARTCHAR 039B
ENCODING 923
SWIDTH 640 0
DWIDTH 8 0
BBX 7 11 0 0
BITMAP
10
28
28
28
44
44
44
44
82
82
82
ENDCHAR
STARTCHAR 039C
ENCODING 924
SWIDTH 800 0
DWIDTH 10 0
BBX 9 11 0 0
BITMAP
8080
C180
C180
A280
A280
A280
9480
9480
9480
8880
8880
ENDCHAR
STARTCHAR 039D
ENCODING 925
SWIDTH 640 0
DWIDTH 8 0
BBX 7 11 0 0
BITMAP
82
C2
C2
A2
A2
92
8A
8A
86
86
82
ENDCHAR
STARTCHAR 039E
ENCODING 926
SWIDTH 720 0
DWIDTH 9 0
BBX 8 11 0 0
BITMAP
FF
00
00
00
00
7E
00
00
00
00
FF
ENDCHAR
STARTCHAR 039F
ENCODING 927
SWIDTH 720 0
DWIDTH 9 0
BBX 8 11 0 0
BITMAP
3C
42
81
81
81
81
81
81
81
42
3C
ENDCHAR
STARTCHAR 03A0
ENCODING 928
SWIDTH 640 0
DWIDTH 8 0
BBX 7 11 0 0
BITMAP
FE
82
82
82
82
82
82
82
82
82
82
ENDCHAR
STARTCHAR 03A1
ENCODING 929
SWIDTH 640 0
DWIDTH 8 0
BBX 7 11 0 0
BITMAP
F8
84
82
82
82
84
F8
80
80
80
80
ENDCHAR
STARTCHAR 03A3
ENCODING 931
SWIDTH 640 0
DWIDTH 8 0
BBX 7 11 0 0
BITMAP
FE
80
40
20
10
08
10
20
40
80
FE
ENDCHAR
STARTCHAR 03A4
ENCODING 932
SWIDTH 640 0
DWIDTH 8 0
BBX 7 11 0 0
BITMAP
FE
10
10
10
10
10
10
10
10
10
10
ENDCHAR
STARTCHAR 03A5
ENCODING 933
SWIDTH 640 0
DWIDTH 8 0
BBX 7 11 0 0
BITMAP
82
82
44
44
28
28
10
10
10
10
10
ENDCHAR
STARTCHAR 03A6
ENCODING 934
SWIDTH 800 0
DWIDTH 10 0
BBX 9 11 0 0
BITMAP
0800
3E00
4900
8880
8880
8880
8880
8880
4900
3E00
0800
ENDCHAR
STARTCHAR 03A7
ENCODING 935
SWIDTH 640 0
DWIDTH 8 0
BBX 7 11 0 0
BITMAP
82
44
44
28
28
10
28
28
44
44
82
ENDCHAR
STARTCHAR 03A8
ENCODING 936
SWIDTH 640 0
DWIDTH 8 0
BBX 7 11 0 0
BITMAP
92
92
92
92
92
92
7C
10
10
10
10
ENDCHAR
STARTCHAR 03A9
ENCODING 937
SWIDTH 720 0
DWIDTH 9 0
BBX 8 11 0 0
BITMAP
3C
42
81
81
81
81
81
42
24
24
E7
ENDCHAR
STARTCHAR 03AA
ENCODING 938
SWIDTH 320 0
DWIDTH 4 0
BBX 3 13 0 0
BITMAP
A0
00
E0
40
40
40
40
40
40
40
40
40
E0
ENDCHAR
STARTCHAR 03AB
ENCODING 939
SWIDTH 640 0
DWIDTH 8 0
BBX 7 13 0 0
BITMAP
28
00
82
82
44
44
28
28
10
10
10
10
10
ENDCHAR
STARTCHAR 03AC
ENCODING 940
SWIDTH 720 0
DWIDTH 9 0
BBX 8 11 0 0
BITMAP
08
10
00
39
45
82
82
82
82
46
39
ENDCHAR
STARTCHAR 03AD
ENCODING 941
SWIDTH 560 0
DWIDTH 7 0
BBX 6 11 0 0
BITMAP
10
20
00
78
84
80
70
80
80
84
78
ENDCHAR
STARTCHAR 03AE
ENCODING 942
SWIDTH 560 0
DWIDTH 7 0
BBX 6 13 0 -2
BITMAP
10
20
00
B8
C4
84
84
84
84
84
84
04
04
ENDCHAR
STARTCHAR 03AF
ENCODING 943
SWIDTH 320 0
DWIDTH 4 0
BBX 3 11 0 0
BITMAP
40
80
00
80
80
80
80
80
80
80
60
ENDCHAR
STARTCHAR 03B0
ENCODING 944
SWIDTH 720 0
DWIDTH 9 0
BBX 8 11 0 0
BITMAP
04
29
00
C1
21
21
21
21
21
12
0C
ENDCHAR
STARTCHAR 03B1
ENCODING 945
SWIDTH 720 0
DWIDTH 9 0
BBX 8 8 0 0
BITMAP
39
45
82
82
82
82
46
39
ENDCHAR
STARTCHAR 03B2
ENCODING 946
SWIDTH 640 0
DWIDTH 8 0
BBX 7 13 0 -2
BITMAP
38
44
82
82
84
B8
84
82
82
84
B8
80
80
ENDCHAR
STARTCHAR 03B3
ENCODING 947
SWIDTH 640 0
DWIDTH 8 0
BBX 7 10 0 -2
BITMAP
82
82
44
44
28
28
10
10
10
10
ENDCHAR
STARTCHAR 03B4
ENCODING 948
SWIDTH 640 0
DWIDTH 8 0
BBX 7 11 0 0
BITMAP
38
44
40
38
44
82
82
82
82
44
38
ENDCHAR
STARTCHAR 03B5
ENCODING 949
SWIDTH 560 0
DWIDTH 7 0
BBX 6 8 0 0
BITMAP
78
84
80
70
80
80
84
78
ENDCHAR
STARTCHAR 03B6
ENCODING 950
SWIDTH 560 0
DWIDTH 7 0
BBX 6 10 0 -2
BITMAP
F8
08
10
20
40
80
80
78
04
08
ENDCHAR
STARTCHAR 03B7
ENCODING 951
SWIDTH 560 0
DWIDTH 7 0
BBX 6 10 0 -2
BITMAP
B8
C4
84
84
84
84
84
84
04
04
ENDCHAR
STARTCHAR 03B8
ENCODING 952
SWIDTH 640 0
DWIDTH 8 0
BBX 7 11 0 0
BITMAP
38
44
82
82
82
FE
82
82
82
44
38
ENDCHAR
STARTCHAR 03B9
ENCODING 953
SWIDTH 320 0
DWIDTH 4 0
BBX 3 8 0 0
BITMAP
80
80
80
80
80
80
80
60
ENDCHAR
STARTCHAR 03BA
ENCODING 954
SWIDTH 560 0
DWIDTH 7 0
BBX 6 8 0 0
BITMAP
84
88
90
E0
A0
90
88
84
ENDCHAR
STARTCHAR 03BB
ENCODING 955
SWIDTH 720 0
DWIDTH 9 0
BBX 8 11 0 0
BITMAP
60
10
10
10
28
28
28
44
44
84
83
ENDCHAR
STARTCHAR 03BC
ENCODING 956
SWIDTH 560 0
DWIDTH 7 0
BBX 6 10 0 -2
BITMAP
84
84
84
84
84
84
CC
B4
80
80
ENDCHAR
STARTCHAR 03BD
ENCODING 957
SWIDTH 720 0
DWIDTH 9 0
BBX 8 8 0 0
BITMAP
C1
21
21
22
12
14
14
08
ENDCHAR
STARTCHAR 03BE
ENCODING 958
SWIDTH 560 0
DWIDTH 7 0
BBX 6 10 0 -2
BITMAP
78
84
80
70
80
80
80
78
04
08
ENDCHAR
STARTCHAR 03BF
ENCODING 959
SWIDTH 640 0
DWIDTH 8 0
BBX 7 8 0 0
BITMAP
38
44
82
82
82
82
44
38
ENDCHAR
STARTCHAR 03C0
ENCODING 960
SWIDTH 720 0
DWIDTH 9 0
BBX 8 8 0 0
BITMAP
7F
A4
24
24
24
24
24
23
ENDCHAR
STARTCHAR 03C1
ENCODING 961
SWIDTH 640 0
DWIDTH 8 0
BBX 7 10 0 -2
BITMAP
38
44
82
82
82
82
C4
B8
80
80
ENDCHAR
STARTCHAR 03C2
ENCODING 962
SWIDTH 640 0
DWIDTH 8 0
BBX 7 10 0 -2
BITMAP
38
44
82
80
80
80
40
3C
02
04
ENDCHAR
STARTCHAR 03C3
ENCODING 963
SWIDTH 640 0
DWIDTH 8 0
BBX 7 8 0 0
BITMAP
3E
44
82
82
82
82
44
38
ENDCHAR
STARTCHAR 03C4
ENCODING 964
SWIDTH 640 0
DWIDTH 8 0
BBX 7 8 0 0
BITMAP
7E
90
10
10
10
10
10
0C
ENDCHAR
STARTCHAR 03C5
ENCODING 965
SWIDTH 720 0
DWIDTH 9 0
BBX 8 8 0 0
BITMAP
C1
21
21
21
21
21
12
0C
ENDCHAR
STARTCHAR 03C6
ENCODING 966
SWIDTH 800 0
DWIDTH 10 0
BBX 9 10 0 -2
BITMAP
2600
4900
8880
8880
8880
8880
4900
3E00
0800
0800
ENDCHAR
STARTCHAR 03C7
ENCODING 967
SWIDTH 640 0
DWIDTH 8 0
BBX 7 8 0 0
BITMAP
C2
24
28
10
10
28
48
86
ENDCHAR
STARTCHAR 03C8
ENCODING 968
SWIDTH 640 0
DWIDTH 8 0
BBX 7 10 0 -2
BITMAP
92
92
92
92
92
92
92
7C
10
10
ENDCHAR
STARTCHAR 03C9
ENCODING 969
SWIDTH 800 0
DWIDTH 10 0
BBX 9 8 0 0
BITMAP
2200
4100
8080
8880
8880
8880
4900
3600
ENDCHAR
STARTCHAR 03CA
ENCODING 970
SWIDTH 400 0
DWIDTH 5 0
BBX 4 10 0 0
BITMAP
A0
00
40
40
40
40
40
40
40
30
ENDCHAR
STARTCHAR 03CB
ENCODING 971
SWIDTH 720 0
DWIDTH 9 0
BBX 8 10 0 0
BITMAP
14
00
C1
21
21
21
21
21
12
0C
ENDCHAR
STARTCHAR 03CC
ENCODING 972
SWIDTH 640 0
DWIDTH 8 0
BBX 7 11 0 0
BITMAP
08
10
00
38
44
82
82
82
82
44
38
ENDCHAR
STARTCHAR 03CD
ENCODING 973
SWIDTH 720 0
DWIDTH 9 0
BBX 8 11 0 0
BITMAP
04
08
00
C1
21
21
21
21
21
12
0C
ENDCHAR
STARTCHAR 03CE
ENCODING 974
SWIDTH 800 0
DWIDTH 10 0
BBX 9 11 0 0
BITMAP
0400
0800
0000
2200
4100
8080
8880
8880
8880
4900
3600
ENDCHAR
STARTCHAR 0400
ENCODING 1024
SWIDTH 560 0
DWIDTH 7 0
BBX 6 14 0 0
BITMAP
20
10
00
FC
80
80
80
80
FC
80
80
80
80
FC
ENDCHAR
STARTCHAR 0401
ENCODING 1025
SWIDTH 560 0
DWIDTH 7 0
BBX 6 13 0 0
BITMAP
28
00
FC
80
80
80
80
FC
80
80
80
80
FC
ENDCHAR
STARTCHAR 0402
ENCODING 1026
SWIDTH 800 0
DWIDTH 10 0
BBX 9 11 0 0
BITMAP
FE00
1000
1000
1000
1700
1880
1080
1080
1080
1080
1300
ENDCHAR
STARTCHAR 0403
ENCODING 1027
SWIDTH 560 0
DWIDTH 7 0
BBX 6 14 0 0
BITMAP
10
20
00
FC
80
80
80
80
80
80
80
80
80
80
ENDCHAR
STARTCHAR 0404
ENCODING 1028
SWIDTH 720 0
DWIDTH 9 0
BBX 8 11 0 0
BITMAP
3C
42
81
80
80
F8
80
80
81
42
3C
ENDCHAR
STARTCHAR 0405
ENCODING 1029
SWIDTH 640 0
DWIDTH 8 0
BBX 7 11 0 0
BITMAP
38
44
82
80
40
38
04
02
82
44
38
ENDCHAR
STARTCHAR 0406
ENCODING 1030
SWIDTH 320 0
DWIDTH 4 0
BBX 3 11 0 0
BITMAP
E0
40
40
40
40
40
40
40
40
40
E0
ENDCHAR
STARTCHAR 0407
ENCODING 1031
SWIDTH 320 0
DWIDTH 4 0
BBX 3 13 0 0
BITMAP
A0
00
E0
40
40
40
40
40
40
40
40
40
E0
ENDCHAR
STARTCHAR 0408
ENCODING 1032
SWIDTH 560 0
DWIDTH 7 0
BBX 6 11 0 0
BITMAP
04
04
04
04
04
04
04
04
84
48
30
ENDCHAR
STARTCHAR 0409
ENCODING 1033
SWIDTH 1280 0
DWIDTH 16 0
BBX 15 11 0 0
BITMAP
3F00
2100
2100
2100
21F8
2104
2102
2102
2102
2104
C1F8
ENDCHAR
STARTCHAR 040A
ENCODING 1034
SWIDTH 1200 0
DWIDTH 15 0
BBX 14 11 0 0
BITMAP
8200
8200
8200
8200
FFE0
8210
8204
8204
8204
8210
83E0
ENDCHAR
STARTCHAR 040B
ENCODING 1035
SWIDTH 800 0
DWIDTH 10 0
BBX 9 11 0 0
BITMAP
FE00
1000
1000
1000
1700
1880
1080
1080
1080
1080
1080
ENDCHAR
STARTCHAR 040C
ENCODING 1036
SWIDTH 640 0
DWIDTH 8 0
BBX 7 14 0 0
BITMAP
08
10
00
82
84
88
90
A0
C0
A0
90
88
84
82
ENDCHAR
STARTCHAR 040D
ENCODING 1037
SWIDTH 640 0
DWIDTH 8 0
BBX 7 14 0 0
BITMAP
20
10
00
82
86
86
8A
8A
92
A2
A2
C2
C2
82
ENDCHAR
STARTCHAR 040E
ENCODING 1038
SWIDTH 640 0
DWIDTH 8 0
BBX 7 14 0 0
BITMAP
24
18
00
82
82
44
44
28
28
10
10
10
20
C0
ENDCHAR
STARTCHAR 040F
ENCODING 1039
SWIDTH 640 0
DWIDTH 8 0
BBX 7 13 0 -2
BITMAP
82
82
82
82
82
82
82
82
82
82
FE
10
10
ENDCHAR
STARTCHAR 0410
ENCODING 1040
SWIDTH 640 0
DWIDTH 8 0
BBX 7 11 0 0
BITMAP
10
28
28
28
44
44
44
7C
82
82
82
ENDCHAR
STARTCHAR 0411
ENCODING 1041
SWIDTH 640 0
DWIDTH 8 0
BBX 7 11 0 0
BITMAP
FC
80
80
80
80
F8
84
82
82
84
F8
ENDCHAR
STARTCHAR 0412
ENCODING 1042
SWIDTH 640 0
DWIDTH 8 0
BBX 7 11 0 0
BITMAP
F8
84
82
82
84
F8
84
82
82
84
F8
ENDCHAR
STARTCHAR 0413
ENCODING 1043
SWIDTH 560 0
DWIDTH 7 0
BBX 6 11 0 0
BITMAP
FC
80
80
80
80
80
80
80
80
80
80
ENDCHAR
STARTCHAR 0414
ENCODING 1044
SWIDTH 800 0
DWIDTH 10 0
BBX 9 12 0 -1
BITMAP
1F00
1100
1100
1100
1100
1100
2100
2100
4100
FF80
8080
8080
ENDCHAR
STARTCHAR 0415
ENCODING 1045
SWIDTH 560 0
DWIDTH 7 0
BBX 6 11 0 0
BITMAP
FC
80
80
80
80
FC
80
80
80
80
FC
ENDCHAR
STARTCHAR 0416
ENCODING 1046
SWIDTH 960 0
DWIDTH 12 0
BBX 11 11 0 0
BITMAP
8420
4440
4440
2480
1500
0E00
1500
2480
4440
4440
8420
ENDCHAR
STARTCHAR 0417
ENCODING 1047
SWIDTH 720 0
DWIDTH 9 0
BBX 8 11 0 0
BITMAP
3C
42
81
01
02
1C
02
01
81
42
3C
ENDCHAR
STARTCHAR 0418
ENCODING 1048
SWIDTH 640 0
DWIDTH 8 0
BBX 7 11 0 0
BITMAP
82
86
86
8A
8A
92
A2
A2
C2
C2
82
ENDCHAR
STARTCHAR 0419
ENCODING 1049
SWIDTH 640 0
DWIDTH 8 0
BBX 7 14 0 0
BITMAP
28
10
00
82
86
86
8A
8A
92
A2
A2
C2
C2
82
ENDCHAR
STARTCHAR 041A
ENCODING 1050
SWIDTH 640 0
DWIDTH 8 0
BBX 7 11 0 0
BITMAP
82
84
88
90
A0
C0
A0
90
88
84
82
ENDCHAR
STARTCHAR 041B
ENCODING 1051
SWIDTH 720 0
DWIDTH 9 0
BBX 8 11 0 0
BITMAP
3F
21
21
21
21
21
21
21
21
21
C1
ENDCHAR
STARTCHAR 041C
ENCODING 1052
SWIDTH 800 0
DWIDTH 10 0
BBX 9 11 0 0
BITMAP
8080
C180
C180
A280
A280
A280
9480
9480
9480
8880
8880
ENDCHAR
STARTCHAR 041D
ENCODING 1053
SWIDTH 640 0
DWIDTH 8 0
BBX 7 11 0 0
BITMAP
82
82
82
82
82
FE
82
82
82
82
82
ENDCHAR
STARTCHAR 041E
ENCODING 1054
SWIDTH 720 0
DWIDTH 9 0
BBX 8 11 0 0
BITMAP
3C
42
81
81
81
81
81
81
81
42
3C
ENDCHAR
STARTCHAR 041F
ENCODING 1055
SWIDTH 640 0
DWIDTH 8 0
BBX 7 11 0 0
BITMAP
FE
82
82
82
82
82
82
82
82
82
82
ENDCHAR
STARTCHAR 0420
ENCODING 1056
SWIDTH 640 0
DWIDTH 8 0
BBX 7 11 0 0
BITMAP
F8
84
82
82
82
84
F8
80
80
80
80
ENDCHAR
STARTCHAR 0421
ENCODING 1057
SWIDTH 720 0
DWIDTH 9 0
BBX 8 11 0 0
BITMAP
3C
42
81
80
80
80
80
80
81
42
3C
ENDCHAR
STARTCHAR 0422
ENCODING 1058
SWIDTH 640 0
DWIDTH 8 0
BBX 7 11 0 0
BITMAP
FE
10
10
10
10
10
10
10
10
10
10
ENDCHAR
STARTCHAR 0423
ENCODING 1059
SWIDTH 640 0
DWIDTH 8 0
BBX 7 11 0 0
BITMAP
82
82
44
44
28
28
10
10
10
20
C0
ENDCHAR
STARTCHAR 0424
ENCODING 1060
SWIDTH 800 0
DWIDTH 10 0
BBX 9 11 0 0
BITMAP
0800
3E00
4900
8880
8880
8880
8880
8880
4900
3E00
0800
ENDCHAR
STARTCHAR 0425
ENCODING 1061
SWIDTH 640 0
DWIDTH 8 0
BBX 7 11 0 0
BITMAP
82
44
44
28
28
10
28
28
44
44
82
ENDCHAR
STARTCHAR 0426
ENCODING 1062
SWIDTH 640 0
DWIDTH 8 0
BBX 7 12 0 -1
BITMAP
84
84
84
84
84
84
84
84
84
84
FE
02
ENDCHAR
STARTCHAR 0427
ENCODING 1063
SWIDTH 640 0
DWIDTH 8 0
BBX 7 11 0 0
BITMAP
82
82
82
82
82
46
3A
02
02
02
02
ENDCHAR
STARTCHAR 0428
ENCODING 1064
SWIDTH 800 0
DWIDTH 10 0
BBX 9 11 0 0
BITMAP
8880
8880
8880
8880
8880
8880
8880
8880
8880
8880
FF80
ENDCHAR
STARTCHAR 0429
ENCODING 1065
SWIDTH 880 0
DWIDTH 11 0
BBX 10 12 0 -1
BITMAP
8880
8880
8880
8880
8880
8880
8880
8880
8880
8880
FFC0
0040
ENDCHAR
STARTCHAR 042A
ENCODING 1066
SWIDTH 800 0
DWIDTH 10 0
BBX 9 11 0 0
BITMAP
E000
2000
2000
2000
3E00
2100
2080
2080
2080
2100
3E00
ENDCHAR
STARTCHAR 042B
ENCODING 1067
SWIDTH 800 0
DWIDTH 10 0
BBX 9 11 0 0
BITMAP
8080
8080
8080
8080
F880
8480
8280
8280
8280
8480
F880
ENDCHAR
STARTCHAR 042C
ENCODING 1068
SWIDTH 640 0
DWIDTH 8 0
BBX 7 11 0 0
BITMAP
80
80
80
80
F8
84
82
82
82
84
F8
ENDCHAR
STARTCHAR 042D
ENCODING 1069
SWIDTH 720 0
DWIDTH 9 0
BBX 8 11 0 0
BITMAP
3C
42
81
01
01
1F
01
01
81
42
3C
ENDCHAR
STARTCHAR 042E
ENCODING 1070
SWIDTH 880 0
DWIDTH 11 0
BBX 10 11 0 0
BITMAP
8700
8880
9040
9040
9040
F040
9040
9040
9040
8880
8700
ENDCHAR
STARTCHAR 042F
ENCODING 1071
SWIDTH 640 0
DWIDTH 8 0
BBX 7 11 0 0
BITMAP
3E
42
82
82
82
42
3E
12
22
42
82
ENDCHAR
STARTCHAR 0430
ENCODING 1072
SWIDTH 560 0
DWIDTH 7 0
BBX 6 8 0 0
BITMAP
78
84
04
3C
44
84
8C
74
ENDCHAR
STARTCHAR 0431
ENCODING 1073
SWIDTH 640 0
DWIDTH 8 0
BBX 7 11 0 0
BITMAP
04
38
40
B8
C4
82
82
82
82
44
38
ENDCHAR
STARTCHAR 0432
ENCODING 1074
SWIDTH 560 0
DWIDTH 7 0
BBX 6 8 0 0
BITMAP
F8
84
84
F8
84
84
84
F8
ENDCHAR
STARTCHAR 0433
ENCODING 1075
SWIDTH 480 0
DWIDTH 6 0
BBX 5 8 0 0
BITMAP
F8
80
80
80
80
80
80
80
ENDCHAR
STARTCHAR 0434
ENCODING 1076
SWIDTH 720 0
DWIDTH 9 0
BBX 8 10 0 -2
BITMAP
1E
12
12
12
22
22
42
FF
81
81
ENDCHAR
STARTCHAR 0435
ENCODING 1077
SWIDTH 640 0
DWIDTH 8 0
BBX 7 8 0 0
BITMAP
38
44
82
FE
80
82
44
38
ENDCHAR
STARTCHAR 0436
ENCODING 1078
SWIDTH 800 0
DWIDTH 10 0
BBX 9 8 0 0
BITMAP
8880
4900
4900
2A00
1C00
2A00
4900
8880
ENDCHAR
STARTCHAR 0437
ENCODING 1079
SWIDTH 560 0
DWIDTH 7 0
BBX 6 8 0 0
BITMAP
78
84
04
38
04
04
84
78
ENDCHAR
STARTCHAR 0438
ENCODING 1080
SWIDTH 640 0
DWIDTH 8 0
BBX 7 8 0 0
BITMAP
82
86
8A
92
92
A2
C2
82
ENDCHAR
STARTCHAR 0439
ENCODING 1081
SWIDTH 640 0
DWIDTH 8 0
BBX 7 10 0 0
BITMAP
28
10
82
86
8A
92
92
A2
C2
82
ENDCHAR
STARTCHAR 043A
ENCODING 1082
SWIDTH 560 0
DWIDTH 7 0
BBX 6 8 0 0
BITMAP
84
88
90
E0
A0
90
88
84
ENDCHAR
STARTCHAR 043B
ENCODING 1083
SWIDTH 640 0
DWIDTH 8 0
BBX 7 8 0 0
BITMAP
3E
22
22
22
22
22
22
C2
ENDCHAR
STARTCHAR 043C
ENCODING 1084
SWIDTH 640 0
DWIDTH 8 0
BBX 7 8 0 0
BITMAP
82
C6
C6
AA
AA
AA
92
92
ENDCHAR
STARTCHAR 043D
ENCODING 1085
SWIDTH 560 0
DWIDTH 7 0
BBX 6 8 0 0
BITMAP
84
84
84
FC
84
84
84
84
ENDCHAR
STARTCHAR 043E
ENCODING 1086
SWIDTH 640 0
DWIDTH 8 0
BBX 7 8 0 0
BITMAP
38
44
82
82
82
82
44
38
ENDCHAR
STARTCHAR 043F
ENCODING 1087
SWIDTH 560 0
DWIDTH 7 0
BBX 6 8 0 0
BITMAP
FC
84
84
84
84
84
84
84
ENDCHAR
STARTCHAR 0440
ENCODING 1088
SWIDTH 640 0
DWIDTH 8 0
BBX 7 10 0 -2
BITMAP
B8
C4
82
82
82
82
C4
B8
80
80
ENDCHAR
STARTCHAR 0441
ENCODING 1089
SWIDTH 640 0
DWIDTH 8 0
BBX 7 8 0 0
BITMAP
38
44
82
80
80
82
44
38
ENDCHAR
STARTCHAR 0442
ENCODING 1090
SWIDTH 640 0
DWIDTH 8 0
BBX 7 8 0 0
BITMAP
FE
10
10
10
10
10
10
10
ENDCHAR
STARTCHAR 0443
ENCODING 1091
SWIDTH 640 0
DWIDTH 8 0
BBX 7 10 0 -2
BITMAP
82
82
44
44
28
28
10
10
20
C0
ENDCHAR
STARTCHAR 0444
ENCODING 1092
SWIDTH 800 0
DWIDTH 10 0
BBX 9 12 0 -2
BITMAP
0800
0800
3E00
4900
8880
8880
8880
8880
4900
3E00
0800
0800
ENDCHAR
STARTCHAR 0445
ENCODING 1093
SWIDTH 640 0
DWIDTH 8 0
BBX 7 8 0 0
BITMAP
82
44
28
10
10
28
44
82
ENDCHAR
STARTCHAR 0446
ENCODING 1094
SWIDTH 640 0
DWIDTH 8 0
BBX 7 10 0 -2
BITMAP
84
84
84
84
84
84
84
FE
02
02
ENDCHAR
STARTCHAR 0447
ENCODING 1095
SWIDTH 560 0
DWIDTH 7 0
BBX 6 8 0 0
BITMAP
84
84
84
84
8C
74
04
04
ENDCHAR
STARTCHAR 0448
ENCODING 1096
SWIDTH 640 0
DWIDTH 8 0
BBX 7 8 0 0
BITMAP
92
92
92
92
92
92
92
FE
ENDCHAR
STARTCHAR 0449
ENCODING 1097
SWIDTH 720 0
DWIDTH 9 0
BBX 8 10 0 -2
BITMAP
92
92
92
92
92
92
92
FF
01
01
ENDCHAR
STARTCHAR 044A
ENCODING 1098
SWIDTH 720 0
DWIDTH 9 0
BBX 8 8 0 0
BITMAP
E0
20
20
3E
21
21
21
3E
ENDCHAR
STARTCHAR 044B
ENCODING 1099
SWIDTH 720 0
DWIDTH 9 0
BBX 8 8 0 0
BITMAP
81
81
81
F9
85
85
85
F9
ENDCHAR
STARTCHAR 044C
ENCODING 1100
SWIDTH 560 0
DWIDTH 7 0
BBX 6 8 0 0
BITMAP
80
80
80
F8
84
84
84
F8
ENDCHAR
STARTCHAR 044D
ENCODING 1101
SWIDTH 640 0
DWIDTH 8 0
BBX 7 8 0 0
BITMAP
38
44
82
1E
02
82
44
38
ENDCHAR
STARTCHAR 044E
ENCODING 1102
SWIDTH 880 0
DWIDTH 11 0
BBX 10 8 0 0
BITMAP
8700
8880
9040
F040
9040
9040
8880
8700
ENDCHAR
STARTCHAR 044F
ENCODING 1103
SWIDTH 560 0
DWIDTH 7 0
BBX 6 8 0 0
BITMAP
7C
84
84
84
7C
24
44
84
ENDCHAR
STARTCHAR 0450
ENCODING 1104
SWIDTH 640 0
DWIDTH 8 0
BBX 7 11 0 0
BITMAP
20
10
00
38
44
82
FE
80
82
44
38
ENDCHAR
STARTCHAR 0451
ENCODING 1105
SWIDTH 640 0
DWIDTH 8 0
BBX 7 10 0 0
BITMAP
28
00
38
44
82
FE
80
82
44
38
ENDCHAR
STARTCHAR 0452
ENCODING 1106
SWIDTH 720 0
DWIDTH 9 0
BBX 8 13 0 -2
BITMAP
20
F8
20
20
2E
31
21
21
21
21
21
01
06
ENDCHAR
STARTCHAR 0453
ENCODING 1107
SWIDTH 480 0
DWIDTH 6 0
BBX 5 11 0 0
BITMAP
10
20
00
F8
80
80
80
80
80
80
80
ENDCHAR
STARTCHAR 0454
ENCODING 1108
SWIDTH 640 0
DWIDTH 8 0
BBX 7 8 0 0
BITMAP
38
44
82
F8
80
82
44
38
ENDCHAR
STARTCHAR 0455
ENCODING 1109
SWIDTH 560 0
DWIDTH 7 0
BBX 6 8 0 0
BITMAP
78
84
80
60
18
04
84
78
ENDCHAR
STARTCHAR 0456
ENCODING 1110
SWIDTH 320 0
DWIDTH 4 0
BBX 1 10 1 0
BITMAP
80
00
80
80
80
80
80
80
80
80
ENDCHAR
STARTCHAR 0457
ENCODING 1111
SWIDTH 320 0
DWIDTH 4 0
BBX 3 10 0 0
BITMAP
A0
00
40
40
40
40
40
40
40
40
ENDCHAR
STARTCHAR 0458
ENCODING 1112
SWIDTH 400 0
DWIDTH 5 0
BBX 4 12 0 -2
BITMAP
10
00
10
10
10
10
10
10
10
10
90
60
ENDCHAR
STARTCHAR 0459
ENCODING 1113
SWIDTH 1040 0
DWIDTH 13 0
BBX 12 8 0 0
BITMAP
3E00
2200
2200
23E0
2210
2210
2210
C3E0
ENDCHAR
STARTCHAR 045A
ENCODING 1114
SWIDTH 880 0
DWIDTH 11 0
BBX 10 8 0 0
BITMAP
8400
8400
8400
FF80
8440
8440
8440
8780
ENDCHAR
STARTCHAR 045B
ENCODING 1115
SWIDTH 720 0
DWIDTH 9 0
BBX 8 11 0 0
BITMAP
20
F8
20
20
2E
31
21
21
21
21
21
ENDCHAR
STARTCHAR 045C
ENCODING 1116
SWIDTH 560 0
DWIDTH 7 0
BBX 6 11 0 0
BITMAP
10
20
00
84
88
90
E0
A0
90
88
84
ENDCHAR
STARTCHAR 045D
ENCODING 1117
SWIDTH 640 0
DWIDTH 8 0
BBX 7 11 0 0
BITMAP
20
10
00
82
86
8A
92
92
A2
C2
82
ENDCHAR
STARTCHAR 045E
ENCODING 1118
SWIDTH 640 0
DWIDTH 8 0
BBX 7 13 0 -2
BITMAP
24
18
00
82
82
44
44
28
28
10
10
20
C0
ENDCHAR
STARTCHAR 045F
ENCODING 1119
SWIDTH 640 0
DWIDTH 8 0
BBX 7 10 0 -2
BITMAP
82
82
82
82
82
82
82
FE
10
10
ENDCHAR
STARTCHAR 0490
ENCODING 1168
SWIDTH 560 0
DWIDTH 7 0
BBX 6 13 0 0
BITMAP
04
04
FC
80
80
80
80
80
80
80
80
80
80
ENDCHAR
STARTCHAR 0491
ENCODING 1169
SWIDTH 480 0
DWIDTH 6 0
BBX 5 10 0 0
BITMAP
08
08
F8
80
80
80
80
80
80
80
ENDCHAR
STARTCHAR 04C0
ENCODING 1216
SWIDTH 320 0
DWIDTH 4 0
BBX 3 11 0 0
BITMAP
E0
40
40
40
40
40
40
40
40
40
E0
ENDCHAR
STARTCHAR 04C1
ENCODING 1217
SWIDTH 960 0
DWIDTH 12 0
BBX 11 14 0 0
BITMAP
0900
0600
0000
8420
4440
4440
2480
1500
0E00
1500
2480
4440
4440
8420
ENDCHAR
STARTCHAR 04C2
ENCODING 1218
SWIDTH 800 0
DWIDTH 10 0
BBX 9 11 0 0
BITMAP
1200
0C00
0000
8880
4900
4900
2A00
1C00
2A00
4900
8880
ENDCHAR
STARTCHAR 04CF
ENCODING 1231
SWIDTH 320 0
DWIDTH 4 0
BBX 1 11 1 0
BITMAP
80
80
80
80
80
80
80
80
80
80
80
ENDCHAR
STARTCHAR 04D0
ENCODING 1232
SWIDTH 640 0
DWIDTH 8 0
BBX 7 14 0 0
BITMAP
24
18
00
10
28
28
28
44
44
44
7C
82
82
82
ENDCHAR
STARTCHAR 04D1
ENCODING 1233
SWIDTH 560 0
DWIDTH 7 0
BBX 6 11 0 0
BITMAP
48
30
00
78
84
04
3C
44
84
8C
74
ENDCHAR
STARTCHAR 04D2
ENCODING 1234
SWIDTH 640 0
DWIDTH 8 0
BBX 7 13 0 0
BITMAP
28
00
10
28
28
28
44
44
44
7C
82
82
82
ENDCHAR
STARTCHAR 04D3
ENCODING 1235
SWIDTH 560 0
DWIDTH 7 0
BBX 6 10 0 0
BITMAP
48
00
78
84
04
3C
44
84
8C
74
ENDCHAR
STARTCHAR 04D4
ENCODING 1236
SWIDTH 800 0
DWIDTH 10 0
BBX 9 11 0 0
BITMAP
1F80
2800
2800
2800
4800
4F80
4800
7800
8800
8800
8F80
ENDCHAR
STARTCHAR 04D5
ENCODING 1237
SWIDTH 640 0
DWIDTH 8 0
BBX 7 8 0 0
BITMAP
6C
92
12
3E
50
90
92
6C
ENDCHAR
STARTCHAR 04D6
ENCODING 1238
SWIDTH 560 0
DWIDTH 7 0
BBX 6 14 0 0
BITMAP
48
30
00
FC
80
80
80
80
FC
80
80
80
80
FC
ENDCHAR
STARTCHAR 04D7
ENCODING 1239
SWIDTH 640 0
DWIDTH 8 0
BBX 7 11 0 0
BITMAP
24
18
00
38
44
82
FE
80
82
44
38
ENDCHAR
STARTCHAR 04D8
ENCODING 1240
SWIDTH 720 0
DWIDTH 9 0
BBX 8 11 0 0
BITMAP
3C
42
81
01
01
FF
81
81
81
42
3C
ENDCHAR
STARTCHAR 04D9
ENCODING 1241
SWIDTH 640 0
DWIDTH 8 0
BBX 7 8 0 0
BITMAP
38
44
82
02
FE
82
44
38
ENDCHAR
STARTCHAR 04DA
ENCODING 1242
SWIDTH 720 0
DWIDTH 9 0
BBX 8 13 0 0
BITMAP
24
00
3C
42
81
01
01
FF
81
81
81
42
3C
ENDCHAR
STARTCHAR 04DB
ENCODING 1243
SWIDTH 640 0
DWIDTH 8 0
BBX 7 10 0 0
BITMAP
28
00
38
44
82
02
FE
82
44
38
ENDCHAR
STARTCHAR 04DC
ENCODING 1244
SWIDTH 960 0
DWIDTH 12 0
BBX 11 13 0 0
BITMAP
0A00
0000
8420
4440
4440
2480
1500
0E00
1500
2480
4440
4440
8420
ENDCHAR
STARTCHAR 04DD
ENCODING 1245
SWIDTH 800 0
DWIDTH 10 0
BBX 9 10 0 0
BITMAP
1400
0000
8880
4900
4900
2A00
1C00
2A00
4900
8880
ENDCHAR
STARTCHAR 04DE
ENCODING 1246
SWIDTH 720 0
DWIDTH 9 0
BBX 8 13 0 0
BITMAP
24
00
3C
42
81
01
02
1C
02
01
81
42
3C
ENDCHAR
STARTCHAR 04DF
ENCODING 1247
SWIDTH 560 0
DWIDTH 7 0
BBX 6 10 0 0
BITMAP
48
00
78
84
04
38
04
04
84
78
ENDCHAR
STARTCHAR 04E0
ENCODING 1248
SWIDTH 720 0
DWIDTH 9 0
BBX 8 11 0 0
BITMAP
FF
01
02
04
08
1C
02
01
81
42
3C
ENDCHAR
STARTCHAR 04E1
ENCODING 1249
SWIDTH 560 0
DWIDTH 7 0
BBX 6 8 0 0
BITMAP
FC
08
10
38
04
04
84
78
ENDCHAR
STARTCHAR 04E2
ENCODING 1250
SWIDTH 640 0
DWIDTH 8 0
BBX 7 13 0 0
BITMAP
7C
00
82
86
86
8A
8A
92
A2
A2
C2
C2
82
ENDCHAR
STARTCHAR 04E3
ENCODING 1251
SWIDTH 640 0
DWIDTH 8 0
BBX 7 10 0 0
BITMAP
7C
00
82
86
8A
92
92
A2
C2
82
ENDCHAR
STARTCHAR 04E4
ENCODING 1252
SWIDTH 640 0
DWIDTH 8 0
BBX 7 13 0 0
BITMAP
28
00
82
86
86
8A
8A
92
A2
A2
C2
C2
82
ENDCHAR
STARTCHAR 04E5
ENCODING 1253
SWIDTH 640 0
DWIDTH 8 0
BBX 7 10 0 0
BITMAP
28
00
82
86
8A
92
92
A2
C2
82
ENDCHAR
STARTCHAR 04E6
ENCODING 1254
SWIDTH 720 0
DWIDTH 9 0
BBX 8 13 0 0
BITMAP
24
00
3C
42
81
81
81
81
81
81
81
42
3C
ENDCHAR
STARTCHAR 04E7
ENCODING 1255
SWIDTH 640 0
DWIDTH 8 0
BBX 7 10 0 0
BITMAP
28
00
38
44
82
82
82
82
44
38
ENDCHAR
STARTCHAR 04E8
ENCODING 1256
SWIDTH 720 0
DWIDTH 9 0
BBX 8 11 0 0
BITMAP
3C
42
81
81
81
FF
81
81
81
42
3C
ENDCHAR
STARTCHAR 04E9
ENCODING 1257
SWIDTH 640 0
DWIDTH 8 0
BBX 7 8 0 0
BITMAP
38
44
82
FE
82
82
44
38
ENDCHAR
STARTCHAR 04EA
ENCODING 1258
SWIDTH 720 0
DWIDTH 9 0
BBX 8 13 0 0
BITMAP
24
00
3C
42
81
81
81
FF
81
81
81
42
3C
ENDCHAR
STARTCHAR 04EB
ENCODING 1259
SWIDTH 640 0
DWIDTH 8 0
BBX 7 10 0 0
BITMAP
28
00
38
44
82
FE
82
82
44
38
ENDCHAR
STARTCHAR 04EC
ENCODING 1260
SWIDTH 720 0
DWIDTH 9 0
BBX 8 13 0 0
BITMAP
24
00
3C
42
81
01
01
1F
01
01
81
42
3C
ENDCHAR
STARTCHAR 04ED
ENCODING 1261
SWIDTH 640 0
DWIDTH 8 0
BBX 7 10 0 0
BITMAP
28
00
38
44
82
1E
02
82
44
38
ENDCHAR
STARTCHAR 04EE
ENCODING 1262
SWIDTH 640 0
DWIDTH 8 0
BBX 7 13 0 0
BITMAP
7C
00
82
82
44
44
28
28
10
10
10
20
C0
ENDCHAR
STARTCHAR 04EF
ENCODING 1263
SWIDTH 640 0
DWIDTH 8 0
BBX 7 12 0 -2
BITMAP
7C
00
82
82
44
44
28
28
10
10
20
C0
ENDCHAR
STARTCHAR 04F0
ENCODING 1264
SWIDTH 640 0
DWIDTH 8 0
BBX 7 13 0 0
BITMAP
28
00
82
82
44
44
28
28
10
10
10
20
C0
ENDCHAR
STARTCHAR 04F1
ENCODING 1265
SWIDTH 640 0
DWIDTH 8 0
BBX 7 12 0 -2
BITMAP
28
00
82
82
44
44
28
28
10
10
20
C0
ENDCHAR
STARTCHAR 04F2
ENCODING 1266
SWIDTH 640 0
DWIDTH 8 0
BBX 7 13 0 0
BITMAP
14
28
82
82
44
44
28
28
10
10
10
20
C0
ENDCHAR
STARTCHAR 04F3
ENCODING 1267
SWIDTH 640 0
DWIDTH 8 0
BBX 7 12 0 -2
BITMAP
14
28
82
82
44
44
28
28
10
10
20
C0
ENDCHAR
STARTCHAR 04F4
ENCODING 1268
SWIDTH 640 0
DWIDTH 8 0
BBX 7 13 0 0
BITMAP
28
00
82
82
82
82
82
46
3A
02
02
02
02
ENDCHAR
STARTCHAR 04F5
ENCODING 1269
SWIDTH 560 0
DWIDTH 7 0
BBX 6 10 0 0
BITMAP
48
00
84
84
84
84
8C
74
04
04
ENDCHAR
STARTCHAR 04F8
ENCODING 1272
SWIDTH 800 0
DWIDTH 10 0
BBX 9 12 0 0
BITMAP
1400
8080
8080
8080
8080
F880
8480
8280
8280
8280
8480
F880
ENDCHAR
STARTCHAR 04F9
ENCODING 1273
SWIDTH 720 0
DWIDTH 9 0
BBX 8 10 0 0
BITMAP
24
00
81
81
81
F9
85
85
85
F9
ENDCHAR
STARTCHAR 1EF2
ENCODING 7922
SWIDTH 640 0
DWIDTH 8 0
BBX 7 13 0 0
BITMAP
20
10
82
82
44
44
28
28
10
10
10
10
10
ENDCHAR
STARTCHAR 1EF3
ENCODING 7923
SWIDTH 640 0
DWIDTH 8 0
BBX 7 12 0 -2
BITMAP
20
10
82
82
44
44
28
28
10
10
20
C0
ENDCHAR
STARTCHAR 2010
ENCODING 8208
SWIDTH 480 0
DWIDTH 6 0
BBX 5 1 0 5
BITMAP
F8
ENDCHAR
STARTCHAR 2011
ENCODING 8209
SWIDTH 480 0
DWIDTH 6 0
BBX 5 1 0 5
BITMAP
F8
ENDCHAR
STARTCHAR 2012
ENCODING 8210
SWIDTH 720 0
DWIDTH 9 0
BBX 8 1 0 5
BITMAP
FF
ENDCHAR
STARTCHAR 2013
ENCODING 8211
SWIDTH 640 0
DWIDTH 8 0
BBX 7 1 0 5
BITMAP
FE
ENDCHAR
STARTCHAR 2014
ENCODING 8212
SWIDTH 1040 0
DWIDTH 13 0
BBX 12 1 0 5
BITMAP
FFF0
ENDCHAR
STARTCHAR 2015
ENCODING 8213
SWIDTH 1040 0
DWIDTH 13 0
BBX 12 1 0 5
BITMAP
FFF0
ENDCHAR
STARTCHAR 2016
ENCODING 8214
SWIDTH 320 0
DWIDTH 4 0
BBX 3 11 0 0
BITMAP
A0
A0
A0
A0
A0
A0
A0
A0
A0
A0
A0
ENDCHAR
STARTCHAR 2017
ENCODING 8215
SWIDTH 640 0
DWIDTH 8 0
BBX 7 3 0 0
BITMAP
FE
00
FE
ENDCHAR
STARTCHAR 2018
ENCODING 8216
SWIDTH 320 0
DWIDTH 4 0
BBX 2 3 1 8
BITMAP
40
80
80
ENDCHAR
STARTCHAR 2019
ENCODING 8217
SWIDTH 320 0
DWIDTH 4 0
BBX 2 3 0 8
BITMAP
40
40
80
ENDCHAR
STARTCHAR 201A
ENCODING 8218
SWIDTH 320 0
DWIDTH 4 0
BBX 2 3 0 -1
BITMAP
40
40
80
ENDCHAR
STARTCHAR 201B
ENCODING 8219
SWIDTH 320 0
DWIDTH 4 0
BBX 2 3 1 8
BITMAP
80
80
40
ENDCHAR
STARTCHAR 201C
ENCODING 8220
SWIDTH 480 0
DWIDTH 6 0
BBX 4 3 1 8
BITMAP
50
A0
A0
ENDCHAR
STARTCHAR 201D
ENCODING 8221
SWIDTH 480 0
DWIDTH 6 0
BBX 4 3 0 8
BITMAP
50
50
A0
ENDCHAR
STARTCHAR 201E
ENCODING 8222
SWIDTH 480 0
DWIDTH 6 0
BBX 4 3 0 -1
BITMAP
50
50
A0
ENDCHAR
STARTCHAR 201F
ENCODING 8223
SWIDTH 480 0
DWIDTH 6 0
BBX 4 3 1 8
BITMAP
A0
A0
50
ENDCHAR
STARTCHAR 2020
ENCODING 8224
SWIDTH 480 0
DWIDTH 6 0
BBX 5 11 0 0
BITMAP
20
20
20
F8
20
20
20
20
20
20
20
ENDCHAR
STARTCHAR 2021
ENCODING 8225
SWIDTH 480 0
DWIDTH 6 0
BBX 5 11 0 0
BITMAP
20
20
F8
20
20
20
20
20
F8
20
20
ENDCHAR
STARTCHAR 2022
ENCODING 8226
SWIDTH 400 0
DWIDTH 5 0
BBX 4 4 0 3
BITMAP
60
F0
F0
60
ENDCHAR
STARTCHAR 2023
ENCODING 8227
SWIDTH 400 0
DWIDTH 5 0
BBX 3 5 1 3
BITMAP
80
C0
E0
C0
80
ENDCHAR
STARTCHAR 2024
ENCODING 8228
SWIDTH 320 0
DWIDTH 4 0
BBX 1 1 1 0
BITMAP
80
ENDCHAR
STARTCHAR 2025
ENCODING 8229
SWIDTH 800 0
DWIDTH 10 0
BBX 6 1 2 5
BITMAP
84
ENDCHAR
STARTCHAR 2026
ENCODING 8230
SWIDTH 800 0
DWIDTH 10 0
BBX 7 1 1 5
BITMAP
92
ENDCHAR
STARTCHAR 2027
ENCODING 8231
SWIDTH 320 0
DWIDTH 4 0
BBX 1 1 1 5
BITMAP
80
ENDCHAR
STARTCHAR 2030
ENCODING 8240
SWIDTH 1040 0
DWIDTH 13 0
BBX 12 9 0 1
BITMAP
6080
9100
9200
6400
0800
1360
2490
4490
8360
ENDCHAR
STARTCHAR 2031
ENCODING 8241
SWIDTH 1360 0
DWIDTH 17 0
BBX 16 9 0 1
BITMAP
6080
9100
9200
6400
0800
136C
2491
4491
836C
ENDCHAR
STARTCHAR 2032
ENCODING 8242
SWIDTH 320 0
DWIDTH 4 0
BBX 2 3 0 8
BITMAP
40
40
80
ENDCHAR
STARTCHAR 2033
ENCODING 8243
SWIDTH 480 0
DWIDTH 6 0
BBX 4 3 0 8
BITMAP
50
50
A0
ENDCHAR
STARTCHAR 2034
ENCODING 8244
SWIDTH 640 0
DWIDTH 8 0
BBX 6 3 0 8
BITMAP
54
54
A8
ENDCHAR
STARTCHAR 2035
ENCODING 8245
SWIDTH 320 0
DWIDTH 4 0
BBX 2 3 1 8
BITMAP
80
80
40
ENDCHAR
STARTCHAR 2036
ENCODING 8246
SWIDTH 480 0
DWIDTH 6 0
BBX 4 3 1 8
BITMAP
A0
A0
50
ENDCHAR
STARTCHAR 2037
ENCODING 8247
SWIDTH 640 0
DWIDTH 8 0
BBX 6 3 1 8
BITMAP
A8
A8
54
ENDCHAR
STARTCHAR 2038
ENCODING 8248
SWIDTH 480 0
DWIDTH 6 0
BBX 5 3 0 0
BITMAP
20
50
88
ENDCHAR
STARTCHAR 2039
ENCODING 8249
SWIDTH 320 0
DWIDTH 4 0
BBX 3 5 0 2
BITMAP
20
40
80
40
20
ENDCHAR
STARTCHAR 203A
ENCODING 8250
SWIDTH 320 0
DWIDTH 4 0
BBX 3 5 0 2
BITMAP
80
40
20
40
80
ENDCHAR
STARTCHAR 203B
ENCODING 8251
SWIDTH 960 0
DWIDTH 12 0
BBX 9 9 1 1
BITMAP
8880
4900
2200
1400
C980
1400
2200
4900
8880
ENDCHAR
STARTCHAR 203C
ENCODING 8252
SWIDTH 560 0
DWIDTH 7 0
BBX 4 11 1 0
BITMAP
90
90
90
90
90
90
90
90
00
90
90
ENDCHAR
STARTCHAR 203D
ENCODING 8253
SWIDTH 480 0
DWIDTH 6 0
BBX 5 11 0 0
BITMAP
70
88
A8
28
30
20
20
20
00
20
20
ENDCHAR
STARTCHAR 2043
ENCODING 8259
SWIDTH 400 0
DWIDTH 5 0
BBX 4 1 0 5
BITMAP
F0
ENDCHAR
STARTCHAR 2044
ENCODING 8260
SWIDTH 480 0
DWIDTH 6 0
BBX 5 11 0 0
BITMAP
08
08
10
10
20
20
20
40
40
80
80
ENDCHAR
STARTCHAR 2045
ENCODING 8261
SWIDTH 320 0
DWIDTH 4 0
BBX 3 11 0 0
BITMAP
E0
80
80
80
80
E0
80
80
80
80
E0
ENDCHAR
STARTCHAR 2046
ENCODING 8262
SWIDTH 320 0
DWIDTH 4 0
BBX 3 11 0 0
BITMAP
E0
20
20
20
20
E0
20
20
20
20
E0
ENDCHAR
STARTCHAR 2047
ENCODING 8263
SWIDTH 960 0
DWIDTH 12 0
BBX 11 11 0 0
BITMAP
71C0
8A20
8A20
0820
1040
2080
2080
2080
0000
2080
2080
ENDCHAR
STARTCHAR 2048
ENCODING 8264
SWIDTH 800 0
DWIDTH 10 0
BBX 8 11 0 0
BITMAP
71
89
89
09
11
21
21
21
00
21
21
ENDCHAR
STARTCHAR 2049
ENCODING 8265
SWIDTH 800 0
DWIDTH 10 0
BBX 8 11 1 0
BITMAP
8E
91
91
81
82
84
84
84
00
84
84
ENDCHAR
STARTCHAR 204B
ENCODING 8267
SWIDTH 560 0
DWIDTH 7 0
BBX 6 11 0 0
BITMAP
F8
BC
BC
BC
B8
A0
A0
A0
A0
A0
A0
ENDCHAR
STARTCHAR 2057
ENCODING 8279
SWIDTH 800 0
DWIDTH 10 0
BBX 8 3 0 8
BITMAP
55
55
AA
ENDCHAR
STARTCHAR 20A1
ENCODING 8353
SWIDTH 640 0
DWIDTH 8 0
BBX 7 11 0 0
BITMAP
04
38
4C
8A
90
90
90
A2
64
38
40
ENDCHAR
STARTCHAR 20A4
ENCODING 8356
SWIDTH 720 0
DWIDTH 9 0
BBX 8 9 0 1
BITMAP
1C
22
22
20
7C
10
71
91
6E
ENDCHAR
STARTCHAR 20A9
ENCODING 8361
SWIDTH 960 0
DWIDTH 12 0
BBX 11 9 0 1
BITMAP
4440
4440
FFE0
4440
FFE0
2A80
2A80
1100
1100
ENDCHAR
STARTCHAR 20AC
ENCODING 8364
SWIDTH 720 0
DWIDTH 9 0
BBX 8 9 0 1
BITMAP
1E
21
40
FC
40
FC
40
21
1E
ENDCHAR
STARTCHAR 20B1
ENCODING 8369
SWIDTH 800 0
DWIDTH 10 0
BBX 9 11 0 0
BITMAP
7C00
4200
FF80
4100
FF80
4200
7C00
4000
4000
4000
4000
ENDCHAR
STARTCHAR 20B9
ENCODING 8377
SWIDTH 640 0
DWIDTH 8 0
BBX 7 11 0 0
BITMAP
FE
10
08
FE
08
10
E0
40
20
10
08
ENDCHAR
STARTCHAR 20BD
ENCODING 8381
SWIDTH 800 0
DWIDTH 10 0
BBX 8 11 0 0
BITMAP
7C
42
41
41
41
42
FC
40
F8
40
40
ENDCHAR
STARTCHAR 2103
ENCODING 8451
SWIDTH 1040 0
DWIDTH 13 0
BBX 11 11 0 0
BITMAP
4000
A780
4840
1020
1000
1000
1000
1000
1020
0840
0780
ENDCHAR
STARTCHAR 2109
ENCODING 8457
SWIDTH 880 0
DWIDTH 11 0
BBX 10 11 0 0
BITMAP
4000
AFC0
4800
0800
0800
0FC0
0800
0800
0800
0800
0800
ENDCHAR
STARTCHAR 2116
ENCODING 8470
SWIDTH 1040 0
DWIDTH 13 0
BBX 11 11 0 0
BITMAP
8800
8800
C800
C980
AA40
AA40
AA40
9A40
9A40
8A40
89A0
ENDCHAR
STARTCHAR 2121
ENCODING 8481
SWIDTH 1040 0
DWIDTH 13 0
BBX 11 11 0 0
BITMAP
EE80
4880
4880
4880
4880
4E80
4880
4880
4880
4880
4EE0
ENDCHAR
STARTCHAR 2122
ENCODING 8482
SWIDTH 1040 0
DWIDTH 13 0
BBX 11 4 0 7
BITMAP
FA20
2360
22A0
2220
ENDCHAR
STARTCHAR 2150
ENCODING 8528
SWIDTH 960 0
DWIDTH 12 0
BBX 10 11 1 0
BITMAP
C000
4080
4100
4200
4400
4BC0
1040
2080
4080
8100
0100
ENDCHAR
STARTCHAR 2151
ENCODING 8529
SWIDTH 960 0
DWIDTH 12 0
BBX 10 11 1 0
BITMAP
C000
4080
4100
4200
4400
4980
1240
2240
41C0
8040
0180
ENDCHAR
STARTCHAR 2152
ENCODING 8530
SWIDTH 960 0
DWIDTH 12 0
BBX 10 11 1 0
BITMAP
C000
4080
4100
4200
4400
4800
1480
2540
4540
8540
0480
ENDCHAR
STARTCHAR 2153
ENCODING 8531
SWIDTH 960 0
DWIDTH 12 0
BBX 10 11 1 0
BITMAP
C000
4080
4100
4200
4400
4B80
1040
2180
4040
8040
0380
ENDCHAR
STARTCHAR 2154
ENCODING 8532
SWIDTH 960 0
DWIDTH 12 0
BBX 11 11 0 0
BITMAP
E000
1040
2080
4100
8200
F5C0
0820
10C0
2020
4020
01C0
ENDCHAR
STARTCHAR 2155
ENCODING 8533
SWIDTH 960 0
DWIDTH 12 0
BBX 10 11 1 0
BITMAP
C000
4080
4100
4200
4400
4BC0
1200
2380
4040
8040
0380
ENDCHAR
STARTCHAR 2156
ENCODING 8534
SWIDTH 960 0
DWIDTH 12 0
BBX 11 11 0 0
BITMAP
E000
1040
2080
4100
8200
F5E0
0900
11C0
2020
4020
01C0
ENDCHAR
STARTCHAR 2157
ENCODING 8535
SWIDTH 1040 0
DWIDTH 13 0
BBX 12 11 0 0
BITMAP
E000
1040
6080
1100
1200
E5F0
0900
11E0
2010
4010
01C0
ENDCHAR
STARTCHAR 2158
ENCODING 8536
SWIDTH 960 0
DWIDTH 12 0
BBX 11 11 0 0
BITMAP
1000
3040
5080
9100
FA00
15E0
0900
11C0
2020
4020
01C0
ENDCHAR
STARTCHAR 2159
ENCODING 8537
SWIDTH 960 0
DWIDTH 12 0
BBX 10 11 1 0
BITMAP
C000
4080
4100
4200
4400
4980
1200
2380
4240
8240
0180
ENDCHAR
STARTCHAR 215A
ENCODING 8538
SWIDTH 960 0
DWIDTH 12 0
BBX 11 11 0 0
BITMAP
F000
8040
E080
1100
1200
E4C0
0900
11C0
2120
4120
00C0
ENDCHAR
STARTCHAR 215B
ENCODING 8539
SWIDTH 960 0
DWIDTH 12 0
BBX 10 11 1 0
BITMAP
C000
4080
4100
4200
4400
4980
1240
2180
4240
8240
0180
ENDCHAR
STARTCHAR 215C
ENCODING 8540
SWIDTH 1040 0
DWIDTH 13 0
BBX 12 11 0 0
BITMAP
E000
1040
6080
1100
1200
E4C0
0910
10C0
2110
4110
00C0
ENDCHAR
STARTCHAR 215D
ENCODING 8541
SWIDTH 960 0
DWIDTH 12 0
BBX 11 11 0 0
BITMAP
F000
8040
E080
1100
1200
E4C0
0920
10C0
2120
4120
00C0
ENDCHAR
STARTCHAR 215E
ENCODING 8542
SWIDTH 960 0
DWIDTH 12 0
BBX 10 11 1 0
BITMAP
F000
1080
2100
2200
4400
4980
1240
2180
4240
8240
0180
ENDCHAR
STARTCHAR 215F
ENCODING 8543
SWIDTH 960 0
DWIDTH 12 0
BBX 9 10 1 1
BITMAP
C000
4080
4100
4200
4400
4800
1000
2000
4000
8000
ENDCHAR
STARTCHAR 2160
ENCODING 8544
SWIDTH 320 0
DWIDTH 4 0
BBX 3 11 0 0
BITMAP
E0
40
40
40
40
40
40
40
40
40
E0
ENDCHAR
STARTCHAR 2161
ENCODING 8545
SWIDTH 480 0
DWIDTH 6 0
BBX 5 11 0 0
BITMAP
F8
50
50
50
50
50
50
50
50
50
F8
ENDCHAR
STARTCHAR 2162
ENCODING 8546
SWIDTH 640 0
DWIDTH 8 0
BBX 7 11 0 0
BITMAP
FE
54
54
54
54
54
54
54
54
54
FE
ENDCHAR
STARTCHAR 2163
ENCODING 8547
SWIDTH 880 0
DWIDTH 11 0
BBX 10 11 0 0
BITMAP
F040
5040
5040
4880
4880
4880
4500
4500
4500
4200
E200
ENDCHAR
STARTCHAR 2164
ENCODING 8548
SWIDTH 640 0
DWIDTH 8 0
BBX 7 11 0 0
BITMAP
82
82
82
44
44
44
28
28
28
10
10
ENDCHAR
STARTCHAR 2165
ENCODING 8549
SWIDTH 880 0
DWIDTH 11 0
BBX 10 11 0 0
BITMAP
83C0
8280
8280
4480
4480
4480
2880
2880
2880
1080
11C0
ENDCHAR
STARTCHAR 2166
ENCODING 8550
SWIDTH 1040 0
DWIDTH 13 0
BBX 12 11 0 0
BITMAP
83F0
82A0
82A0
44A0
44A0
44A0
28A0
28A0
28A0
10A0
11F0
ENDCHAR
STARTCHAR 2167
ENCODING 8551
SWIDTH 1200 0
DWIDTH 15 0
BBX 14 11 0 0
BITMAP
83FC
82A4
82A4
44A4
44A4
44A4
28A4
28A4
28A4
10A4
11FC
ENDCHAR
STARTCHAR 2168
ENCODING 8552
SWIDTH 880 0
DWIDTH 11 0
BBX 10 11 0 0
BITMAP
F040
4880
4880
4500
4500
4200
4500
4500
4880
4880
F040
ENDCHAR
STARTCHAR 2169
ENCODING 8553
SWIDTH 640 0
DWIDTH 8 0
BBX 7 11 0 0
BITMAP
82
44
44
28
28
10
28
28
44
44
82
ENDCHAR
STARTCHAR 216A
ENCODING 8554
SWIDTH 880 0
DWIDTH 11 0
BBX 10 11 0 0
BITMAP
83C0
4480
4480
2880
2880
1080
2880
2880
4480
4480
83C0
ENDCHAR
STARTCHAR 216B
ENCODING 8555
SWIDTH 1040 0
DWIDTH 13 0
BBX 12 11 0 0
BITMAP
83F0
44A0
44A0
28A0
28A0
10A0
28A0
28A0
44A0
44A0
83F0
ENDCHAR
STARTCHAR 216C
ENCODING 8556
SWIDTH 560 0
DWIDTH 7 0
BBX 6 11 0 0
BITMAP
80
80
80
80
80
80
80
80
80
80
FC
ENDCHAR
STARTCHAR 216D
ENCODING 8557
SWIDTH 720 0
DWIDTH 9 0
BBX 8 11 0 0
BITMAP
3C
42
81
80
80
80
80
80
81
42
3C
ENDCHAR
STARTCHAR 216E
ENCODING 8558
SWIDTH 640 0
DWIDTH 8 0
BBX 7 11 0 0
BITMAP
F8
84
82
82
82
82
82
82
82
84
F8
ENDCHAR
STARTCHAR 216F
ENCODING 8559
SWIDTH 800 0
DWIDTH 10 0
BBX 9 11 0 0
BITMAP
8080
C180
C180
A280
A280
A280
9480
9480
9480
8880
8880
ENDCHAR
STARTCHAR 2170
ENCODING 8560
SWIDTH 320 0
DWIDTH 4 0
BBX 1 10 1 0
BITMAP
80
00
80
80
80
80
80
80
80
80
ENDCHAR
STARTCHAR 2171
ENCODING 8561
SWIDTH 320 0
DWIDTH 4 0
BBX 3 10 0 0
BITMAP
A0
00
A0
A0
A0
A0
A0
A0
A0
A0
ENDCHAR
STARTCHAR 2172
ENCODING 8562
SWIDTH 480 0
DWIDTH 6 0
BBX 5 10 0 0
BITMAP
A8
00
A8
A8
A8
A8
A8
A8
A8
A8
ENDCHAR
STARTCHAR 2173
ENCODING 8563
SWIDTH 800 0
DWIDTH 10 0
BBX 9 10 0 0
BITMAP
8000
0000
A080
A080
9100
9100
8A00
8A00
8400
8400
ENDCHAR
STARTCHAR 2174
ENCODING 8564
SWIDTH 640 0
DWIDTH 8 0
BBX 7 8 0 0
BITMAP
82
82
44
44
28
28
10
10
ENDCHAR
STARTCHAR 2175
ENCODING 8565
SWIDTH 800 0
DWIDTH 10 0
BBX 9 10 0 0
BITMAP
0080
0000
8280
8280
4480
4480
2880
2880
1080
1080
ENDCHAR
STARTCHAR 2176
ENCODING 8566
SWIDTH 960 0
DWIDTH 12 0
BBX 11 10 0 0
BITMAP
00A0
0000
82A0
82A0
44A0
44A0
28A0
28A0
10A0
10A0
ENDCHAR
STARTCHAR 2177
ENCODING 8567
SWIDTH 1200 0
DWIDTH 15 0
BBX 14 10 0 0
BITMAP
00A4
0000
82A4
82A4
44A4
44A4
28A4
28A4
10A4
10A4
ENDCHAR
STARTCHAR 2178
ENCODING 8568
SWIDTH 800 0
DWIDTH 10 0
BBX 9 10 0 0
BITMAP
8000
0000
A080
9100
8A00
8400
8400
8A00
9100
A080
ENDCHAR
STARTCHAR 2179
ENCODING 8569
SWIDTH 640 0
DWIDTH 8 0
BBX 7 8 0 0
BITMAP
82
44
28
10
10
28
44
82
ENDCHAR
STARTCHAR 217A
ENCODING 8570
SWIDTH 800 0
DWIDTH 10 0
BBX 9 10 0 0
BITMAP
0080
0000
8280
4480
2880
1080
1080
2880
4480
8280
ENDCHAR
STARTCHAR 217B
ENCODING 8571
SWIDTH 960 0
DWIDTH 12 0
BBX 11 10 0 0
BITMAP
00A0
0000
82A0
44A0
28A0
10A0
10A0
28A0
44A0
82A0
ENDCHAR
STARTCHAR 217C
ENCODING 8572
SWIDTH 320 0
DWIDTH 4 0
BBX 1 11 1 0
BITMAP
80
80
80
80
80
80
80
80
80
80
80
ENDCHAR
STARTCHAR 217D
ENCODING 8573
SWIDTH 560 0
DWIDTH 7 0
BBX 6 8 0 0
BITMAP
38
44
80
80
80
80
44
38
ENDCHAR
STARTCHAR 217E
ENCODING 8574
SWIDTH 640 0
DWIDTH 8 0
BBX 7 11 0 0
BITMAP
02
02
02
3A
46
82
82
82
82
46
3A
ENDCHAR
STARTCHAR 217F
ENCODING 8575
SWIDTH 800 0
DWIDTH 10 0
BBX 9 8 0 0
BITMAP
B300
CC80
8880
8880
8880
8880
8880
8880
ENDCHAR
STARTCHAR 2180
ENCODING 8576
SWIDTH 960 0
DWIDTH 12 0
BBX 11 11 0 0
BITMAP
3F80
4440
8420
8420
8420
8420
8420
8420
8420
4440
3F80
ENDCHAR
STARTCHAR 2181
ENCODING 8577
SWIDTH 960 0
DWIDTH 12 0
BBX 7 11 2 0
BITMAP
F8
84
F2
8A
8A
8A
8A
8A
F2
84
F8
ENDCHAR
STARTCHAR 2182
ENCODING 8578
SWIDTH 960 0
DWIDTH 12 0
BBX 11 11 0 0
BITMAP
3F80
4440
9F20
A4A0
A4A0
A4A0
A4A0
A4A0
9F20
4440
3F80
ENDCHAR
STARTCHAR 2189
ENCODING 8585
SWIDTH 960 0
DWIDTH 12 0
BBX 11 11 0 0
BITMAP
6000
9040
9080
9100
9200
65C0
0820
10C0
2020
4020
01C0
ENDCHAR
STARTCHAR 2190
ENCODING 8592
SWIDTH 1040 0
DWIDTH 13 0
BBX 9 7 1 2
BITMAP
1000
2000
4000
FF80
4000
2000
1000
ENDCHAR
STARTCHAR 2191
ENCODING 8593
SWIDTH 1040 0
DWIDTH 13 0
BBX 7 9 2 1
BITMAP
10
38
54
92
10
10
10
10
10
ENDCHAR
STARTCHAR 2192
ENCODING 8594
SWIDTH 1040 0
DWIDTH 13 0
BBX 9 7 1 2
BITMAP
0400
0200
0100
FF80
0100
0200
0400
ENDCHAR
STARTCHAR 2193
ENCODING 8595
SWIDTH 1040 0
DWIDTH 13 0
BBX 7 9 2 1
BITMAP
10
10
10
10
10
92
54
38
10
ENDCHAR
STARTCHAR 2194
ENCODING 8596
SWIDTH 1040 0
DWIDTH 13 0
BBX 11 7 0 2
BITMAP
1100
2080
4040
FFE0
4040
2080
1100
ENDCHAR
STARTCHAR 2195
ENCODING 8597
SWIDTH 1040 0
DWIDTH 13 0
BBX 7 11 2 0
BITMAP
10
38
54
92
10
10
10
92
54
38
10
ENDCHAR
STARTCHAR 2196
ENCODING 8598
SWIDTH 1040 0
DWIDTH 13 0
BBX 7 7 2 2
BITMAP
F8
C0
A0
90
88
04
02
ENDCHAR
STARTCHAR 2197
ENCODING 8599
SWIDTH 1040 0
DWIDTH 13 0
BBX 7 7 2 2
BITMAP
3E
06
0A
12
22
40
80
ENDCHAR
STARTCHAR 2198
ENCODING 8600
SWIDTH 1040 0
DWIDTH 13 0
BBX 7 7 2 2
BITMAP
80
40
22
12
0A
06
3E
ENDCHAR
STARTCHAR 2199
ENCODING 8601
SWIDTH 1040 0
DWIDTH 13 0
BBX 7 7 2 2
BITMAP
02
04
88
90
A0
C0
F8
ENDCHAR
STARTCHAR 219A
ENCODING 8602
SWIDTH 1040 0
DWIDTH 13 0
BBX 9 5 1 3
BITMAP
2000
4200
FF80
4400
2000
ENDCHAR
STARTCHAR 219B
ENCODING 8603
SWIDTH 1040 0
DWIDTH 13 0
BBX 9 5 1 3
BITMAP
0200
1100
FF80
2100
0200
ENDCHAR
STARTCHAR 219C
ENCODING 8604
SWIDTH 1040 0
DWIDTH 13 0
BBX 10 4 1 4
BITMAP
F000
C300
A480
9840
ENDCHAR
STARTCHAR 219D
ENCODING 8605
SWIDTH 1040 0
DWIDTH 13 0
BBX 10 4 0 4
BITMAP
03C0
30C0
4940
8640
ENDCHAR
STARTCHAR 219E
ENCODING 8606
SWIDTH 1040 0
DWIDTH 13 0
BBX 9 5 1 3
BITMAP
2800
5000
FF80
5000
2800
ENDCHAR
STARTCHAR 219F
ENCODING 8607
SWIDTH 1040 0
DWIDTH 13 0
BBX 5 9 3 1
BITMAP
20
70
A8
70
A8
20
20
20
20
ENDCHAR
STARTCHAR 21A0
ENCODING 8608
SWIDTH 1040 0
DWIDTH 13 0
BBX 9 5 1 3
BITMAP
0A00
0500
FF80
0500
0A00
ENDCHAR
STARTCHAR 21A1
ENCODING 8609
SWIDTH 1040 0
DWIDTH 13 0
BBX 5 9 3 1
BITMAP
20
20
20
20
A8
70
A8
70
20
ENDCHAR
STARTCHAR 21A2
ENCODING 8610
SWIDTH 1040 0
DWIDTH 13 0
BBX 9 5 1 3
BITMAP
2080
4100
FE00
4100
2080
ENDCHAR
STARTCHAR 21A3
ENCODING 8611
SWIDTH 1040 0
DWIDTH 13 0
BBX 9 5 1 3
BITMAP
8200
4100
3F80
4100
8200
ENDCHAR
STARTCHAR 21A4
ENCODING 8612
SWIDTH 1040 0
DWIDTH 13 0
BBX 9 5 1 3
BITMAP
2080
4080
FF80
4080
2080
ENDCHAR
STARTCHAR 21A5
ENCODING 8613
SWIDTH 1040 0
DWIDTH 13 0
BBX 5 9 3 1
BITMAP
20
70
A8
20
20
20
20
20
F8
ENDCHAR
STARTCHAR 21A6
ENCODING 8614
SWIDTH 1040 0
DWIDTH 13 0
BBX 9 5 1 3
BITMAP
8200
8100
FF80
8100
8200
ENDCHAR
STARTCHAR 21A7
ENCODING 8615
SWIDTH 1040 0
DWIDTH 13 0
BBX 5 9 3 1
BITMAP
F8
20
20
20
20
20
A8
70
20
ENDCHAR
STARTCHAR 21A8
ENCODING 8616
SWIDTH 1040 0
DWIDTH 13 0
BBX 5 11 3 0
BITMAP
20
70
A8
20
20
20
20
A8
70
20
F8
ENDCHAR
STARTCHAR 21A9
ENCODING 8617
SWIDTH 1040 0
DWIDTH 13 0
BBX 11 9 0 2
BITMAP
0040
0020
1020
2020
4040
FF80
4000
2000
1000
ENDCHAR
STARTCHAR 21AA
ENCODING 8618
SWIDTH 1040 0
DWIDTH 13 0
BBX 11 9 0 2
BITMAP
4000
8000
8100
8080
4040
3FE0
0040
0080
0100
ENDCHAR
STARTCHAR 21AB
ENCODING 8619
SWIDTH 1120 0
DWIDTH 14 0
BBX 13 9 0 1
BITMAP
00E0
1118
2118
4118
FFE0
4100
2100
1100
0100
ENDCHAR
STARTCHAR 21AC
ENCODING 8620
SWIDTH 1040 0
DWIDTH 13 0
BBX 11 9 0 1
BITMAP
7000
8900
8880
8840
7FE0
0840
0880
0900
0800
ENDCHAR
STARTCHAR 21AD
ENCODING 8621
SWIDTH 1040 0
DWIDTH 13 0
BBX 11 5 0 3
BITMAP
2080
4440
F5E0
4A40
2080
ENDCHAR
STARTCHAR 21AE
ENCODING 8622
SWIDTH 1040 0
DWIDTH 13 0
BBX 11 5 0 3
BITMAP
2080
4240
FFE0
4840
2080
ENDCHAR
STARTCHAR 21AF
ENCODING 8623
SWIDTH 1040 0
DWIDTH 13 0
BBX 7 11 3 0
BITMAP
80
80
80
88
98
A8
C8
88
2A
1C
08
ENDCHAR
STARTCHAR 21B0
ENCODING 8624
SWIDTH 1040 0
DWIDTH 13 0
BBX 9 9 1 1
BITMAP
1000
2000
4000
FF80
4080
2080
1080
0080
0080
ENDCHAR
STARTCHAR 21B1
ENCODING 8625
SWIDTH 1040 0
DWIDTH 13 0
BBX 9 9 1 1
BITMAP
0400
0200
0100
FF80
8100
8200
8400
8000
8000
ENDCHAR
STARTCHAR 21B2
ENCODING 8626
SWIDTH 1040 0
DWIDTH 13 0
BBX 9 9 1 1
BITMAP
0080
0080
1080
2080
4080
FF80
4000
2000
1000
ENDCHAR
STARTCHAR 21B3
ENCODING 8627
SWIDTH 1040 0
DWIDTH 13 0
BBX 9 9 1 1
BITMAP
8000
8000
8400
8200
8100
FF80
0100
0200
0400
ENDCHAR
STARTCHAR 21B4
ENCODING 8628
SWIDTH 1040 0
DWIDTH 13 0
BBX 9 9 1 1
BITMAP
FC00
0400
0400
0400
0400
2480
1500
0E00
0400
ENDCHAR
STARTCHAR 21B5
ENCODING 8629
SWIDTH 1040 0
DWIDTH 13 0
BBX 9 9 1 1
BITMAP
0080
0080
1080
2080
4080
FF80
4000
2000
1000
ENDCHAR
STARTCHAR 21B6
ENCODING 8630
SWIDTH 1040 0
DWIDTH 13 0
BBX 11 9 0 1
BITMAP
0780
0840
1020
1020
1020
9200
5400
3800
1000
ENDCHAR
STARTCHAR 21B7
ENCODING 8631
SWIDTH 1040 0
DWIDTH 13 0
BBX 11 9 0 1
BITMAP
3C00
4200
8100
8100
8100
0920
0540
0380
0100
ENDCHAR
STARTCHAR 21B8
ENCODING 8632
SWIDTH 1040 0
DWIDTH 13 0
BBX 9 9 1 1
BITMAP
FF80
0000
F000
C000
A000
9000
0800
0400
0200
ENDCHAR
STARTCHAR 21B9
ENCODING 8633
SWIDTH 1040 0
DWIDTH 13 0
BBX 9 9 1 1
BITMAP
9000
A000
FF80
A000
9480
0280
FF80
0280
0480
ENDCHAR
STARTCHAR 21BA
ENCODING 8634
SWIDTH 1040 0
DWIDTH 13 0
BBX 9 10 1 1
BITMAP
0780
2600
4500
8480
8080
8080
8080
8080
4100
3E00
ENDCHAR
STARTCHAR 21BB
ENCODING 8635
SWIDTH 1040 0
DWIDTH 13 0
BBX 9 10 1 1
BITMAP
F000
3200
5100
9080
8080
8080
8080
8080
4100
3E00
ENDCHAR
STARTCHAR 21BC
ENCODING 8636
SWIDTH 1040 0
DWIDTH 13 0
BBX 9 4 1 5
BITMAP
1000
2000
4000
FF80
ENDCHAR
STARTCHAR 21BD
ENCODING 8637
SWIDTH 1040 0
DWIDTH 13 0
BBX 9 4 1 2
BITMAP
FF80
4000
2000
1000
ENDCHAR
STARTCHAR 21BE
ENCODING 8638
SWIDTH 1040 0
DWIDTH 13 0
BBX 4 9 5 1
BITMAP
80
C0
A0
90
80
80
80
80
80
ENDCHAR
STARTCHAR 21BF
ENCODING 8639
SWIDTH 1040 0
DWIDTH 13 0
BBX 4 9 2 1
BITMAP
10
30
50
90
10
10
10
10
10
ENDCHAR
STARTCHAR 21C0
ENCODING 8640
SWIDTH 1040 0
DWIDTH 13 0
BBX 9 4 1 5
BITMAP
0400
0200
0100
FF80
ENDCHAR
STARTCHAR 21C1
ENCODING 8641
SWIDTH 1040 0
DWIDTH 13 0
BBX 9 4 1 2
BITMAP
FF80
0100
0200
0400
ENDCHAR
STARTCHAR 21C2
ENCODING 8642
SWIDTH 1040 0
DWIDTH 13 0
BBX 4 9 5 1
BITMAP
80
80
80
80
80
90
A0
C0
80
ENDCHAR
STARTCHAR 21C3
ENCODING 8643
SWIDTH 1040 0
DWIDTH 13 0
BBX 4 9 2 1
BITMAP
10
10
10
10
10
90
50
30
10
ENDCHAR
STARTCHAR 21C4
ENCODING 8644
SWIDTH 1040 0
DWIDTH 13 0
BBX 9 9 1 1
BITMAP
0200
0100
FF80
0100
2200
4000
FF80
4000
2000
ENDCHAR
STARTCHAR 21C5
ENCODING 8645
SWIDTH 1040 0
DWIDTH 13 0
BBX 9 9 1 1
BITMAP
2200
7200
AA00
2200
2200
2200
2A80
2700
2200
ENDCHAR
STARTCHAR 21C6
ENCODING 8646
SWIDTH 1040 0
DWIDTH 13 0
BBX 9 9 1 1
BITMAP
2000
4000
FF80
4000
2200
0100
FF80
0100
0200
ENDCHAR
STARTCHAR 21C7
ENCODING 8647
SWIDTH 1040 0
DWIDTH 13 0
BBX 9 9 1 1
BITMAP
2000
4000
FF80
4000
2000
4000
FF80
4000
2000
ENDCHAR
STARTCHAR 21C8
ENCODING 8648
SWIDTH 1040 0
DWIDTH 13 0
BBX 9 9 1 1
BITMAP
2200
7700
AA80
2200
2200
2200
2200
2200
2200
ENDCHAR
STARTCHAR 21C9
ENCODING 8649
SWIDTH 1040 0
DWIDTH 13 0
BBX 9 9 1 1
BITMAP
0200
0100
FF80
0100
0200
0100
FF80
0100
0200
ENDCHAR
STARTCHAR 21CA
ENCODING 8650
SWIDTH 1040 0
DWIDTH 13 0
BBX 9 9 1 1
BITMAP
2200
2200
2200
2200
2200
2200
AA80
7700
2200
ENDCHAR
STARTCHAR 21CB
ENCODING 8651
SWIDTH 1040 0
DWIDTH 13 0
BBX 9 9 1 1
BITMAP
2000
4000
FF80
0000
0000
0000
FF80
0100
0200
ENDCHAR
STARTCHAR 21CC
ENCODING 8652
SWIDTH 1040 0
DWIDTH 13 0
BBX 9 9 1 1
BITMAP
0200
0100
FF80
0000
0000
0000
FF80
4000
2000
ENDCHAR
STARTCHAR 21CD
ENCODING 8653
SWIDTH 1040 0
DWIDTH 13 0
BBX 9 7 1 2
BITMAP
1000
2100
7F80
8200
7F80
2400
1000
ENDCHAR
STARTCHAR 21CE
ENCODING 8654
SWIDTH 1040 0
DWIDTH 13 0
BBX 11 7 0 2
BITMAP
1100
2280
7FC0
8420
7FC0
2880
1100
ENDCHAR
STARTCHAR 21CF
ENCODING 8655
SWIDTH 1040 0
DWIDTH 13 0
BBX 9 7 1 2
BITMAP
0400
1200
FF00
2080
FF00
4200
0400
ENDCHAR
STARTCHAR 21D0
ENCODING 8656
SWIDTH 1040 0
DWIDTH 13 0
BBX 9 7 1 2
BITMAP
1000
2000
7F80
8000
7F80
2000
1000
ENDCHAR
STARTCHAR 21D1
ENCODING 8657
SWIDTH 1040 0
DWIDTH 13 0
BBX 7 9 2 1
BITMAP
10
28
6C
AA
28
28
28
28
28
ENDCHAR
STARTCHAR 21D2
ENCODING 8658
SWIDTH 1040 0
DWIDTH 13 0
BBX 9 7 1 2
BITMAP
0400
0200
FF00
0080
FF00
0200
0400
ENDCHAR
STARTCHAR 21D3
ENCODING 8659
SWIDTH 1040 0
DWIDTH 13 0
BBX 7 9 2 1
BITMAP
28
28
28
28
28
AA
6C
28
10
ENDCHAR
STARTCHAR 21D4
ENCODING 8660
SWIDTH 1040 0
DWIDTH 13 0
BBX 11 7 0 2
BITMAP
1100
2080
7FC0
8020
7FC0
2080
1100
ENDCHAR
STARTCHAR 21D5
ENCODING 8661
SWIDTH 1040 0
DWIDTH 13 0
BBX 7 11 2 0
BITMAP
10
28
6C
AA
28
28
28
AA
6C
28
10
ENDCHAR
STARTCHAR 21D6
ENCODING 8662
SWIDTH 1040 0
DWIDTH 13 0
BBX 7 7 2 2
BITMAP
F8
A0
D0
A8
94
0A
04
ENDCHAR
STARTCHAR 21D7
ENCODING 8663
SWIDTH 1040 0
DWIDTH 13 0
BBX 7 7 2 2
BITMAP
3E
0A
16
2A
52
A0
40
ENDCHAR
STARTCHAR 21D8
ENCODING 8664
SWIDTH 1040 0
DWIDTH 13 0
BBX 7 7 2 2
BITMAP
40
A0
52
2A
16
0A
3E
ENDCHAR
STARTCHAR 21D9
ENCODING 8665
SWIDTH 1040 0
DWIDTH 13 0
BBX 7 7 2 2
BITMAP
04
0A
94
A8
D0
A0
F8
ENDCHAR
STARTCHAR 21DA
ENCODING 8666
SWIDTH 1040 0
DWIDTH 13 0
BBX 9 7 1 2
BITMAP
1000
3F80
4000
FF80
4000
3F80
1000
ENDCHAR
STARTCHAR 21DB
ENCODING 8667
SWIDTH 1040 0
DWIDTH 13 0
BBX 9 7 1 2
BITMAP
0400
FE00
0100
FF80
0100
FE00
0400
ENDCHAR
STARTCHAR 21DC
ENCODING 8668
SWIDTH 1040 0
DWIDTH 13 0
BBX 9 5 1 3
BITMAP
2000
4200
F580
4800
2000
ENDCHAR
STARTCHAR 21DD
ENCODING 8669
SWIDTH 1040 0
DWIDTH 13 0
BBX 9 5 1 3
BITMAP
0200
2100
D780
0900
0200
ENDCHAR
STARTCHAR 21DE
ENCODING 8670
SWIDTH 1040 0
DWIDTH 13 0
BBX 5 9 3 1
BITMAP
20
70
A8
20
F8
20
F8
20
20
ENDCHAR
STARTCHAR 21DF
ENCODING 8671
SWIDTH 1040 0
DWIDTH 13 0
BBX 5 9 3 1
BITMAP
20
20
F8
20
F8
20
A8
70
20
ENDCHAR
STARTCHAR 21E0
ENCODING 8672
SWIDTH 1040 0
DWIDTH 13 0
BBX 9 7 1 2
BITMAP
1000
2000
4000
EA80
4000
2000
1000
ENDCHAR
STARTCHAR 21E1
ENCODING 8673
SWIDTH 1040 0
DWIDTH 13 0
BBX 7 9 2 1
BITMAP
10
38
54
82
10
00
10
00
10
ENDCHAR
STARTCHAR 21E2
ENCODING 8674
SWIDTH 1040 0
DWIDTH 13 0
BBX 9 7 1 2
BITMAP
0400
0200
0100
AB80
0100
0200
0400
ENDCHAR
STARTCHAR 21E3
ENCODING 8675
SWIDTH 1040 0
DWIDTH 13 0
BBX 7 9 2 1
BITMAP
10
00
10
00
10
82
54
38
10
ENDCHAR
STARTCHAR 21E4
ENCODING 8676
SWIDTH 1040 0
DWIDTH 13 0
BBX 11 7 0 2
BITMAP
8800
9000
A000
FFE0
A000
9000
8800
ENDCHAR
STARTCHAR 21E5
ENCODING 8677
SWIDTH 1040 0
DWIDTH 13 0
BBX 11 7 0 2
BITMAP
0220
0120
00A0
FFE0
00A0
0120
0220
ENDCHAR
STARTCHAR 21E6
ENCODING 8678
SWIDTH 1040 0
DWIDTH 13 0
BBX 11 11 0 0
BITMAP
0400
0C00
1400
27E0
4020
8020
4020
27E0
1400
0C00
0400
ENDCHAR
STARTCHAR 21E7
ENCODING 8679
SWIDTH 1040 0
DWIDTH 13 0
BBX 11 11 0 0
BITMAP
0400
0A00
1100
2080
4040
F1E0
1100
1100
1100
1100
1F00
ENDCHAR
STARTCHAR 21E8
ENCODING 8680
SWIDTH 1040 0
DWIDTH 13 0
BBX 11 11 0 0
BITMAP
0400
0600
0500
FC80
8040
8020
8040
FC80
0500
0600
0400
ENDCHAR
STARTCHAR 21E9
ENCODING 8681
SWIDTH 1040 0
DWIDTH 13 0
BBX 11 11 0 0
BITMAP
1F00
1100
1100
1100
1100
F1E0
4040
2080
1100
0A00
0400
ENDCHAR
STARTCHAR 21EA
ENCODING 8682
SWIDTH 1040 0
DWIDTH 13 0
BBX 11 11 0 0
BITMAP
0400
0A00
1100
2080
4040
F1E0
1100
1100
1F00
0000
1F00
ENDCHAR
STARTCHAR 21EB
ENCODING 8683
SWIDTH 1040 0
DWIDTH 13 0
BBX 11 11 0 0
BITMAP
0400
0A00
1100
2080
4040
F1E0
1100
1100
1100
1100
FFE0
ENDCHAR
STARTCHAR 21EC
ENCODING 8684
SWIDTH 1040 0
DWIDTH 13 0
BBX 11 11 0 0
BITMAP
0400
0A00
1100
3F80
4040
F1E0
1100
1100
1100
1100
FFE0
ENDCHAR
STARTCHAR 21ED
ENCODING 8685
SWIDTH 1040 0
DWIDTH 13 0
BBX 11 11 0 0
BITMAP
0400
0E00
1500
2480
4440
F5E0
1500
1500
1500
1500
FFE0
ENDCHAR
STARTCHAR 21EE
ENCODING 8686
SWIDTH 1040 0
DWIDTH 13 0
BBX 11 11 0 0
BITMAP
0400
0A00
1500
2A80
5140
A0A0
4040
F1E0
1100
1100
1F00
ENDCHAR
STARTCHAR 21EF
ENCODING 8687
SWIDTH 1040 0
DWIDTH 13 0
BBX 11 11 0 0
BITMAP
0400
0A00
1500
2A80
5140
A0A0
4040
F1E0
1100
1100
FFE0
ENDCHAR
STARTCHAR 21F0
ENCODING 8688
SWIDTH 1040 0
DWIDTH 13 0
BBX 11 11 0 0
BITMAP
8400
8600
8500
FC80
8040
8020
8040
FC80
8500
8600
8400
ENDCHAR
STARTCHAR 21F1
ENCODING 8689
SWIDTH 1040 0
DWIDTH 13 0
BBX 9 9 1 1
BITMAP
FF80
8000
BC00
B000
A800
A400
8200
8100
8080
ENDCHAR
STARTCHAR 21F2
ENCODING 8690
SWIDTH 1040 0
DWIDTH 13 0
BBX 9 9 1 1
BITMAP
8080
4080
2080
1280
0A80
0680
1E80
0080
FF80
ENDCHAR
STARTCHAR 21F3
ENCODING 8691
SWIDTH 1040 0
DWIDTH 13 0
BBX 9 11 1 0
BITMAP
0800
1400
2200
4100
E380
2200
E380
4100
2200
1400
0800
ENDCHAR
STARTCHAR 21F4
ENCODING 8692
SWIDTH 1040 0
DWIDTH 13 0
BBX 11 5 0 3
BITMAP
1C80
2240
FFE0
2240
1C80
ENDCHAR
STARTCHAR 21F5
ENCODING 8693
SWIDTH 1040 0
DWIDTH 13 0
BBX 9 9 1 1
BITMAP
2200
2700
2A80
2200
2200
2200
AA00
7200
2200
ENDCHAR
STARTCHAR 21F6
ENCODING 8694
SWIDTH 1040 0
DWIDTH 13 0
BBX 9 11 1 0
BITMAP
0200
0100
FF80
0200
0100
FF80
0100
0200
FF80
0100
0200
ENDCHAR
STARTCHAR 21F7
ENCODING 8695
SWIDTH 1040 0
DWIDTH 13 0
BBX 9 5 1 3
BITMAP
2400
4400
FF80
4400
2400
ENDCHAR
STARTCHAR 21F8
ENCODING 8696
SWIDTH 1040 0
DWIDTH 13 0
BBX 9 5 1 3
BITMAP
1200
1100
FF80
1100
1200
ENDCHAR
STARTCHAR 21F9
ENCODING 8697
SWIDTH 1040 0
DWIDTH 13 0
BBX 11 5 0 3
BITMAP
2480
4440
FFE0
4440
2480
ENDCHAR
STARTCHAR 21FA
ENCODING 8698
SWIDTH 1040 0
DWIDTH 13 0
BBX 9 5 1 3
BITMAP
2A00
4A00
FF80
4A00
2A00
ENDCHAR
STARTCHAR 21FB
ENCODING 8699
SWIDTH 1040 0
DWIDTH 13 0
BBX 9 5 1 3
BITMAP
2A00
2900
FF80
2900
2A00
ENDCHAR
STARTCHAR 21FC
ENCODING 8700
SWIDTH 1040 0
DWIDTH 13 0
BBX 11 5 0 3
BITMAP
2A80
4A40
FFE0
4A40
2A80
ENDCHAR
STARTCHAR 21FD
ENCODING 8701
SWIDTH 1040 0
DWIDTH 13 0
BBX 9 7 1 2
BITMAP
1000
3000
5000
9F80
5000
3000
1000
ENDCHAR
STARTCHAR 21FE
ENCODING 8702
SWIDTH 1040 0
DWIDTH 13 0
BBX 9 7 1 2
BITMAP
0400
0600
0500
FC80
0500
0600
0400
ENDCHAR
STARTCHAR 21FF
ENCODING 8703
SWIDTH 1040 0
DWIDTH 13 0
BBX 11 7 0 2
BITMAP
1100
3180
5140
9F20
5140
3180
1100
ENDCHAR
STARTCHAR 2200
ENCODING 8704
SWIDTH 1040 0
DWIDTH 13 0
BBX 11 11 0 0
BITMAP
8020
8020
4040
4040
3F80
2080
1100
1100
0A00
0A00
0400
ENDCHAR
STARTCHAR 2202
ENCODING 8706
SWIDTH 1040 0
DWIDTH 13 0
BBX 6 10 2 1
BITMAP
38
44
04
04
34
48
88
88
90
60
ENDCHAR
STARTCHAR 2203
ENCODING 8707
SWIDTH 1040 0
DWIDTH 13 0
BBX 10 9 0 1
BITMAP
FFC0
0040
0040
0040
FFC0
0040
0040
0040
FFC0
ENDCHAR
STARTCHAR 2205
ENCODING 8709
SWIDTH 1040 0
DWIDTH 13 0
BBX 9 9 1 1
BITMAP
3E80
4100
8280
8480
8880
9080
A080
4100
BE00
ENDCHAR
STARTCHAR 2206
ENCODING 8710
SWIDTH 1040 0
DWIDTH 13 0
BBX 11 11 0 0
BITMAP
0400
0A00
0A00
1100
1100
2080
2080
4040
4040
8020
FFE0
ENDCHAR
STARTCHAR 2207
ENCODING 8711
SWIDTH 1040 0
DWIDTH 13 0
BBX 11 11 0 0
BITMAP
FFE0
8020
4040
4040
2080
2080
1100
1100
0A00
0A00
0400
ENDCHAR
STARTCHAR 2208
ENCODING 8712
SWIDTH 1040 0
DWIDTH 13 0
BBX 9 9 1 1
BITMAP
3F80
4000
8000
8000
FF80
8000
8000
4000
3F80
ENDCHAR
STARTCHAR 220B
ENCODING 8715
SWIDTH 1040 0
DWIDTH 13 0
BBX 9 9 1 1
BITMAP
FE00
0100
0080
0080
FF80
0080
0080
0100
FE00
ENDCHAR
STARTCHAR 220F
ENCODING 8719
SWIDTH 1040 0
DWIDTH 13 0
BBX 8 11 2 0
BITMAP
FF
42
42
42
42
42
42
42
42
42
42
ENDCHAR
STARTCHAR 2210
ENCODING 8720
SWIDTH 1040 0
DWIDTH 13 0
BBX 8 11 2 0
BITMAP
42
42
42
42
42
42
42
42
42
42
FF
ENDCHAR
STARTCHAR 2211
ENCODING 8721
SWIDTH 1040 0
DWIDTH 13 0
BBX 8 11 2 0
BITMAP
FF
40
20
10
08
04
08
10
20
40
FF
ENDCHAR
STARTCHAR 221A
ENCODING 8730
SWIDTH 1040 0
DWIDTH 13 0
BBX 11 11 0 0
BITMAP
03E0
0200
0200
0400
0400
0400
0800
8800
4800
3000
1000
ENDCHAR
STARTCHAR 221D
ENCODING 8733
SWIDTH 1040 0
DWIDTH 13 0
BBX 10 5 0 3
BITMAP
71C0
8A00
8400
8A00
71C0
ENDCHAR
STARTCHAR 221E
ENCODING 8734
SWIDTH 1040 0
DWIDTH 13 0
BBX 11 5 0 3
BITMAP
71C0
8A20
8420
8A20
71C0
ENDCHAR
STARTCHAR 221F
ENCODING 8735
SWIDTH 1040 0
DWIDTH 13 0
BBX 9 9 1 1
BITMAP
8000
8000
8000
8000
8000
8000
8000
8000
FF80
ENDCHAR
STARTCHAR 2220
ENCODING 8736
SWIDTH 1040 0
DWIDTH 13 0
BBX 9 8 1 1
BITMAP
0100
0200
0400
0800
1000
2000
4000
FF80
ENDCHAR
STARTCHAR 2223
ENCODING 8739
SWIDTH 1040 0
DWIDTH 13 0
BBX 1 11 5 0
BITMAP
80
80
80
80
80
80
80
80
80
80
80
ENDCHAR
STARTCHAR 2224
ENCODING 8740
SWIDTH 1040 0
DWIDTH 13 0
BBX 5 11 3 0
BITMAP
20
20
20
28
30
20
60
A0
20
20
20
ENDCHAR
STARTCHAR 2225
ENCODING 8741
SWIDTH 1040 0
DWIDTH 13 0
BBX 4 11 3 0
BITMAP
90
90
90
90
90
90
90
90
90
90
90
ENDCHAR
STARTCHAR 2226
ENCODING 8742
SWIDTH 1040 0
DWIDTH 13 0
BBX 8 11 1 0
BITMAP
24
24
24
24
27
3C
E4
24
24
24
24
ENDCHAR
STARTCHAR 2227
ENCODING 8743
SWIDTH 1040 0
DWIDTH 13 0
BBX 9 9 1 1
BITMAP
0800
0800
1400
1400
2200
2200
4100
4100
8080
ENDCHAR
STARTCHAR 2228
ENCODING 8744
SWIDTH 1040 0
DWIDTH 13 0
BBX 9 9 1 1
BITMAP
8080
4100
4100
2200
2200
1400
1400
0800
0800
ENDCHAR
STARTCHAR 2229
ENCODING 8745
SWIDTH 1040 0
DWIDTH 13 0
BBX 9 9 1 1
BITMAP
3E00
4100
8080
8080
8080
8080
8080
8080
8080
ENDCHAR
STARTCHAR 222A
ENCODING 8746
SWIDTH 1040 0
DWIDTH 13 0
BBX 9 9 1 1
BITMAP
8080
8080
8080
8080
8080
8080
8080
4100
3E00
ENDCHAR
STARTCHAR 222B
ENCODING 8747
SWIDTH 1040 0
DWIDTH 13 0
BBX 5 11 3 0
BITMAP
10
28
20
20
20
20
20
20
20
A0
40
ENDCHAR
STARTCHAR 222C
ENCODING 8748
SWIDTH 1040 0
DWIDTH 13 0
BBX 8 11 1 0
BITMAP
12
2D
24
24
24
24
24
24
24
B4
48
ENDCHAR
STARTCHAR 222D
ENCODING 8749
SWIDTH 1040 0
DWIDTH 13 0
BBX 9 11 1 0
BITMAP
1500
2A80
2A00
2A00
2A00
2A00
2A00
2A00
2A00
AA00
5400
ENDCHAR
STARTCHAR 222E
ENCODING 8750
SWIDTH 1040 0
DWIDTH 13 0
BBX 5 11 3 0
BITMAP
10
28
20
70
A8
A8
70
20
20
A0
40
ENDCHAR
STARTCHAR 222F
ENCODING 8751
SWIDTH 1040 0
DWIDTH 13 0
BBX 9 11 1 0
BITMAP
1200
2D00
2400
7F00
A480
A480
7F00
2400
2400
B400
4800
ENDCHAR
STARTCHAR 2230
ENCODING 8752
SWIDTH 1040 0
DWIDTH 13 0
BBX 9 11 1 0
BITMAP
1500
2A80
2A00
7F00
AA80
AA80
7F00
2A00
2A00
AA00
5400
ENDCHAR
STARTCHAR 2234
ENCODING 8756
SWIDTH 1040 0
DWIDTH 13 0
BBX 10 10 0 1
BITMAP
0C00
0C00
0000
0000
0000
0000
0000
0000
C0C0
C0C0
ENDCHAR
STARTCHAR 2235
ENCODING 8757
SWIDTH 1040 0
DWIDTH 13 0
BBX 10 10 0 0
BITMAP
C0C0
C0C0
0000
0000
0000
0000
0000
0000
0C00
0C00
ENDCHAR
STARTCHAR 2236
ENCODING 8758
SWIDTH 1040 0
DWIDTH 13 0
BBX 2 9 4 1
BITMAP
C0
C0
00
00
00
00
00
C0
C0
ENDCHAR
STARTCHAR 2237
ENCODING 8759
SWIDTH 1040 0
DWIDTH 13 0
BBX 9 9 1 1
BITMAP
C180
C180
0000
0000
0000
0000
0000
C180
C180
ENDCHAR
STARTCHAR 223D
ENCODING 8765
SWIDTH 1040 0
DWIDTH 13 0
BBX 11 5 0 3
BITMAP
71C0
8220
8420
8820
71C0
ENDCHAR
STARTCHAR 2252
ENCODING 8786
SWIDTH 1040 0
DWIDTH 13 0
BBX 9 8 1 2
BITMAP
6000
0000
FF80
0000
0000
FF80
0000
0300
ENDCHAR
STARTCHAR 2260
ENCODING 8800
SWIDTH 1040 0
DWIDTH 13 0
BBX 9 8 1 2
BITMAP
0400
0400
FF80
0800
0800
FF80
1000
1000
ENDCHAR
STARTCHAR 2261
ENCODING 8801
SWIDTH 1040 0
DWIDTH 13 0
BBX 9 7 1 2
BITMAP
FF80
0000
0000
FF80
0000
0000
FF80
ENDCHAR
STARTCHAR 2264
ENCODING 8804
SWIDTH 1040 0
DWIDTH 13 0
BBX 9 9 1 1
BITMAP
0180
0E00
3000
C000
3000
0E00
0180
0000
FF80
ENDCHAR
STARTCHAR 2265
ENCODING 8805
SWIDTH 1040 0
DWIDTH 13 0
BBX 9 9 1 1
BITMAP
C000
3800
0600
0180
0600
3800
C000
0000
FF80
ENDCHAR
STARTCHAR 2266
ENCODING 8806
SWIDTH 1040 0
DWIDTH 13 0
BBX 9 9 1 1
BITMAP
0380
1C00
E000
1C00
0380
0000
FF80
0000
FF80
ENDCHAR
STARTCHAR 2267
ENCODING 8807
SWIDTH 1040 0
DWIDTH 13 0
BBX 9 9 1 1
BITMAP
E000
1C00
0380
1C00
E000
0000
FF80
0000
FF80
ENDCHAR
STARTCHAR 226A
ENCODING 8810
SWIDTH 1040 0
DWIDTH 13 0
BBX 8 9 1 1
BITMAP
09
12
24
48
90
48
24
12
09
ENDCHAR
STARTCHAR 226B
ENCODING 8811
SWIDTH 1040 0
DWIDTH 13 0
BBX 8 9 2 1
BITMAP
90
48
24
12
09
12
24
48
90
ENDCHAR
STARTCHAR 2282
ENCODING 8834
SWIDTH 1040 0
DWIDTH 13 0
BBX 9 9 1 1
BITMAP
3F80
4000
8000
8000
8000
8000
8000
4000
3F80
ENDCHAR
STARTCHAR 2283
ENCODING 8835
SWIDTH 1040 0
DWIDTH 13 0
BBX 9 9 1 1
BITMAP
FE00
0100
0080
0080
0080
0080
0080
0100
FE00
ENDCHAR
STARTCHAR 2286
ENCODING 8838
SWIDTH 1040 0
DWIDTH 13 0
BBX 9 9 1 1
BITMAP
3F80
4000
8000
8000
8000
4000
3F80
0000
FF80
ENDCHAR
STARTCHAR 2287
ENCODING 8839
SWIDTH 1040 0
DWIDTH 13 0
BBX 9 9 1 1
BITMAP
FE00
0100
0080
0080
0080
0100
FE00
0000
FF80
ENDCHAR
STARTCHAR 22A4
ENCODING 8868
SWIDTH 1040 0
DWIDTH 13 0
BBX 9 8 1 1
BITMAP
FF80
0800
0800
0800
0800
0800
0800
0800
ENDCHAR
STARTCHAR 22A5
ENCODING 8869
SWIDTH 1040 0
DWIDTH 13 0
BBX 9 8 1 1
BITMAP
0800
0800
0800
0800
0800
0800
0800
FF80
ENDCHAR
STARTCHAR 22BF
ENCODING 8895
SWIDTH 1040 0
DWIDTH 13 0
BBX 9 9 1 1
BITMAP
0080
0180
0280
0480
0880
1080
2080
4080
FF80
ENDCHAR
STARTCHAR 2460
ENCODING 9312
SWIDTH 1040 0
DWIDTH 13 0
BBX 11 11 0 0
BITMAP
1F00
2080
4440
8C20
8420
8420
8420
8420
4E40
2080
1F00
ENDCHAR
STARTCHAR 2461
ENCODING 9313
SWIDTH 1040 0
DWIDTH 13 0
BBX 11 11 0 0
BITMAP
1F00
2080
4E40
9120
8120
8220
8420
8820
5F40
2080
1F00
ENDCHAR
STARTCHAR 2462
ENCODING 9314
SWIDTH 1040 0
DWIDTH 13 0
BBX 11 11 0 0
BITMAP
1F00
2080
4E40
9120
8120
8620
8120
9120
4E40
2080
1F00
ENDCHAR
STARTCHAR 2463
ENCODING 9315
SWIDTH 1040 0
DWIDTH 13 0
BBX 11 11 0 0
BITMAP
1F00
2080
4240
8620
8A20
9220
BF20
8220
4240
2080
1F00
ENDCHAR
STARTCHAR 2464
ENCODING 9316
SWIDTH 1040 0
DWIDTH 13 0
BBX 11 11 0 0
BITMAP
1F00
2080
5F40
9020
9E20
9120
8120
9120
4E40
2080
1F00
ENDCHAR
STARTCHAR 2465
ENCODING 9317
SWIDTH 1040 0
DWIDTH 13 0
BBX 11 11 0 0
BITMAP
1F00
2080
4E40
9120
9020
9E20
9120
9120
4E40
2080
1F00
ENDCHAR
STARTCHAR 2466
ENCODING 9318
SWIDTH 1040 0
DWIDTH 13 0
BBX 11 11 0 0
BITMAP
1F00
2080
5F40
8120
8220
8220
8420
8420
4440
2080
1F00
ENDCHAR
STARTCHAR 2467
ENCODING 9319
SWIDTH 1040 0
DWIDTH 13 0
BBX 11 11 0 0
BITMAP
1F00
2080
4E40
9120
9120
8E20
9120
9120
4E40
2080
1F00
ENDCHAR
STARTCHAR 2468
ENCODING 9320
SWIDTH 1040 0
DWIDTH 13 0
BBX 11 11 0 0
BITMAP
1F00
2080
4E40
9120
9120
8F20
8120
9120
4E40
2080
1F00
ENDCHAR
STARTCHAR 2469
ENCODING 9321
SWIDTH 1040 0
DWIDTH 13 0
BBX 11 11 0 0
BITMAP
1F00
2080
5340
B4A0
94A0
94A0
94A0
94A0
5340
2080
1F00
ENDCHAR
STARTCHAR 246A
ENCODING 9322
SWIDTH 1040 0
DWIDTH 13 0
BBX 11 11 0 0
BITMAP
1F00
2080
5140
B320
9120
9120
9120
9120
5140
2080
1F00
ENDCHAR
STARTCHAR 246B
ENCODING 9323
SWIDTH 1040 0
DWIDTH 13 0
BBX 11 11 0 0
BITMAP
1F00
2080
5340
B4A0
90A0
9120
9220
9420
57C0
2080
1F00
ENDCHAR
STARTCHAR 246C
ENCODING 9324
SWIDTH 1040 0
DWIDTH 13 0
BBX 11 11 0 0
BITMAP
1F00
2080
5340
B4A0
90A0
9320
90A0
94A0
5340
2080
1F00
ENDCHAR
STARTCHAR 246D
ENCODING 9325
SWIDTH 1040 0
DWIDTH 13 0
BBX 11 11 0 0
BITMAP
1F00
2080
5140
B320
9520
9520
97A0
9120
5140
2080
1F00
ENDCHAR
STARTCHAR 246E
ENCODING 9326
SWIDTH 1040 0
DWIDTH 13 0
BBX 11 11 0 0
BITMAP
1F00
2080
57C0
B420
9720
94A0
90A0
94A0
5340
2080
1F00
ENDCHAR
STARTCHAR 246F
ENCODING 9327
SWIDTH 1040 0
DWIDTH 13 0
BBX 11 11 0 0
BITMAP
1F00
2080
5340
B4A0
9420
9720
94A0
94A0
5340
2080
1F00
ENDCHAR
STARTCHAR 2470
ENCODING 9328
SWIDTH 1040 0
DWIDTH 13 0
BBX 11 11 0 0
BITMAP
1F00
2080
57C0
B0A0
9120
9120
9220
9220
5240
2080
1F00
ENDCHAR
STARTCHAR 2471
ENCODING 9329
SWIDTH 1040 0
DWIDTH 13 0
BBX 11 11 0 0
BITMAP
1F00
2080
5340
B4A0
94A0
9320
94A0
94A0
5340
2080
1F00
ENDCHAR
STARTCHAR 2472
ENCODING 9330
SWIDTH 1040 0
DWIDTH 13 0
BBX 11 11 0 0
BITMAP
1F00
2080
5340
B4A0
94A0
93A0
90A0
94A0
5340
2080
1F00
ENDCHAR
STARTCHAR 2473
ENCODING 9331
SWIDTH 1040 0
DWIDTH 13 0
BBX 11 11 0 0
BITMAP
1F00
2080
5140
AAA0
8AA0
92A0
92A0
A2A0
7940
2080
1F00
ENDCHAR
STARTCHAR 24B6
ENCODING 9398
SWIDTH 1040 0
DWIDTH 13 0
BBX 11 11 0 0
BITMAP
1F00
2080
4440
8A20
9120
9120
9F20
9120
5140
2080
1F00
ENDCHAR
STARTCHAR 24B7
ENCODING 9399
SWIDTH 1040 0
DWIDTH 13 0
BBX 11 11 0 0
BITMAP
1F00
2080
5E40
9120
9120
9E20
9120
9120
5E40
2080
1F00
ENDCHAR
STARTCHAR 24B8
ENCODING 9400
SWIDTH 1040 0
DWIDTH 13 0
BBX 11 11 0 0
BITMAP
1F00
2080
4E40
9120
9020
9020
9020
9120
4E40
2080
1F00
ENDCHAR
STARTCHAR 24B9
ENCODING 9401
SWIDTH 1040 0
DWIDTH 13 0
BBX 11 11 0 0
BITMAP
1F00
2080
5E40
9120
9120
9120
9120
9120
5E40
2080
1F00
ENDCHAR
STARTCHAR 24BA
ENCODING 9402
SWIDTH 1040 0
DWIDTH 13 0
BBX 11 11 0 0
BITMAP
1F00
2080
5F40
9020
9020
9E20
9020
9020
5F40
2080
1F00
ENDCHAR
STARTCHAR 24BB
ENCODING 9403
SWIDTH 1040 0
DWIDTH 13 0
BBX 11 11 0 0
BITMAP
1F00
2080
5F40
9020
9020
9E20
9020
9020
5040
2080
1F00
ENDCHAR
STARTCHAR 24BC
ENCODING 9404
SWIDTH 1040 0
DWIDTH 13 0
BBX 11 11 0 0
BITMAP
1F00
2080
4E40
9120
9020
9720
9120
9120
4E40
2080
1F00
ENDCHAR
STARTCHAR 24BD
ENCODING 9405
SWIDTH 1040 0
DWIDTH 13 0
BBX 11 11 0 0
BITMAP
1F00
2080
5140
9120
9120
9F20
9120
9120
5140
2080
1F00
ENDCHAR
STARTCHAR 24BE
ENCODING 9406
SWIDTH 1040 0
DWIDTH 13 0
BBX 11 11 0 0
BITMAP
1F00
2080
4E40
8420
8420
8420
8420
8420
4E40
2080
1F00
ENDCHAR
STARTCHAR 24BF
ENCODING 9407
SWIDTH 1040 0
DWIDTH 13 0
BBX 11 11 0 0
BITMAP
1F00
2080
4140
8120
8120
8120
9120
9120
4E40
2080
1F00
ENDCHAR
STARTCHAR 24C0
ENCODING 9408
SWIDTH 1040 0
DWIDTH 13 0
BBX 11 11 0 0
BITMAP
1F00
2080
5140
9220
9420
9820
9420
9220
5140
2080
1F00
ENDCHAR
STARTCHAR 24C1
ENCODING 9409
SWIDTH 1040 0
DWIDTH 13 0
BBX 11 11 0 0
BITMAP
1F00
2080
5040
9020
9020
9020
9020
9020
5F40
2080
1F00
ENDCHAR
STARTCHAR 24C2
ENCODING 9410
SWIDTH 1040 0
DWIDTH 13 0
BBX 11 11 0 0
BITMAP
1F00
2080
60C0
B1A0
B1A0
AAA0
AAA0
A4A0
64C0
2080
1F00
ENDCHAR
STARTCHAR 24C3
ENCODING 9411
SWIDTH 1040 0
DWIDTH 13 0
BBX 11 11 0 0
BITMAP
1F00
2080
5140
9920
9920
9520
9320
9320
5140
2080
1F00
ENDCHAR
STARTCHAR 24C4
ENCODING 9412
SWIDTH 1040 0
DWIDTH 13 0
BBX 11 11 0 0
BITMAP
1F00
2080
4E40
9120
9120
9120
9120
9120
4E40
2080
1F00
ENDCHAR
STARTCHAR 24C5
ENCODING 9413
SWIDTH 1040 0
DWIDTH 13 0
BBX 11 11 0 0
BITMAP
1F00
2080
5E40
9120
9120
9E20
9020
9020
5040
2080
1F00
ENDCHAR
STARTCHAR 24C6
ENCODING 9414
SWIDTH 1040 0
DWIDTH 13 0
BBX 11 11 0 0
BITMAP
1F00
2080
4E40
9120
9120
9120
9120
9520
4E40
2180
1F00
ENDCHAR
STARTCHAR 24C7
ENCODING 9415
SWIDTH 1040 0
DWIDTH 13 0
BBX 11 11 0 0
BITMAP
1F00
2080
5E40
9120
9120
9E20
9220
9120
5140
2080
1F00
ENDCHAR
STARTCHAR 24C8
ENCODING 9416
SWIDTH 1040 0
DWIDTH 13 0
BBX 11 11 0 0
BITMAP
1F00
2080
4E40
9120
9020
8E20
8120
9120
4E40
2080
1F00
ENDCHAR
STARTCHAR 24C9
ENCODING 9417
SWIDTH 1040 0
DWIDTH 13 0
BBX 11 11 0 0
BITMAP
1F00
2080
5F40
8420
8420
8420
8420
8420
4440
2080
1F00
ENDCHAR
STARTCHAR 24CA
ENCODING 9418
SWIDTH 1040 0
DWIDTH 13 0
BBX 11 11 0 0
BITMAP
1F00
2080
5140
9120
9120
9120
9120
9120
4E40
2080
1F00
ENDCHAR
STARTCHAR 24CB
ENCODING 9419
SWIDTH 1040 0
DWIDTH 13 0
BBX 11 11 0 0
BITMAP
1F00
2080
5140
9120
9120
8A20
8A20
8420
4440
2080
1F00
ENDCHAR
STARTCHAR 24CC
ENCODING 9420
SWIDTH 1040 0
DWIDTH 13 0
BBX 11 11 0 0
BITMAP
1F00
2080
60C0
A4A0
A4A0
AAA0
AAA0
9120
5140
2080
1F00
ENDCHAR
STARTCHAR 24CD
ENCODING 9421
SWIDTH 1040 0
DWIDTH 13 0
BBX 11 11 0 0
BITMAP
1F00
2080
5140
9120
8A20
8420
8A20
9120
5140
2080
1F00
ENDCHAR
STARTCHAR 24CE
ENCODING 9422
SWIDTH 1040 0
DWIDTH 13 0
BBX 11 11 0 0
BITMAP
1F00
2080
5140
9120
9120
8A20
8420
8420
4440
2080
1F00
ENDCHAR
STARTCHAR 24CF
ENCODING 9423
SWIDTH 1040 0
DWIDTH 13 0
BBX 11 11 0 0
BITMAP
1F00
2080
5F40
8120
8220
8420
8820
9020
5F40
2080
1F00
ENDCHAR
STARTCHAR 24EA
ENCODING 9450
SWIDTH 1040 0
DWIDTH 13 0
BBX 11 11 0 0
BITMAP
1F00
2080
4E40
9120
9120
9120
9120
9120
4E40
2080
1F00
ENDCHAR
STARTCHAR 24EB
ENCODING 9451
SWIDTH 1040 0
DWIDTH 13 0
BBX 11 11 0 0
BITMAP
1F00
7FC0
6EC0
CCE0
EEE0
EEE0
EEE0
EEE0
6EC0
7FC0
1F00
ENDCHAR
STARTCHAR 24EC
ENCODING 9452
SWIDTH 1040 0
DWIDTH 13 0
BBX 11 11 0 0
BITMAP
1F00
7FC0
6CC0
CB60
EF60
EEE0
EDE0
EBE0
6840
7FC0
1F00
ENDCHAR
STARTCHAR 24ED
ENCODING 9453
SWIDTH 1040 0
DWIDTH 13 0
BBX 11 11 0 0
BITMAP
1F00
7FC0
6CC0
CB60
EF60
ECE0
EF60
EB60
6CC0
7FC0
1F00
ENDCHAR
STARTCHAR 24EE
ENCODING 9454
SWIDTH 1040 0
DWIDTH 13 0
BBX 11 11 0 0
BITMAP
1F00
7FC0
6EC0
CCE0
EAE0
EAE0
E860
EEE0
6EC0
7FC0
1F00
ENDCHAR
STARTCHAR 24EF
ENCODING 9455
SWIDTH 1040 0
DWIDTH 13 0
BBX 11 11 0 0
BITMAP
1F00
7FC0
6840
CBE0
E8E0
EB60
EF60
EB60
6CC0
7FC0
1F00
ENDCHAR
STARTCHAR 24F0
ENCODING 9456
SWIDTH 1040 0
DWIDTH 13 0
BBX 11 11 0 0
BITMAP
1F00
7FC0
6CC0
CB60
EBE0
E8E0
EB60
EB60
6CC0
7FC0
1F00
ENDCHAR
STARTCHAR 24F1
ENCODING 9457
SWIDTH 1040 0
DWIDTH 13 0
BBX 11 11 0 0
BITMAP
1F00
7FC0
6840
CF60
EEE0
EEE0
EDE0
EDE0
6DC0
7FC0
1F00
ENDCHAR
STARTCHAR 24F2
ENCODING 9458
SWIDTH 1040 0
DWIDTH 13 0
BBX 11 11 0 0
BITMAP
1F00
7FC0
6CC0
CB60
EB60
ECE0
EB60
EB60
6CC0
7FC0
1F00
ENDCHAR
STARTCHAR 24F3
ENCODING 9459
SWIDTH 1040 0
DWIDTH 13 0
BBX 11 11 0 0
BITMAP
1F00
7FC0
6CC0
CB60
EB60
EC60
EF60
EB60
6CC0
7FC0
1F00
ENDCHAR
STARTCHAR 24F4
ENCODING 9460
SWIDTH 1040 0
DWIDTH 13 0
BBX 11 11 0 0
BITMAP
1F00
7FC0
6EC0
D560
F560
ED60
ED60
DD60
46C0
7FC0
1F00
ENDCHAR
STARTCHAR 24FF
ENCODING 9471
SWIDTH 1040 0
DWIDTH 13 0
BBX 11 11 0 0
BITMAP
1F00
7FC0
71C0
EEE0
EEE0
EEE0
EEE0
EEE0
71C0
7FC0
1F00
ENDCHAR
STARTCHAR 2500
ENCODING 9472
SWIDTH 1040 0
DWIDTH 13 0
BBX 13 1 0 5
BITMAP
FFF8
ENDCHAR
STARTCHAR 2501
ENCODING 9473
SWIDTH 1040 0
DWIDTH 13 0
BBX 13 2 0 5
BITMAP
FFF8
FFF8
ENDCHAR
STARTCHAR 2502
ENCODING 9474
SWIDTH 1040 0
DWIDTH 13 0
BBX 1 13 5 0
BITMAP
80
80
80
80
80
80
80
80
80
80
80
80
80
ENDCHAR
STARTCHAR 2503
ENCODING 9475
SWIDTH 1040 0
DWIDTH 13 0
BBX 2 13 5 0
BITMAP
C0
C0
C0
C0
C0
C0
C0
C0
C0
C0
C0
C0
C0
ENDCHAR
STARTCHAR 2504
ENCODING 9476
SWIDTH 1040 0
DWIDTH 13 0
BBX 11 1 0 5
BITMAP
EEE0
ENDCHAR
STARTCHAR 2505
ENCODING 9477
SWIDTH 1040 0
DWIDTH 13 0
BBX 11 2 0 5
BITMAP
EEE0
EEE0
ENDCHAR
STARTCHAR 2506
ENCODING 9478
SWIDTH 1040 0
DWIDTH 13 0
BBX 1 11 5 0
BITMAP
80
80
80
00
80
80
80
00
80
80
80
ENDCHAR
STARTCHAR 2507
ENCODING 9479
SWIDTH 1040 0
DWIDTH 13 0
BBX 2 11 5 0
BITMAP
C0
C0
C0
00
C0
C0
C0
00
C0
C0
C0
ENDCHAR
STARTCHAR 2508
ENCODING 9480
SWIDTH 1040 0
DWIDTH 13 0
BBX 11 1 0 5
BITMAP
DB60
ENDCHAR
STARTCHAR 2509
ENCODING 9481
SWIDTH 1040 0
DWIDTH 13 0
BBX 11 2 0 5
BITMAP
DB60
DB60
ENDCHAR
STARTCHAR 250A
ENCODING 9482
SWIDTH 1040 0
DWIDTH 13 0
BBX 1 11 5 0
BITMAP
80
80
00
80
80
00
80
80
00
80
80
ENDCHAR
STARTCHAR 250B
ENCODING 9483
SWIDTH 1040 0
DWIDTH 13 0
BBX 2 11 5 0
BITMAP
C0
C0
00
C0
C0
00
C0
C0
00
C0
C0
ENDCHAR
STARTCHAR 250C
ENCODING 9484
SWIDTH 1040 0
DWIDTH 13 0
BBX 7 6 5 0
BITMAP
FE
80
80
80
80
80
ENDCHAR
STARTCHAR 250D
ENCODING 9485
SWIDTH 1040 0
DWIDTH 13 0
BBX 7 7 5 0
BITMAP
FE
FE
80
80
80
80
80
ENDCHAR
STARTCHAR 250E
ENCODING 9486
SWIDTH 1040 0
DWIDTH 13 0
BBX 7 6 5 0
BITMAP
FE
C0
C0
C0
C0
C0
ENDCHAR
STARTCHAR 250F
ENCODING 9487
SWIDTH 1040 0
DWIDTH 13 0
BBX 7 7 5 0
BITMAP
FE
FE
C0
C0
C0
C0
C0
ENDCHAR
STARTCHAR 2510
ENCODING 9488
SWIDTH 1040 0
DWIDTH 13 0
BBX 6 6 0 0
BITMAP
FC
04
04
04
04
04
ENDCHAR
STARTCHAR 2511
ENCODING 9489
SWIDTH 1040 0
DWIDTH 13 0
BBX 6 7 0 0
BITMAP
FC
FC
04
04
04
04
04
ENDCHAR
STARTCHAR 2512
ENCODING 9490
SWIDTH 1040 0
DWIDTH 13 0
BBX 7 6 0 0
BITMAP
FE
06
06
06
06
06
ENDCHAR
STARTCHAR 2513
ENCODING 9491
SWIDTH 1040 0
DWIDTH 13 0
BBX 7 7 0 0
BITMAP
FE
FE
06
06
06
06
06
ENDCHAR
STARTCHAR 2514
ENCODING 9492
SWIDTH 1040 0
DWIDTH 13 0
BBX 7 7 5 5
BITMAP
80
80
80
80
80
80
FE
ENDCHAR
STARTCHAR 2515
ENCODING 9493
SWIDTH 1040 0
DWIDTH 13 0
BBX 7 7 5 5
BITMAP
80
80
80
80
80
FE
FE
ENDCHAR
STARTCHAR 2516
ENCODING 9494
SWIDTH 1040 0
DWIDTH 13 0
BBX 7 7 5 5
BITMAP
C0
C0
C0
C0
C0
C0
FE
ENDCHAR
STARTCHAR 2517
ENCODING 9495
SWIDTH 1040 0
DWIDTH 13 0
BBX 7 7 5 5
BITMAP
C0
C0
C0
C0
C0
FE
FE
ENDCHAR
STARTCHAR 2518
ENCODING 9496
SWIDTH 1040 0
DWIDTH 13 0
BBX 6 7 0 5
BITMAP
04
04
04
04
04
04
FC
ENDCHAR
STARTCHAR 2519
ENCODING 9497
SWIDTH 1040 0
DWIDTH 13 0
BBX 6 7 0 5
BITMAP
04
04
04
04
04
FC
FC
ENDCHAR
STARTCHAR 251A
ENCODING 9498
SWIDTH 1040 0
DWIDTH 13 0
BBX 7 7 0 5
BITMAP
06
06
06
06
06
06
FE
ENDCHAR
STARTCHAR 251B
ENCODING 9499
SWIDTH 1040 0
DWIDTH 13 0
BBX 7 7 0 5
BITMAP
06
06
06
06
06
FE
FE
ENDCHAR
STARTCHAR 251C
ENCODING 9500
SWIDTH 1040 0
DWIDTH 13 0
BBX 7 13 5 0
BITMAP
80
80
80
80
80
80
80
FE
80
80
80
80
80
ENDCHAR
STARTCHAR 251D
ENCODING 9501
SWIDTH 1040 0
DWIDTH 13 0
BBX 7 13 5 0
BITMAP
80
80
80
80
80
80
FE
FE
80
80
80
80
80
ENDCHAR
STARTCHAR 251E
ENCODING 9502
SWIDTH 1040 0
DWIDTH 13 0
BBX 7 12 5 0
BITMAP
C0
C0
C0
C0
C0
C0
FE
80
80
80
80
80
ENDCHAR
STARTCHAR 251F
ENCODING 9503
SWIDTH 1040 0
DWIDTH 13 0
BBX 7 12 5 0
BITMAP
80
80
80
80
80
80
FE
C0
C0
C0
C0
C0
ENDCHAR
STARTCHAR 2520
ENCODING 9504
SWIDTH 1040 0
DWIDTH 13 0
BBX 7 13 5 0
BITMAP
C0
C0
C0
C0
C0
C0
C0
FE
C0
C0
C0
C0
C0
ENDCHAR
STARTCHAR 2521
ENCODING 9505
SWIDTH 1040 0
DWIDTH 13 0
BBX 7 12 5 0
BITMAP
C0
C0
C0
C0
C0
FE
FE
80
80
80
80
80
ENDCHAR
STARTCHAR 2522
ENCODING 9506
SWIDTH 1040 0
DWIDTH 13 0
BBX 7 12 5 0
BITMAP
80
80
80
80
80
FE
FE
C0
C0
C0
C0
C0
ENDCHAR
STARTCHAR 2523
ENCODING 9507
SWIDTH 1040 0
DWIDTH 13 0
BBX 7 13 5 0
BITMAP
C0
C0
C0
C0
C0
C0
FE
FE
C0
C0
C0
C0
C0
ENDCHAR
STARTCHAR 2524
ENCODING 9508
SWIDTH 1040 0
DWIDTH 13 0
BBX 6 13 0 0
BITMAP
04
04
04
04
04
04
04
FC
04
04
04
04
04
ENDCHAR
STARTCHAR 2525
ENCODING 9509
SWIDTH 1040 0
DWIDTH 13 0
BBX 6 13 0 0
BITMAP
04
04
04
04
04
04
FC
FC
04
04
04
04
04
ENDCHAR
STARTCHAR 2526
ENCODING 9510
SWIDTH 1040 0
DWIDTH 13 0
BBX 7 12 0 0
BITMAP
06
06
06
06
06
06
FE
04
04
04
04
04
ENDCHAR
STARTCHAR 2527
ENCODING 9511
SWIDTH 1040 0
DWIDTH 13 0
BBX 7 13 0 0
BITMAP
04
04
04
04
04
04
04
FE
06
06
06
06
06
ENDCHAR
STARTCHAR 2528
ENCODING 9512
SWIDTH 1040 0
DWIDTH 13 0
BBX 7 13 0 0
BITMAP
06
06
06
06
06
06
06
FE
06
06
06
06
06
ENDCHAR
STARTCHAR 2529
ENCODING 9513
SWIDTH 1040 0
DWIDTH 13 0
BBX 7 12 0 0
BITMAP
06
06
06
06
06
FE
FE
04
04
04
04
04
ENDCHAR
STARTCHAR 252A
ENCODING 9514
SWIDTH 1040 0
DWIDTH 13 0
BBX 7 12 0 0
BITMAP
04
04
04
04
04
FE
FE
06
06
06
06
06
ENDCHAR
STARTCHAR 252B
ENCODING 9515
SWIDTH 1040 0
DWIDTH 13 0
BBX 7 13 0 0
BITMAP
06
06
06
06
06
06
FE
FE
06
06
06
06
06
ENDCHAR
STARTCHAR 252C
ENCODING 9516
SWIDTH 1040 0
DWIDTH 13 0
BBX 13 6 0 0
BITMAP
FFF8
0400
0400
0400
0400
0400
ENDCHAR
STARTCHAR 252D
ENCODING 9517
SWIDTH 1040 0
DWIDTH 13 0
BBX 13 7 0 0
BITMAP
FC00
FFF8
0400
0400
0400
0400
0400
ENDCHAR
STARTCHAR 252E
ENCODING 9518
SWIDTH 1040 0
DWIDTH 13 0
BBX 12 7 0 0
BITMAP
07F0
FFF0
0400
0400
0400
0400
0400
ENDCHAR
STARTCHAR 252F
ENCODING 9519
SWIDTH 1040 0
DWIDTH 13 0
BBX 13 7 0 0
BITMAP
FFF8
FFF8
0400
0400
0400
0400
0400
ENDCHAR
STARTCHAR 2530
ENCODING 9520
SWIDTH 1040 0
DWIDTH 13 0
BBX 13 6 0 0
BITMAP
FFF8
0600
0600
0600
0600
0600
ENDCHAR
STARTCHAR 2531
ENCODING 9521
SWIDTH 1040 0
DWIDTH 13 0
BBX 12 7 0 0
BITMAP
FE00
FFF0
0600
0600
0600
0600
0600
ENDCHAR
STARTCHAR 2532
ENCODING 9522
SWIDTH 1040 0
DWIDTH 13 0
BBX 12 7 0 0
BITMAP
07F0
FFF0
0600
0600
0600
0600
0600
ENDCHAR
STARTCHAR 2533
ENCODING 9523
SWIDTH 1040 0
DWIDTH 13 0
BBX 13 7 0 0
BITMAP
FFF8
FFF8
0600
0600
0600
0600
0600
ENDCHAR
STARTCHAR 2534
ENCODING 9524
SWIDTH 1040 0
DWIDTH 13 0
BBX 13 7 0 5
BITMAP
0400
0400
0400
0400
0400
0400
FFF8
ENDCHAR
STARTCHAR 2535
ENCODING 9525
SWIDTH 1040 0
DWIDTH 13 0
BBX 12 7 0 5
BITMAP
0400
0400
0400
0400
0400
FC00
FFF0
ENDCHAR
STARTCHAR 2536
ENCODING 9526
SWIDTH 1040 0
DWIDTH 13 0
BBX 12 7 0 5
BITMAP
0400
0400
0400
0400
0400
07F0
FFF0
ENDCHAR
STARTCHAR 2537
ENCODING 9527
SWIDTH 1040 0
DWIDTH 13 0
BBX 13 7 0 5
BITMAP
0400
0400
0400
0400
0400
FFF8
FFF8
ENDCHAR
STARTCHAR 2538
ENCODING 9528
SWIDTH 1040 0
DWIDTH 13 0
BBX 13 7 0 5
BITMAP
0600
0600
0600
0600
0600
0600
FFF8
ENDCHAR
STARTCHAR 2539
ENCODING 9529
SWIDTH 1040 0
DWIDTH 13 0
BBX 12 7 0 5
BITMAP
0600
0600
0600
0600
0600
FE00
FFF0
ENDCHAR
STARTCHAR 253A
ENCODING 9530
SWIDTH 1040 0
DWIDTH 13 0
BBX 12 7 0 5
BITMAP
0600
0600
0600
0600
0600
07F0
FFF0
ENDCHAR
STARTCHAR 253B
ENCODING 9531
SWIDTH 1040 0
DWIDTH 13 0
BBX 13 7 0 5
BITMAP
0600
0600
0600
0600
0600
FFF8
FFF8
ENDCHAR
STARTCHAR 253C
ENCODING 9532
SWIDTH 1040 0
DWIDTH 13 0
BBX 13 13 0 0
BITMAP
0400
0400
0400
0400
0400
0400
0400
FFF8
0400
0400
0400
0400
0400
ENDCHAR
STARTCHAR 253D
ENCODING 9533
SWIDTH 1040 0
DWIDTH 13 0
BBX 12 13 0 0
BITMAP
0400
0400
0400
0400
0400
0400
FC00
FFF0
0400
0400
0400
0400
0400
ENDCHAR
STARTCHAR 253E
ENCODING 9534
SWIDTH 1040 0
DWIDTH 13 0
BBX 12 13 0 0
BITMAP
0400
0400
0400
0400
0400
0400
07F0
FFF0
0400
0400
0400
0400
0400
ENDCHAR
STARTCHAR 253F
ENCODING 9535
SWIDTH 1040 0
DWIDTH 13 0
BBX 13 13 0 0
BITMAP
0400
0400
0400
0400
0400
0400
FFF8
FFF8
0400
0400
0400
0400
0400
ENDCHAR
STARTCHAR 2540
ENCODING 9536
SWIDTH 1040 0
DWIDTH 13 0
BBX 13 12 0 0
BITMAP
0600
0600
0600
0600
0600
0600
FFF8
0400
0400
0400
0400
0400
ENDCHAR
STARTCHAR 2541
ENCODING 9537
SWIDTH 1040 0
DWIDTH 13 0
BBX 13 12 0 0
BITMAP
0400
0400
0400
0400
0400
0400
FFF8
0600
0600
0600
0600
0600
ENDCHAR
STARTCHAR 2542
ENCODING 9538
SWIDTH 1040 0
DWIDTH 13 0
BBX 13 13 0 0
BITMAP
0600
0600
0600
0600
0600
0600
0600
FFF8
0600
0600
0600
0600
0600
ENDCHAR
STARTCHAR 2543
ENCODING 9539
SWIDTH 1040 0
DWIDTH 13 0
BBX 12 12 0 0
BITMAP
0600
0600
0600
0600
0600
FE00
FFF0
0400
0400
0400
0400
0400
ENDCHAR
STARTCHAR 2544
ENCODING 9540
SWIDTH 1040 0
DWIDTH 13 0
BBX 12 12 0 0
BITMAP
0600
0600
0600
0600
0600
07F0
FFF0
0400
0400
0400
0400
0400
ENDCHAR
STARTCHAR 2545
ENCODING 9541
SWIDTH 1040 0
DWIDTH 13 0
BBX 12 12 0 0
BITMAP
0400
0400
0400
0400
0400
FE00
FFF0
0600
0600
0600
0600
0600
ENDCHAR
STARTCHAR 2546
ENCODING 9542
SWIDTH 1040 0
DWIDTH 13 0
BBX 12 12 0 0
BITMAP
0400
0400
0400
0400
0400
07F0
FFF0
0600
0600
0600
0600
0600
ENDCHAR
STARTCHAR 2547
ENCODING 9543
SWIDTH 1040 0
DWIDTH 13 0
BBX 13 12 0 0
BITMAP
0600
0600
0600
0600
0600
FFF8
FFF8
0400
0400
0400
0400
0400
ENDCHAR
STARTCHAR 2548
ENCODING 9544
SWIDTH 1040 0
DWIDTH 13 0
BBX 13 12 0 0
BITMAP
0400
0400
0400
0400
0400
FFF8
FFF8
0600
0600
0600
0600
0600
ENDCHAR
STARTCHAR 2549
ENCODING 9545
SWIDTH 1040 0
DWIDTH 13 0
BBX 12 13 0 0
BITMAP
0600
0600
0600
0600
0600
0600
FE00
FFF0
0600
0600
0600
0600
0600
ENDCHAR
STARTCHAR 254A
ENCODING 9546
SWIDTH 1040 0
DWIDTH 13 0
BBX 12 13 0 0
BITMAP
0600
0600
0600
0600
0600
0600
07F0
FFF0
0600
0600
0600
0600
0600
ENDCHAR
STARTCHAR 254B
ENCODING 9547
SWIDTH 1040 0
DWIDTH 13 0
BBX 13 13 0 0
BITMAP
0600
0600
0600
0600
0600
0600
FFF8
FFF8
0600
0600
0600
0600
0600
ENDCHAR
STARTCHAR 254C
ENCODING 9548
SWIDTH 1040 0
DWIDTH 13 0
BBX 11 1 0 5
BITMAP
FBE0
ENDCHAR
STARTCHAR 254D
ENCODING 9549
SWIDTH 1040 0
DWIDTH 13 0
BBX 11 2 0 5
BITMAP
FBE0
FBE0
ENDCHAR
STARTCHAR 254E
ENCODING 9550
SWIDTH 1040 0
DWIDTH 13 0
BBX 1 11 5 0
BITMAP
80
80
80
80
80
00
80
80
80
80
80
ENDCHAR
STARTCHAR 254F
ENCODING 9551
SWIDTH 1040 0
DWIDTH 13 0
BBX 2 11 5 0
BITMAP
C0
C0
C0
C0
C0
00
C0
C0
C0
C0
C0
ENDCHAR
STARTCHAR 2550
ENCODING 9552
SWIDTH 1040 0
DWIDTH 13 0
BBX 13 3 0 4
BITMAP
FFF8
0000
FFF8
ENDCHAR
STARTCHAR 2551
ENCODING 9553
SWIDTH 1040 0
DWIDTH 13 0
BBX 3 13 4 0
BITMAP
A0
A0
A0
A0
A0
A0
A0
A0
A0
A0
A0
A0
A0
ENDCHAR
STARTCHAR 2552
ENCODING 9554
SWIDTH 1040 0
DWIDTH 13 0
BBX 7 7 5 0
BITMAP
FE
80
FE
80
80
80
80
ENDCHAR
STARTCHAR 2553
ENCODING 9555
SWIDTH 1040 0
DWIDTH 13 0
BBX 8 6 4 0
BITMAP
FF
A0
A0
A0
A0
A0
ENDCHAR
STARTCHAR 2554
ENCODING 9556
SWIDTH 1040 0
DWIDTH 13 0
BBX 8 7 4 0
BITMAP
FF
80
BF
A0
A0
A0
A0
ENDCHAR
STARTCHAR 2555
ENCODING 9557
SWIDTH 1040 0
DWIDTH 13 0
BBX 6 7 0 0
BITMAP
FC
04
FC
04
04
04
04
ENDCHAR
STARTCHAR 2556
ENCODING 9558
SWIDTH 1040 0
DWIDTH 13 0
BBX 7 6 0 0
BITMAP
FE
0A
0A
0A
0A
0A
ENDCHAR
STARTCHAR 2557
ENCODING 9559
SWIDTH 1040 0
DWIDTH 13 0
BBX 7 7 0 0
BITMAP
FE
02
FA
0A
0A
0A
0A
ENDCHAR
STARTCHAR 2558
ENCODING 9560
SWIDTH 1040 0
DWIDTH 13 0
BBX 7 8 5 4
BITMAP
80
80
80
80
80
FE
80
FE
ENDCHAR
STARTCHAR 2559
ENCODING 9561
SWIDTH 1040 0
DWIDTH 13 0
BBX 8 7 4 5
BITMAP
A0
A0
A0
A0
A0
A0
FF
ENDCHAR
STARTCHAR 255A
ENCODING 9562
SWIDTH 1040 0
DWIDTH 13 0
BBX 8 8 4 4
BITMAP
A0
A0
A0
A0
A0
BF
80
FF
ENDCHAR
STARTCHAR 255B
ENCODING 9563
SWIDTH 1040 0
DWIDTH 13 0
BBX 6 8 0 4
BITMAP
04
04
04
04
04
FC
04
FC
ENDCHAR
STARTCHAR 255C
ENCODING 9564
SWIDTH 1040 0
DWIDTH 13 0
BBX 7 7 0 5
BITMAP
0A
0A
0A
0A
0A
0A
FE
ENDCHAR
STARTCHAR 255D
ENCODING 9565
SWIDTH 1040 0
DWIDTH 13 0
BBX 7 8 0 4
BITMAP
0A
0A
0A
0A
0A
FA
02
FE
ENDCHAR
STARTCHAR 255E
ENCODING 9566
SWIDTH 1040 0
DWIDTH 13 0
BBX 7 13 5 0
BITMAP
80
80
80
80
80
80
FE
80
FE
80
80
80
80
ENDCHAR
STARTCHAR 255F
ENCODING 9567
SWIDTH 1040 0
DWIDTH 13 0
BBX 8 13 4 0
BITMAP
A0
A0
A0
A0
A0
A0
A0
BF
A0
A0
A0
A0
A0
ENDCHAR
STARTCHAR 2560
ENCODING 9568
SWIDTH 1040 0
DWIDTH 13 0
BBX 8 13 4 0
BITMAP
A0
A0
A0
A0
A0
A0
BF
80
BF
A0
A0
A0
A0
ENDCHAR
STARTCHAR 2561
ENCODING 9569
SWIDTH 1040 0
DWIDTH 13 0
BBX 6 13 0 0
BITMAP
04
04
04
04
04
04
FC
04
FC
04
04
04
04
ENDCHAR
STARTCHAR 2562
ENCODING 9570
SWIDTH 1040 0
DWIDTH 13 0
BBX 7 13 0 0
BITMAP
0A
0A
0A
0A
0A
0A
0A
FA
0A
0A
0A
0A
0A
ENDCHAR
STARTCHAR 2563
ENCODING 9571
SWIDTH 1040 0
DWIDTH 13 0
BBX 7 13 0 0
BITMAP
0A
0A
0A
0A
0A
0A
FA
02
FA
0A
0A
0A
0A
ENDCHAR
STARTCHAR 2564
ENCODING 9572
SWIDTH 1040 0
DWIDTH 13 0
BBX 13 7 0 0
BITMAP
FFF8
0000
FFF8
0400
0400
0400
0400
ENDCHAR
STARTCHAR 2565
ENCODING 9573
SWIDTH 1040 0
DWIDTH 13 0
BBX 13 6 0 0
BITMAP
FFF8
0A00
0A00
0A00
0A00
0A00
ENDCHAR
STARTCHAR 2566
ENCODING 9574
SWIDTH 1040 0
DWIDTH 13 0
BBX 13 7 0 0
BITMAP
FFF8
0000
FBF8
0A00
0A00
0A00
0A00
ENDCHAR
STARTCHAR 2567
ENCODING 9575
SWIDTH 1040 0
DWIDTH 13 0
BBX 13 8 0 4
BITMAP
0400
0400
0400
0400
0400
FFF8
0000
FFF8
ENDCHAR
STARTCHAR 2568
ENCODING 9576
SWIDTH 1040 0
DWIDTH 13 0
BBX 13 7 0 5
BITMAP
0A00
0A00
0A00
0A00
0A00
0A00
FFF8
ENDCHAR
STARTCHAR 2569
ENCODING 9577
SWIDTH 1040 0
DWIDTH 13 0
BBX 13 8 0 4
BITMAP
0A00
0A00
0A00
0A00
0A00
FBF8
0000
FFF8
ENDCHAR
STARTCHAR 256A
ENCODING 9578
SWIDTH 1040 0
DWIDTH 13 0
BBX 13 13 0 0
BITMAP
0400
0400
0400
0400
0400
0400
FFF8
0400
FFF8
0400
0400
0400
0400
ENDCHAR
STARTCHAR 256B
ENCODING 9579
SWIDTH 1040 0
DWIDTH 13 0
BBX 13 13 0 0
BITMAP
0A00
0A00
0A00
0A00
0A00
0A00
0A00
FFF8
0A00
0A00
0A00
0A00
0A00
ENDCHAR
STARTCHAR 256C
ENCODING 9580
SWIDTH 1040 0
DWIDTH 13 0
BBX 12 12 0 0
BITMAP
0A00
0A00
0A00
0A00
0A00
FBF0
0000
FBF0
0A00
0A00
0A00
0A00
ENDCHAR
STARTCHAR 256D
ENCODING 9581
SWIDTH 1040 0
DWIDTH 13 0
BBX 7 6 5 0
BITMAP
06
18
20
40
40
80
ENDCHAR
STARTCHAR 256E
ENCODING 9582
SWIDTH 1040 0
DWIDTH 13 0
BBX 6 6 0 0
BITMAP
80
60
10
08
08
04
ENDCHAR
STARTCHAR 256F
ENCODING 9583
SWIDTH 1040 0
DWIDTH 13 0
BBX 6 7 0 5
BITMAP
04
04
08
08
10
60
80
ENDCHAR
STARTCHAR 2570
ENCODING 9584
SWIDTH 1040 0
DWIDTH 13 0
BBX 7 7 5 5
BITMAP
80
80
40
40
20
18
06
ENDCHAR
STARTCHAR 2571
ENCODING 9585
SWIDTH 1040 0
DWIDTH 13 0
BBX 12 12 0 0
BITMAP
0010
0020
0040
0080
0100
0200
0400
0800
1000
2000
4000
8000
ENDCHAR
STARTCHAR 2572
ENCODING 9586
SWIDTH 1040 0
DWIDTH 13 0
BBX 11 11 0 0
BITMAP
8000
4000
2000
1000
0800
0400
0200
0100
0080
0040
0020
ENDCHAR
STARTCHAR 2573
ENCODING 9587
SWIDTH 1040 0
DWIDTH 13 0
BBX 12 12 0 0
BITMAP
0010
8020
4040
2080
1100
0A00
0400
0A00
1100
2080
4040
8020
ENDCHAR
STARTCHAR 2574
ENCODING 9588
SWIDTH 1040 0
DWIDTH 13 0
BBX 6 1 0 5
BITMAP
FC
ENDCHAR
STARTCHAR 2575
ENCODING 9589
SWIDTH 1040 0
DWIDTH 13 0
BBX 1 7 5 5
BITMAP
80
80
80
80
80
80
80
ENDCHAR
STARTCHAR 2576
ENCODING 9590
SWIDTH 1040 0
DWIDTH 13 0
BBX 7 1 5 5
BITMAP
FE
ENDCHAR
STARTCHAR 2577
ENCODING 9591
SWIDTH 1040 0
DWIDTH 13 0
BBX 1 6 5 0
BITMAP
80
80
80
80
80
80
ENDCHAR
STARTCHAR 2578
ENCODING 9592
SWIDTH 1040 0
DWIDTH 13 0
BBX 6 2 0 5
BITMAP
FC
FC
ENDCHAR
STARTCHAR 2579
ENCODING 9593
SWIDTH 1040 0
DWIDTH 13 0
BBX 2 7 5 5
BITMAP
C0
C0
C0
C0
C0
C0
C0
ENDCHAR
STARTCHAR 257A
ENCODING 9594
SWIDTH 1040 0
DWIDTH 13 0
BBX 7 2 5 5
BITMAP
FE
FE
ENDCHAR
STARTCHAR 257B
ENCODING 9595
SWIDTH 1040 0
DWIDTH 13 0
BBX 2 6 5 0
BITMAP
C0
C0
C0
C0
C0
C0
ENDCHAR
STARTCHAR 257C
ENCODING 9596
SWIDTH 1040 0
DWIDTH 13 0
BBX 12 2 0 5
BITMAP
07F0
FFF0
ENDCHAR
STARTCHAR 257D
ENCODING 9597
SWIDTH 1040 0
DWIDTH 13 0
BBX 2 13 5 0
BITMAP
80
80
80
80
80
80
80
C0
C0
C0
C0
C0
C0
ENDCHAR
STARTCHAR 257E
ENCODING 9598
SWIDTH 1040 0
DWIDTH 13 0
BBX 13 2 0 5
BITMAP
FC00
FFF8
ENDCHAR
STARTCHAR 257F
ENCODING 9599
SWIDTH 1040 0
DWIDTH 13 0
BBX 2 12 5 0
BITMAP
C0
C0
C0
C0
C0
C0
C0
80
80
80
80
80
ENDCHAR
STARTCHAR 2580
ENCODING 9600
SWIDTH 1040 0
DWIDTH 13 0
BBX 13 6 0 6
BITMAP
FFF8
FFF8
FFF8
FFF8
FFF8
FFF8
ENDCHAR
STARTCHAR 2581
ENCODING 9601
SWIDTH 1040 0
DWIDTH 13 0
BBX 13 2 0 0
BITMAP
FFF8
FFF8
ENDCHAR
STARTCHAR 2582
ENCODING 9602
SWIDTH 1040 0
DWIDTH 13 0
BBX 13 3 0 0
BITMAP
FFF8
FFF8
FFF8
ENDCHAR
STARTCHAR 2583
ENCODING 9603
SWIDTH 1040 0
DWIDTH 13 0
BBX 13 5 0 0
BITMAP
FFF8
FFF8
FFF8
FFF8
FFF8
ENDCHAR
STARTCHAR 2584
ENCODING 9604
SWIDTH 1040 0
DWIDTH 13 0
BBX 13 6 0 0
BITMAP
FFF8
FFF8
FFF8
FFF8
FFF8
FFF8
ENDCHAR
STARTCHAR 2585
ENCODING 9605
SWIDTH 1040 0
DWIDTH 13 0
BBX 13 8 0 0
BITMAP
FFF8
FFF8
FFF8
FFF8
FFF8
FFF8
FFF8
FFF8
ENDCHAR
STARTCHAR 2586
ENCODING 9606
SWIDTH 1040 0
DWIDTH 13 0
BBX 13 9 0 0
BITMAP
FFF8
FFF8
FFF8
FFF8
FFF8
FFF8
FFF8
FFF8
FFF8
ENDCHAR
STARTCHAR 2587
ENCODING 9607
SWIDTH 1040 0
DWIDTH 13 0
BBX 13 11 0 0
BITMAP
FFF8
FFF8
FFF8
FFF8
FFF8
FFF8
FFF8
FFF8
FFF8
FFF8
FFF8
ENDCHAR
STARTCHAR 2588
ENCODING 9608
SWIDTH 1040 0
DWIDTH 13 0
BBX 13 13 0 0
BITMAP
FFF8
FFF8
FFF8
FFF8
FFF8
FFF8
FFF8
FFF8
FFF8
FFF8
FFF8
FFF8
FFF8
ENDCHAR
STARTCHAR 2589
ENCODING 9609
SWIDTH 1040 0
DWIDTH 13 0
BBX 11 13 0 0
BITMAP
FFE0
FFE0
FFE0
FFE0
FFE0
FFE0
FFE0
FFE0
FFE0
FFE0
FFE0
FFE0
FFE0
ENDCHAR
STARTCHAR 258A
ENCODING 9610
SWIDTH 1040 0
DWIDTH 13 0
BBX 9 13 0 0
BITMAP
FF80
FF80
FF80
FF80
FF80
FF80
FF80
FF80
FF80
FF80
FF80
FF80
FF80
ENDCHAR
STARTCHAR 258B
ENCODING 9611
SWIDTH 1040 0
DWIDTH 13 0
BBX 8 13 0 0
BITMAP
FF
FF
FF
FF
FF
FF
FF
FF
FF
FF
FF
FF
FF
ENDCHAR
STARTCHAR 258C
ENCODING 9612
SWIDTH 1040 0
DWIDTH 13 0
BBX 6 13 0 0
BITMAP
FC
FC
FC
FC
FC
FC
FC
FC
FC
FC
FC
FC
FC
ENDCHAR
STARTCHAR 258D
ENCODING 9613
SWIDTH 1040 0
DWIDTH 13 0
BBX 5 13 0 0
BITMAP
F8
F8
F8
F8
F8
F8
F8
F8
F8
F8
F8
F8
F8
ENDCHAR
STARTCHAR 258E
ENCODING 9614
SWIDTH 1040 0
DWIDTH 13 0
BBX 3 13 0 0
BITMAP
E0
E0
E0
E0
E0
E0
E0
E0
E0
E0
E0
E0
E0
ENDCHAR
STARTCHAR 258F
ENCODING 9615
SWIDTH 1040 0
DWIDTH 13 0
BBX 2 13 0 0
BITMAP
C0
C0
C0
C0
C0
C0
C0
C0
C0
C0
C0
C0
C0
ENDCHAR
STARTCHAR 2590
ENCODING 9616
SWIDTH 1040 0
DWIDTH 13 0
BBX 6 13 6 0
BITMAP
FC
FC
FC
FC
FC
FC
FC
FC
FC
FC
FC
FC
FC
ENDCHAR
STARTCHAR 2591
ENCODING 9617
SWIDTH 1040 0
DWIDTH 13 0
BBX 11 11 0 1
BITMAP
AAA0
0000
AAA0
0000
AAA0
0000
AAA0
0000
AAA0
0000
AAA0
ENDCHAR
STARTCHAR 2592
ENCODING 9618
SWIDTH 1040 0
DWIDTH 13 0
BBX 12 12 0 0
BITMAP
AAA0
5550
AAA0
5550
AAA0
5550
AAA0
5550
AAA0
5550
AAA0
5550
ENDCHAR
STARTCHAR 2593
ENCODING 9619
SWIDTH 1040 0
DWIDTH 13 0
BBX 13 13 0 0
BITMAP
AAA0
AAA0
FFF8
AAA0
FFF8
AAA0
FFF8
AAA0
FFF8
AAA0
FFF8
AAA0
FFF8
ENDCHAR
STARTCHAR 2594
ENCODING 9620
SWIDTH 1040 0
DWIDTH 13 0
BBX 13 2 0 10
BITMAP
FFF8
FFF8
ENDCHAR
STARTCHAR 2595
ENCODING 9621
SWIDTH 1040 0
DWIDTH 13 0
BBX 2 13 10 0
BITMAP
C0
C0
C0
C0
C0
C0
C0
C0
C0
C0
C0
C0
C0
ENDCHAR
STARTCHAR 2596
ENCODING 9622
SWIDTH 1040 0
DWIDTH 13 0
BBX 6 6 0 0
BITMAP
FC
FC
FC
FC
FC
FC
ENDCHAR
STARTCHAR 2597
ENCODING 9623
SWIDTH 1040 0
DWIDTH 13 0
BBX 6 6 6 0
BITMAP
FC
FC
FC
FC
FC
FC
ENDCHAR
STARTCHAR 2598
ENCODING 9624
SWIDTH 1040 0
DWIDTH 13 0
BBX 6 6 0 6
BITMAP
FC
FC
FC
FC
FC
FC
ENDCHAR
STARTCHAR 2599
ENCODING 9625
SWIDTH 1040 0
DWIDTH 13 0
BBX 13 13 0 0
BITMAP
FC00
FC00
FC00
FC00
FC00
FC00
FC00
FFF8
FFF8
FFF8
FFF8
FFF8
FFF8
ENDCHAR
STARTCHAR 259A
ENCODING 9626
SWIDTH 1040 0
DWIDTH 13 0
BBX 13 12 0 0
BITMAP
FC00
FC00
FC00
FC00
FC00
FC00
03F8
03F8
03F8
03F8
03F8
03F8
ENDCHAR
STARTCHAR 259B
ENCODING 9627
SWIDTH 1040 0
DWIDTH 13 0
BBX 13 12 0 0
BITMAP
FFF8
FFF8
FFF8
FFF8
FFF8
FFF8
FC00
FC00
FC00
FC00
FC00
FC00
ENDCHAR
STARTCHAR 259C
ENCODING 9628
SWIDTH 1040 0
DWIDTH 13 0
BBX 12 12 0 0
BITMAP
FFF0
FFF0
FFF0
FFF0
FFF0
FFF0
03F0
03F0
03F0
03F0
03F0
03F0
ENDCHAR
STARTCHAR 259D
ENCODING 9629
SWIDTH 1040 0
DWIDTH 13 0
BBX 6 6 6 6
BITMAP
FC
FC
FC
FC
FC
FC
ENDCHAR
STARTCHAR 259E
ENCODING 9630
SWIDTH 1040 0
DWIDTH 13 0
BBX 13 12 0 0
BITMAP
03F8
03F8
03F8
03F8
03F8
03F8
FC00
FC00
FC00
FC00
FC00
FC00
ENDCHAR
STARTCHAR 259F
ENCODING 9631
SWIDTH 1040 0
DWIDTH 13 0
BBX 12 13 0 0
BITMAP
03F0
03F0
03F0
03F0
03F0
03F0
03F0
FFF0
FFF0
FFF0
FFF0
FFF0
FFF0
ENDCHAR
STARTCHAR 25A0
ENCODING 9632
SWIDTH 1040 0
DWIDTH 13 0
BBX 11 11 0 0
BITMAP
FFE0
FFE0
FFE0
FFE0
FFE0
FFE0
FFE0
FFE0
FFE0
FFE0
FFE0
ENDCHAR
STARTCHAR 25A1
ENCODING 9633
SWIDTH 1040 0
DWIDTH 13 0
BBX 11 11 0 0
BITMAP
FFE0
8020
8020
8020
8020
8020
8020
8020
8020
8020
FFE0
ENDCHAR
STARTCHAR 25A2
ENCODING 9634
SWIDTH 1040 0
DWIDTH 13 0
BBX 11 11 0 0
BITMAP
7FC0
8020
8020
8020
8020
8020
8020
8020
8020
8020
7FC0
ENDCHAR
STARTCHAR 25A3
ENCODING 9635
SWIDTH 1040 0
DWIDTH 13 0
BBX 11 11 0 0
BITMAP
FFE0
8020
8020
9F20
9F20
9F20
9F20
9F20
8020
8020
FFE0
ENDCHAR
STARTCHAR 25A4
ENCODING 9636
SWIDTH 1040 0
DWIDTH 13 0
BBX 11 11 0 0
BITMAP
FFE0
8020
FFE0
8020
FFE0
8020
FFE0
8020
FFE0
8020
FFE0
ENDCHAR
STARTCHAR 25A5
ENCODING 9637
SWIDTH 1040 0
DWIDTH 13 0
BBX 11 11 0 0
BITMAP
FFE0
AAA0
AAA0
AAA0
AAA0
AAA0
AAA0
AAA0
AAA0
AAA0
FFE0
ENDCHAR
STARTCHAR 25A6
ENCODING 9638
SWIDTH 1040 0
DWIDTH 13 0
BBX 11 11 0 0
BITMAP
FFE0
AAA0
FFE0
AAA0
FFE0
AAA0
FFE0
AAA0
FFE0
AAA0
FFE0
ENDCHAR
STARTCHAR 25A7
ENCODING 9639
SWIDTH 1040 0
DWIDTH 13 0
BBX 11 11 0 0
BITMAP
FFE0
C920
A4A0
9260
C920
A4A0
9260
C920
A4A0
9260
FFE0
ENDCHAR
STARTCHAR 25A8
ENCODING 9640
SWIDTH 1040 0
DWIDTH 13 0
BBX 11 11 0 0
BITMAP
FFE0
9260
A4A0
C920
9260
A4A0
C920
9260
A4A0
C920
FFE0
ENDCHAR
STARTCHAR 25A9
ENCODING 9641
SWIDTH 1040 0
DWIDTH 13 0
BBX 11 11 0 0
BITMAP
FFE0
DB60
A4A0
DB60
DB60
A4A0
DB60
DB60
A4A0
DB60
FFE0
ENDCHAR
STARTCHAR 25AA
ENCODING 9642
SWIDTH 1040 0
DWIDTH 13 0
BBX 5 5 3 3
BITMAP
F8
F8
F8
F8
F8
ENDCHAR
STARTCHAR 25AB
ENCODING 9643
SWIDTH 1040 0
DWIDTH 13 0
BBX 5 5 3 3
BITMAP
F8
88
88
88
F8
ENDCHAR
STARTCHAR 25AC
ENCODING 9644
SWIDTH 1040 0
DWIDTH 13 0
BBX 11 5 0 3
BITMAP
FFE0
FFE0
FFE0
FFE0
FFE0
ENDCHAR
STARTCHAR 25AD
ENCODING 9645
SWIDTH 1040 0
DWIDTH 13 0
BBX 11 5 0 3
BITMAP
FFE0
8020
8020
8020
FFE0
ENDCHAR
STARTCHAR 25AE
ENCODING 9646
SWIDTH 1040 0
DWIDTH 13 0
BBX 5 11 3 0
BITMAP
F8
F8
F8
F8
F8
F8
F8
F8
F8
F8
F8
ENDCHAR
STARTCHAR 25AF
ENCODING 9647
SWIDTH 1040 0
DWIDTH 13 0
BBX 5 11 3 0
BITMAP
F8
88
88
88
88
88
88
88
88
88
F8
ENDCHAR
STARTCHAR 25B0
ENCODING 9648
SWIDTH 1040 0
DWIDTH 13 0
BBX 11 5 0 3
BITMAP
7FE0
7FE0
FFE0
FFC0
FFC0
ENDCHAR
STARTCHAR 25B1
ENCODING 9649
SWIDTH 1040 0
DWIDTH 13 0
BBX 11 5 0 3
BITMAP
7FE0
4020
8020
8040
FFC0
ENDCHAR
STARTCHAR 25B2
ENCODING 9650
SWIDTH 1040 0
DWIDTH 13 0
BBX 11 11 0 0
BITMAP
0400
0E00
0E00
1F00
1F00
3F80
3F80
7FC0
7FC0
FFE0
FFE0
ENDCHAR
STARTCHAR 25B3
ENCODING 9651
SWIDTH 1040 0
DWIDTH 13 0
BBX 11 11 0 0
BITMAP
0400
0A00
0A00
1100
1100
2080
2080
4040
4040
8020
FFE0
ENDCHAR
STARTCHAR 25B4
ENCODING 9652
SWIDTH 1040 0
DWIDTH 13 0
BBX 5 5 3 3
BITMAP
20
70
70
F8
F8
ENDCHAR
STARTCHAR 25B5
ENCODING 9653
SWIDTH 1040 0
DWIDTH 13 0
BBX 5 5 3 3
BITMAP
20
50
50
88
F8
ENDCHAR
STARTCHAR 25B6
ENCODING 9654
SWIDTH 1040 0
DWIDTH 13 0
BBX 11 11 0 0
BITMAP
C000
F000
FC00
FF00
FFC0
FFE0
FFC0
FF00
FC00
F000
C000
ENDCHAR
STARTCHAR 25B7
ENCODING 9655
SWIDTH 1040 0
DWIDTH 13 0
BBX 11 11 0 0
BITMAP
C000
B000
8C00
8300
80C0
8020
80C0
8300
8C00
B000
C000
ENDCHAR
STARTCHAR 25B8
ENCODING 9656
SWIDTH 1040 0
DWIDTH 13 0
BBX 5 5 3 3
BITMAP
C0
F0
F8
F0
C0
ENDCHAR
STARTCHAR 25B9
ENCODING 9657
SWIDTH 1040 0
DWIDTH 13 0
BBX 5 5 3 3
BITMAP
C0
B0
88
B0
C0
ENDCHAR
STARTCHAR 25BA
ENCODING 9658
SWIDTH 1040 0
DWIDTH 13 0
BBX 11 7 0 2
BITMAP
E000
FC00
FF80
FFE0
FF80
FC00
E000
ENDCHAR
STARTCHAR 25BB
ENCODING 9659
SWIDTH 1040 0
DWIDTH 13 0
BBX 11 7 0 2
BITMAP
E000
9C00
8380
8060
8380
9C00
E000
ENDCHAR
STARTCHAR 25BC
ENCODING 9660
SWIDTH 1040 0
DWIDTH 13 0
BBX 11 11 0 0
BITMAP
FFE0
FFE0
7FC0
7FC0
3F80
3F80
1F00
1F00
0E00
0E00
0400
ENDCHAR
STARTCHAR 25BD
ENCODING 9661
SWIDTH 1040 0
DWIDTH 13 0
BBX 11 11 0 0
BITMAP
FFE0
8020
4040
4040
2080
2080
1100
1100
0A00
0A00
0400
ENDCHAR
STARTCHAR 25BE
ENCODING 9662
SWIDTH 1040 0
DWIDTH 13 0
BBX 5 5 3 3
BITMAP
F8
F8
70
70
20
ENDCHAR
STARTCHAR 25BF
ENCODING 9663
SWIDTH 1040 0
DWIDTH 13 0
BBX 5 5 3 3
BITMAP
F8
88
50
50
20
ENDCHAR
STARTCHAR 25C0
ENCODING 9664
SWIDTH 1040 0
DWIDTH 13 0
BBX 11 11 0 0
BITMAP
0060
01E0
07E0
1FE0
7FE0
FFE0
7FE0
1FE0
07E0
01E0
0060
ENDCHAR
STARTCHAR 25C1
ENCODING 9665
SWIDTH 1040 0
DWIDTH 13 0
BBX 11 11 0 0
BITMAP
0060
01A0
0620
1820
6020
8020
6020
1820
0620
01A0
0060
ENDCHAR
STARTCHAR 25C2
ENCODING 9666
SWIDTH 1040 0
DWIDTH 13 0
BBX 5 5 3 3
BITMAP
18
78
F8
78
18
ENDCHAR
STARTCHAR 25C3
ENCODING 9667
SWIDTH 1040 0
DWIDTH 13 0
BBX 5 5 3 3
BITMAP
18
68
88
68
18
ENDCHAR
STARTCHAR 25C4
ENCODING 9668
SWIDTH 1040 0
DWIDTH 13 0
BBX 11 7 0 2
BITMAP
00E0
07E0
3FE0
FFE0
3FE0
07E0
00E0
ENDCHAR
STARTCHAR 25C5
ENCODING 9669
SWIDTH 1040 0
DWIDTH 13 0
BBX 11 7 0 2
BITMAP
00E0
0720
3820
C020
3820
0720
00E0
ENDCHAR
STARTCHAR 25C6
ENCODING 9670
SWIDTH 1040 0
DWIDTH 13 0
BBX 11 11 0 0
BITMAP
0400
0E00
1F00
3F80
7FC0
FFE0
7FC0
3F80
1F00
0E00
0400
ENDCHAR
STARTCHAR 25C7
ENCODING 9671
SWIDTH 1040 0
DWIDTH 13 0
BBX 11 11 0 0
BITMAP
0400
0A00
1100
2080
4040
8020
4040
2080
1100
0A00
0400
ENDCHAR
STARTCHAR 25C8
ENCODING 9672
SWIDTH 1040 0
DWIDTH 13 0
BBX 11 11 0 0
BITMAP
0400
0A00
1100
2480
4E40
9F20
4E40
2480
1100
0A00
0400
ENDCHAR
STARTCHAR 25C9
ENCODING 9673
SWIDTH 1040 0
DWIDTH 13 0
BBX 11 11 0 0
BITMAP
0E00
3180
4040
4E40
9F20
9F20
9F20
4E40
4040
3180
0E00
ENDCHAR
STARTCHAR 25CA
ENCODING 9674
SWIDTH 1040 0
DWIDTH 13 0
BBX 11 11 0 0
BITMAP
0400
0A00
1100
2080
4040
8020
4040
2080
1100
0A00
0400
ENDCHAR
STARTCHAR 25CB
ENCODING 9675
SWIDTH 1040 0
DWIDTH 13 0
BBX 11 11 0 0
BITMAP
0E00
3180
4040
4040
8020
8020
8020
4040
4040
3180
0E00
ENDCHAR
STARTCHAR 25CC
ENCODING 9676
SWIDTH 1040 0
DWIDTH 13 0
BBX 11 11 0 0
BITMAP
0A00
2080
4040
0000
8020
0000
8020
0000
4040
2080
0A00
ENDCHAR
STARTCHAR 25CD
ENCODING 9677
SWIDTH 1040 0
DWIDTH 13 0
BBX 11 11 0 0
BITMAP
0E00
3B80
6AC0
6AC0
AAA0
AAA0
AAA0
6AC0
6AC0
3B80
0E00
ENDCHAR
STARTCHAR 25CE
ENCODING 9678
SWIDTH 1040 0
DWIDTH 13 0
BBX 11 11 0 0
BITMAP
0E00
3180
4040
4E40
9120
9120
9120
4E40
4040
3180
0E00
ENDCHAR
STARTCHAR 25CF
ENCODING 9679
SWIDTH 1040 0
DWIDTH 13 0
BBX 11 11 0 0
BITMAP
0E00
3F80
7FC0
7FC0
FFE0
FFE0
FFE0
7FC0
7FC0
3F80
0E00
ENDCHAR
STARTCHAR 25D0
ENCODING 9680
SWIDTH 1040 0
DWIDTH 13 0
BBX 11 11 0 0
BITMAP
0E00
3980
7840
7840
F820
F820
F820
7840
7840
3980
0E00
ENDCHAR
STARTCHAR 25D1
ENCODING 9681
SWIDTH 1040 0
DWIDTH 13 0
BBX 11 11 0 0
BITMAP
0E00
3380
43C0
43C0
83E0
83E0
83E0
43C0
43C0
3380
0E00
ENDCHAR
STARTCHAR 25D2
ENCODING 9682
SWIDTH 1040 0
DWIDTH 13 0
BBX 11 11 0 0
BITMAP
0E00
3180
4040
4040
8020
8020
FFE0
7FC0
7FC0
3F80
0E00
ENDCHAR
STARTCHAR 25D3
ENCODING 9683
SWIDTH 1040 0
DWIDTH 13 0
BBX 11 11 0 0
BITMAP
0E00
3F80
7FC0
7FC0
FFE0
8020
8020
4040
4040
3180
0E00
ENDCHAR
STARTCHAR 25D4
ENCODING 9684
SWIDTH 1040 0
DWIDTH 13 0
BBX 11 11 0 0
BITMAP
0E00
3780
47C0
47C0
87E0
87E0
8020
4040
4040
3180
0E00
ENDCHAR
STARTCHAR 25D5
ENCODING 9685
SWIDTH 1040 0
DWIDTH 13 0
BBX 11 11 0 0
BITMAP
0E00
3380
43C0
43C0
83E0
83E0
FFE0
7FC0
7FC0
3F80
0E00
ENDCHAR
STARTCHAR 25D6
ENCODING 9686
SWIDTH 1040 0
DWIDTH 13 0
BBX 6 11 0 0
BITMAP
0C
3C
7C
7C
FC
FC
FC
7C
7C
3C
0C
ENDCHAR
STARTCHAR 25D7
ENCODING 9687
SWIDTH 1040 0
DWIDTH 13 0
BBX 6 11 5 0
BITMAP
C0
F0
F8
F8
FC
FC
FC
F8
F8
F0
C0
ENDCHAR
STARTCHAR 25D8
ENCODING 9688
SWIDTH 1040 0
DWIDTH 13 0
BBX 11 11 0 0
BITMAP
FFE0
FFE0
F1E0
E0E0
C060
C060
C060
E0E0
F1E0
FFE0
FFE0
ENDCHAR
STARTCHAR 25D9
ENCODING 9689
SWIDTH 1040 0
DWIDTH 13 0
BBX 11 11 0 0
BITMAP
FFE0
FFE0
F1E0
EEE0
DF60
DF60
DF60
EEE0
F1E0
FFE0
FFE0
ENDCHAR
STARTCHAR 25DA
ENCODING 9690
SWIDTH 1040 0
DWIDTH 13 0
BBX 11 6 0 5
BITMAP
FFE0
FFE0
F1E0
EEE0
DF60
DF60
ENDCHAR
STARTCHAR 25DB
ENCODING 9691
SWIDTH 1040 0
DWIDTH 13 0
BBX 11 6 0 0
BITMAP
DF60
DF60
EEE0
F1E0
FFE0
FFE0
ENDCHAR
STARTCHAR 25DC
ENCODING 9692
SWIDTH 1040 0
DWIDTH 13 0
BBX 6 6 0 5
BITMAP
0C
30
40
40
80
80
ENDCHAR
STARTCHAR 25DD
ENCODING 9693
SWIDTH 1040 0
DWIDTH 13 0
BBX 6 6 5 5
BITMAP
C0
30
08
08
04
04
ENDCHAR
STARTCHAR 25DE
ENCODING 9694
SWIDTH 1040 0
DWIDTH 13 0
BBX 6 6 5 0
BITMAP
04
04
08
08
30
C0
ENDCHAR
STARTCHAR 25DF
ENCODING 9695
SWIDTH 1040 0
DWIDTH 13 0
BBX 6 6 0 0
BITMAP
80
80
40
40
30
0C
ENDCHAR
STARTCHAR 25E0
ENCODING 9696
SWIDTH 1040 0
DWIDTH 13 0
BBX 11 6 0 5
BITMAP
0E00
3180
4040
4040
8020
8020
ENDCHAR
STARTCHAR 25E1
ENCODING 9697
SWIDTH 1040 0
DWIDTH 13 0
BBX 11 6 0 0
BITMAP
8020
8020
4040
4040
3180
0E00
ENDCHAR
STARTCHAR 25E2
ENCODING 9698
SWIDTH 1040 0
DWIDTH 13 0
BBX 11 11 0 0
BITMAP
0020
0060
00E0
01E0
03E0
07E0
0FE0
1FE0
3FE0
7FE0
FFE0
ENDCHAR
STARTCHAR 25E3
ENCODING 9699
SWIDTH 1040 0
DWIDTH 13 0
BBX 11 11 0 0
BITMAP
8000
C000
E000
F000
F800
FC00
FE00
FF00
FF80
FFC0
FFE0
ENDCHAR
STARTCHAR 25E4
ENCODING 9700
SWIDTH 1040 0
DWIDTH 13 0
BBX 11 11 0 0
BITMAP
FFE0
FFC0
FF80
FF00
FE00
FC00
F800
F000
E000
C000
8000
ENDCHAR
STARTCHAR 25E5
ENCODING 9701
SWIDTH 1040 0
DWIDTH 13 0
BBX 11 11 0 0
BITMAP
FFE0
7FE0
3FE0
1FE0
0FE0
07E0
03E0
01E0
00E0
0060
0020
ENDCHAR
STARTCHAR 25E6
ENCODING 9702
SWIDTH 480 0
DWIDTH 6 0
BBX 5 5 0 3
BITMAP
70
88
88
88
70
ENDCHAR
STARTCHAR 25E7
ENCODING 9703
SWIDTH 1040 0
DWIDTH 13 0
BBX 11 11 0 0
BITMAP
FFE0
F820
F820
F820
F820
F820
F820
F820
F820
F820
FFE0
ENDCHAR
STARTCHAR 25E8
ENCODING 9704
SWIDTH 1040 0
DWIDTH 13 0
BBX 11 11 0 0
BITMAP
FFE0
83E0
83E0
83E0
83E0
83E0
83E0
83E0
83E0
83E0
FFE0
ENDCHAR
STARTCHAR 25E9
ENCODING 9705
SWIDTH 1040 0
DWIDTH 13 0
BBX 11 11 0 0
BITMAP
FFE0
FFA0
FF20
FE20
FC20
F820
F020
E020
C020
8020
FFE0
ENDCHAR
STARTCHAR 25EA
ENCODING 9706
SWIDTH 1040 0
DWIDTH 13 0
BBX 11 11 0 0
BITMAP
FFE0
8020
8060
80E0
81E0
83E0
87E0
8FE0
9FE0
BFE0
FFE0
ENDCHAR
STARTCHAR 25EB
ENCODING 9707
SWIDTH 1040 0
DWIDTH 13 0
BBX 11 11 0 0
BITMAP
FFE0
8420
8420
8420
8420
8420
8420
8420
8420
8420
FFE0
ENDCHAR
STARTCHAR 25EC
ENCODING 9708
SWIDTH 1040 0
DWIDTH 13 0
BBX 11 11 0 0
BITMAP
0400
0A00
0A00
1100
1100
2080
2080
4440
4040
8020
FFE0
ENDCHAR
STARTCHAR 25ED
ENCODING 9709
SWIDTH 1040 0
DWIDTH 13 0
BBX 11 11 0 0
BITMAP
0400
0A00
0A00
1900
1900
3880
3880
7840
7840
F820
FFE0
ENDCHAR
STARTCHAR 25EE
ENCODING 9710
SWIDTH 1040 0
DWIDTH 13 0
BBX 11 11 0 0
BITMAP
0400
0A00
0A00
1300
1300
2380
2380
43C0
43C0
83E0
FFE0
ENDCHAR
STARTCHAR 25EF
ENCODING 9711
SWIDTH 1040 0
DWIDTH 13 0
BBX 11 11 0 0
BITMAP
0E00
3180
4040
4040
8020
8020
8020
4040
4040
3180
0E00
ENDCHAR
STARTCHAR 25F0
ENCODING 9712
SWIDTH 1040 0
DWIDTH 13 0
BBX 11 11 0 0
BITMAP
FFE0
8420
8420
8420
8420
FC20
8020
8020
8020
8020
FFE0
ENDCHAR
STARTCHAR 25F1
ENCODING 9713
SWIDTH 1040 0
DWIDTH 13 0
BBX 11 11 0 0
BITMAP
FFE0
8020
8020
8020
8020
FC20
8420
8420
8420
8420
FFE0
ENDCHAR
STARTCHAR 25F2
ENCODING 9714
SWIDTH 1040 0
DWIDTH 13 0
BBX 11 11 0 0
BITMAP
FFE0
8020
8020
8020
8020
87E0
8420
8420
8420
8420
FFE0
ENDCHAR
STARTCHAR 25F3
ENCODING 9715
SWIDTH 1040 0
DWIDTH 13 0
BBX 11 11 0 0
BITMAP
FFE0
8420
8420
8420
8420
87E0
8020
8020
8020
8020
FFE0
ENDCHAR
STARTCHAR 25F4
ENCODING 9716
SWIDTH 1040 0
DWIDTH 13 0
BBX 11 11 0 0
BITMAP
0E00
3580
4440
4440
8420
FC20
8020
4040
4040
3180
0E00
ENDCHAR
STARTCHAR 25F5
ENCODING 9717
SWIDTH 1040 0
DWIDTH 13 0
BBX 11 11 0 0
BITMAP
0E00
3180
4040
4040
8020
FC20
8420
4440
4440
3580
0E00
ENDCHAR
STARTCHAR 25F6
ENCODING 9718
SWIDTH 1040 0
DWIDTH 13 0
BBX 11 11 0 0
BITMAP
0E00
3180
4040
4040
8020
87E0
8420
4440
4440
3580
0E00
ENDCHAR
STARTCHAR 25F7
ENCODING 9719
SWIDTH 1040 0
DWIDTH 13 0
BBX 11 11 0 0
BITMAP
0E00
3580
4440
4440
8420
87E0
8020
4040
4040
3180
0E00
ENDCHAR
STARTCHAR 25F8
ENCODING 9720
SWIDTH 1040 0
DWIDTH 13 0
BBX 11 11 0 0
BITMAP
FFE0
8040
8080
8100
8200
8400
8800
9000
A000
C000
8000
ENDCHAR
STARTCHAR 25F9
ENCODING 9721
SWIDTH 1040 0
DWIDTH 13 0
BBX 11 11 0 0
BITMAP
FFE0
4020
2020
1020
0820
0420
0220
0120
00A0
0060
0020
ENDCHAR
STARTCHAR 25FA
ENCODING 9722
SWIDTH 1040 0
DWIDTH 13 0
BBX 11 11 0 0
BITMAP
8000
C000
A000
9000
8800
8400
8200
8100
8080
8040
FFE0
ENDCHAR
STARTCHAR 25FB
ENCODING 9723
SWIDTH 1040 0
DWIDTH 13 0
BBX 9 9 1 1
BITMAP
FF80
8080
8080
8080
8080
8080
8080
8080
FF80
ENDCHAR
STARTCHAR 25FC
ENCODING 9724
SWIDTH 1040 0
DWIDTH 13 0
BBX 9 9 1 1
BITMAP
FF80
FF80
FF80
FF80
FF80
FF80
FF80
FF80
FF80
ENDCHAR
STARTCHAR 25FD
ENCODING 9725
SWIDTH 1040 0
DWIDTH 13 0
BBX 7 7 2 2
BITMAP
FE
82
82
82
82
82
FE
ENDCHAR
STARTCHAR 25FE
ENCODING 9726
SWIDTH 1040 0
DWIDTH 13 0
BBX 7 7 2 2
BITMAP
FE
FE
FE
FE
FE
FE
FE
ENDCHAR
STARTCHAR 25FF
ENCODING 9727
SWIDTH 1040 0
DWIDTH 13 0
BBX 11 11 0 0
BITMAP
0020
0060
00A0
0120
0220
0420
0820
1020
2020
4020
FFE0
ENDCHAR
STARTCHAR 2600
ENCODING 9728
SWIDTH 1040 0
DWIDTH 13 0
BBX 11 11 0 0
BITMAP
0400
4040
0E00
1F00
3F80
BFA0
3F80
1F00
0E00
4040
0400
ENDCHAR
STARTCHAR 2601
ENCODING 9729
SWIDTH 1040 0
DWIDTH 13 0
BBX 11 10 0 1
BITMAP
0E00
1100
3180
4040
8020
8020
8120
8220
4440
3B80
ENDCHAR
STARTCHAR 2602
ENCODING 9730
SWIDTH 1040 0
DWIDTH 13 0
BBX 11 11 0 0
BITMAP
0400
1F00
3F80
7FC0
FFE0
0400
0400
0400
0400
0480
0300
ENDCHAR
STARTCHAR 2603
ENCODING 9731
SWIDTH 1040 0
DWIDTH 13 0
BBX 9 11 1 0
BITMAP
1C00
2200
4100
4100
6300
8080
8080
8080
8080
4100
3E00
ENDCHAR
STARTCHAR 2605
ENCODING 9733
SWIDTH 1040 0
DWIDTH 13 0
BBX 11 11 0 0
BITMAP
0400
0400
0E00
0E00
FFE0
7FC0
3F80
1F00
3B80
3180
2080
ENDCHAR
STARTCHAR 2606
ENCODING 9734
SWIDTH 1040 0
DWIDTH 13 0
BBX 11 11 0 0
BITMAP
0400
0400
0A00
0A00
F1E0
4040
2080
1500
2A80
3180
2080
ENDCHAR
STARTCHAR 2610
ENCODING 9744
SWIDTH 1040 0
DWIDTH 13 0
BBX 9 9 1 1
BITMAP
FF80
8080
8080
8080
8080
8080
8080
8080
FF80
ENDCHAR
STARTCHAR 2611
ENCODING 9745
SWIDTH 1040 0
DWIDTH 13 0
BBX 9 9 1 1
BITMAP
FF80
8080
8180
8280
C480
A880
9080
8080
FF80
ENDCHAR
STARTCHAR 2612
ENCODING 9746
SWIDTH 1040 0
DWIDTH 13 0
BBX 9 9 1 1
BITMAP
FF80
8080
A280
9480
8880
9480
A280
8080
FF80
ENDCHAR
STARTCHAR 262E
ENCODING 9774
SWIDTH 1040 0
DWIDTH 13 0
BBX 11 11 0 0
BITMAP
0E00
3580
4440
4440
8420
8E20
9520
64C0
4440
3580
0E00
ENDCHAR
STARTCHAR 2630
ENCODING 9776
SWIDTH 1040 0
DWIDTH 13 0
BBX 9 7 1 2
BITMAP
FF80
0000
0000
FF80
0000
0000
FF80
ENDCHAR
STARTCHAR 2631
ENCODING 9777
SWIDTH 1040 0
DWIDTH 13 0
BBX 9 7 1 2
BITMAP
F780
0000
0000
FF80
0000
0000
FF80
ENDCHAR
STARTCHAR 2632
ENCODING 9778
SWIDTH 1040 0
DWIDTH 13 0
BBX 9 7 1 2
BITMAP
FF80
0000
0000
F780
0000
0000
FF80
ENDCHAR
STARTCHAR 2633
ENCODING 9779
SWIDTH 1040 0
DWIDTH 13 0
BBX 9 7 1 2
BITMAP
F780
0000
0000
F780
0000
0000
FF80
ENDCHAR
STARTCHAR 2634
ENCODING 9780
SWIDTH 1040 0
DWIDTH 13 0
BBX 9 7 1 2
BITMAP
FF80
0000
0000
FF80
0000
0000
F780
ENDCHAR
STARTCHAR 2635
ENCODING 9781
SWIDTH 1040 0
DWIDTH 13 0
BBX 9 7 1 2
BITMAP
F780
0000
0000
FF80
0000
0000
F780
ENDCHAR
STARTCHAR 2636
ENCODING 9782
SWIDTH 1040 0
DWIDTH 13 0
BBX 9 7 1 2
BITMAP
FF80
0000
0000
F780
0000
0000
F780
ENDCHAR
STARTCHAR 2637
ENCODING 9783
SWIDTH 1040 0
DWIDTH 13 0
BBX 9 7 1 2
BITMAP
F780
0000
0000
F780
0000
0000
F780
ENDCHAR
STARTCHAR 2639
ENCODING 9785
SWIDTH 1040 0
DWIDTH 13 0
BBX 11 11 0 0
BITMAP
FFE0
8020
9120
9120
9120
8020
8020
9F20
A0A0
8020
FFE0
ENDCHAR
STARTCHAR 263A
ENCODING 9786
SWIDTH 1040 0
DWIDTH 13 0
BBX 11 11 0 0
BITMAP
FFE0
8020
9120
9120
9120
8020
8020
A0A0
9F20
8020
FFE0
ENDCHAR
STARTCHAR 263B
ENCODING 9787
SWIDTH 1040 0
DWIDTH 13 0
BBX 11 11 0 0
BITMAP
FFE0
FFE0
EEE0
EEE0
EEE0
FFE0
FFE0
DF60
E0E0
FFE0
FFE0
ENDCHAR
STARTCHAR 263C
ENCODING 9788
SWIDTH 1040 0
DWIDTH 13 0
BBX 11 11 0 0
BITMAP
0400
4040
0E00
1100
2080
A0A0
2080
1100
0E00
4040
0400
ENDCHAR
STARTCHAR 2640
ENCODING 9792
SWIDTH 1040 0
DWIDTH 13 0
BBX 7 11 2 0
BITMAP
38
44
82
82
82
44
38
10
FE
10
10
ENDCHAR
STARTCHAR 2641
ENCODING 9793
SWIDTH 1040 0
DWIDTH 13 0
BBX 7 11 2 0
BITMAP
10
10
FE
10
38
44
82
82
82
44
38
ENDCHAR
STARTCHAR 2642
ENCODING 9794
SWIDTH 1040 0
DWIDTH 13 0
BBX 10 10 0 0
BITMAP
07C0
00C0
0140
3A40
4440
8200
8200
8200
4400
3800
ENDCHAR
STARTCHAR 2660
ENCODING 9824
SWIDTH 1040 0
DWIDTH 13 0
BBX 11 11 0 0
BITMAP
0400
0E00
1F00
3F80
7FC0
FFE0
FFE0
F5E0
64C0
0E00
1F00
ENDCHAR
STARTCHAR 2661
ENCODING 9825
SWIDTH 1040 0
DWIDTH 13 0
BBX 11 10 0 0
BITMAP
71C0
8A20
8420
8020
8020
4040
2080
1100
0A00
0400
ENDCHAR
STARTCHAR 2662
ENCODING 9826
SWIDTH 1040 0
DWIDTH 13 0
BBX 11 11 0 0
BITMAP
0400
0A00
1100
2080
4040
8020
4040
2080
1100
0A00
0400
ENDCHAR
STARTCHAR 2663
ENCODING 9827
SWIDTH 1040 0
DWIDTH 13 0
BBX 11 11 0 0
BITMAP
0E00
1F00
1F00
0E00
75C0
FFE0
FFE0
75C0
0400
0E00
1F00
ENDCHAR
STARTCHAR 2664
ENCODING 9828
SWIDTH 1040 0
DWIDTH 13 0
BBX 11 11 0 0
BITMAP
0400
0A00
1100
2080
4040
8020
8A20
9520
64C0
0A00
1F00
ENDCHAR
STARTCHAR 2665
ENCODING 9829
SWIDTH 1040 0
DWIDTH 13 0
BBX 11 10 0 0
BITMAP
71C0
FBE0
FFE0
FFE0
FFE0
7FC0
3F80
1F00
0E00
0400
ENDCHAR
STARTCHAR 2666
ENCODING 9830
SWIDTH 1040 0
DWIDTH 13 0
BBX 11 11 0 0
BITMAP
0400
0E00
1F00
3F80
7FC0
FFE0
7FC0
3F80
1F00
0E00
0400
ENDCHAR
STARTCHAR 2667
ENCODING 9831
SWIDTH 1040 0
DWIDTH 13 0
BBX 11 11 0 0
BITMAP
0E00
1100
1100
0A00
71C0
8020
8E20
75C0
0400
0A00
1F00
ENDCHAR
STARTCHAR 2669
ENCODING 9833
SWIDTH 1040 0
DWIDTH 13 0
BBX 4 11 3 0
BITMAP
10
10
10
10
10
10
10
10
70
F0
E0
ENDCHAR
STARTCHAR 266A
ENCODING 9834
SWIDTH 1040 0
DWIDTH 13 0
BBX 7 11 2 0
BITMAP
10
18
1C
16
12
12
14
10
70
F0
E0
ENDCHAR
STARTCHAR 266B
ENCODING 9835
SWIDTH 1040 0
DWIDTH 13 0
BBX 11 11 0 0
BITMAP
1FE0
1FE0
1020
1020
1020
1020
1020
1020
70E0
F1E0
E1C0
ENDCHAR
STARTCHAR 266C
ENCODING 9836
SWIDTH 1040 0
DWIDTH 13 0
BBX 11 11 0 0
BITMAP
1FE0
1020
1FE0
1020
1020
1020
1020
1020
70E0
F1E0
E1C0
ENDCHAR
STARTCHAR 266D
ENCODING 9837
SWIDTH 1040 0
DWIDTH 13 0
BBX 6 11 3 0
BITMAP
80
80
80
80
B8
DC
8C
8C
98
B0
C0
ENDCHAR
STARTCHAR 266E
ENCODING 9838
SWIDTH 1040 0
DWIDTH 13 0
BBX 6 11 3 0
BITMAP
80
84
9C
FC
E4
84
9C
FC
E4
84
04
ENDCHAR
STARTCHAR 266F
ENCODING 9839
SWIDTH 1040 0
DWIDTH 13 0
BBX 9 11 1 0
BITMAP
0200
2380
3F80
FE00
E200
2200
2380
3F80
FE00
E200
2000
ENDCHAR
STARTCHAR 2680
ENCODING 9856
SWIDTH 1040 0
DWIDTH 13 0
BBX 9 9 1 1
BITMAP
FF80
8080
8080
8080
8880
8080
8080
8080
FF80
ENDCHAR
STARTCHAR 2681
ENCODING 9857
SWIDTH 1040 0
DWIDTH 13 0
BBX 9 9 1 1
BITMAP
FF80
8080
8280
8080
8080
8080
A080
8080
FF80
ENDCHAR
STARTCHAR 2682
ENCODING 9858
SWIDTH 1040 0
DWIDTH 13 0
BBX 9 9 1 1
BITMAP
FF80
8080
8280
8080
8880
8080
A080
8080
FF80
ENDCHAR
STARTCHAR 2683
ENCODING 9859
SWIDTH 1040 0
DWIDTH 13 0
BBX 9 9 1 1
BITMAP
FF80
8080
A280
8080
8080
8080
A280
8080
FF80
ENDCHAR
STARTCHAR 2684
ENCODING 9860
SWIDTH 1040 0
DWIDTH 13 0
BBX 9 9 1 1
BITMAP
FF80
8080
A280
8080
8880
8080
A280
8080
FF80
ENDCHAR
STARTCHAR 2685
ENCODING 9861
SWIDTH 1040 0
DWIDTH 13 0
BBX 9 9 1 1
BITMAP
FF80
8080
A280
8080
A280
8080
A280
8080
FF80
ENDCHAR
STARTCHAR 2686
ENCODING 9862
SWIDTH 1040 0
DWIDTH 13 0
BBX 11 11 0 0
BITMAP
0E00
3180
4040
4040
8020
8120
8020
4040
4040
3180
0E00
ENDCHAR
STARTCHAR 2687
ENCODING 9863
SWIDTH 1040 0
DWIDTH 13 0
BBX 11 11 0 0
BITMAP
0E00
3180
4040
4040
8020
9120
8020
4040
4040
3180
0E00
ENDCHAR
STARTCHAR 2688
ENCODING 9864
SWIDTH 1040 0
DWIDTH 13 0
BBX 11 11 0 0
BITMAP
0E00
3F80
7FC0
7FC0
FFE0
FEE0
FFE0
7FC0
7FC0
3F80
0E00
ENDCHAR
STARTCHAR 2689
ENCODING 9865
SWIDTH 1040 0
DWIDTH 13 0
BBX 11 11 0 0
BITMAP
0E00
3F80
7FC0
7FC0
FFE0
EEE0
FFE0
7FC0
7FC0
3F80
0E00
ENDCHAR
STARTCHAR 26A0
ENCODING 9888
SWIDTH 1040 0
DWIDTH 13 0
BBX 11 11 0 0
BITMAP
FFE0
FBE0
FBE0
FBE0
FBE0
FBE0
FBE0
FFE0
FBE0
FBE0
FFE0
ENDCHAR
STARTCHAR 26C4
ENCODING 9924
SWIDTH 1040 0
DWIDTH 13 0
BBX 9 11 1 0
BITMAP
1C00
2200
4100
4100
6300
8080
8080
8080
8080
4100
3E00
ENDCHAR
STARTCHAR 26D4
ENCODING 9940
SWIDTH 1040 0
DWIDTH 13 0
BBX 11 11 0 0
BITMAP
0E00
3F80
7FC0
7FC0
C060
C060
FFE0
7FC0
7FC0
3F80
0E00
ENDCHAR
STARTCHAR 2706
ENCODING 9990
SWIDTH 1040 0
DWIDTH 13 0
BBX 7 13 2 0
BITMAP
02
02
FE
82
82
82
FE
AA
D6
AA
D6
AA
FE
ENDCHAR
STARTCHAR 2709
ENCODING 9993
SWIDTH 1040 0
DWIDTH 13 0
BBX 11 9 0 1
BITMAP
FFE0
C060
A0A0
9120
8A20
8420
8020
8020
FFE0
ENDCHAR
STARTCHAR 2753
ENCODING 10067
SWIDTH 1040 0
DWIDTH 13 0
BBX 11 11 0 0
BITMAP
FFE0
F1E0
EEE0
FEE0
FDE0
FBE0
FBE0
FFE0
FBE0
FBE0
FFE0
ENDCHAR
STARTCHAR 2757
ENCODING 10071
SWIDTH 1040 0
DWIDTH 13 0
BBX 11 11 0 0
BITMAP
FFE0
FBE0
FBE0
FBE0
FBE0
FBE0
FBE0
FFE0
FBE0
FBE0
FFE0
ENDCHAR
STARTCHAR 2776
ENCODING 10102
SWIDTH 1040 0
DWIDTH 13 0
BBX 11 11 0 0
BITMAP
1F00
7FC0
7BC0
F3E0
FBE0
FBE0
FBE0
FBE0
71C0
7FC0
1F00
ENDCHAR
STARTCHAR 2777
ENCODING 10103
SWIDTH 1040 0
DWIDTH 13 0
BBX 11 11 0 0
BITMAP
1F00
7FC0
71C0
EEE0
FEE0
FDE0
FBE0
F7E0
60C0
7FC0
1F00
ENDCHAR
STARTCHAR 2778
ENCODING 10104
SWIDTH 1040 0
DWIDTH 13 0
BBX 11 11 0 0
BITMAP
1F00
7FC0
71C0
EEE0
FEE0
F9E0
FEE0
EEE0
71C0
7FC0
1F00
ENDCHAR
STARTCHAR 2779
ENCODING 10105
SWIDTH 1040 0
DWIDTH 13 0
BBX 11 11 0 0
BITMAP
1F00
7FC0
7DC0
F9E0
F5E0
EDE0
C0E0
FDE0
7DC0
7FC0
1F00
ENDCHAR
STARTCHAR 277A
ENCODING 10106
SWIDTH 1040 0
DWIDTH 13 0
BBX 11 11 0 0
BITMAP
1F00
7FC0
60C0
EFE0
E1E0
EEE0
FEE0
EEE0
71C0
7FC0
1F00
ENDCHAR
STARTCHAR 277B
ENCODING 10107
SWIDTH 1040 0
DWIDTH 13 0
BBX 11 11 0 0
BITMAP
1F00
7FC0
71C0
EEE0
EFE0
E1E0
EEE0
EEE0
71C0
7FC0
1F00
ENDCHAR
STARTCHAR 277C
ENCODING 10108
SWIDTH 1040 0
DWIDTH 13 0
BBX 11 11 0 0
BITMAP
1F00
7FC0
60C0
FEE0
FDE0
FDE0
FBE0
FBE0
7BC0
7FC0
1F00
ENDCHAR
STARTCHAR 277D
ENCODING 10109
SWIDTH 1040 0
DWIDTH 13 0
BBX 11 11 0 0
BITMAP
1F00
7FC0
71C0
EEE0
EEE0
F1E0
EEE0
EEE0
71C0
7FC0
1F00
ENDCHAR
STARTCHAR 277E
ENCODING 10110
SWIDTH 1040 0
DWIDTH 13 0
BBX 11 11 0 0
BITMAP
1F00
7FC0
71C0
EEE0
EEE0
F0E0
FEE0
EEE0
71C0
7FC0
1F00
ENDCHAR
STARTCHAR 277F
ENCODING 10111
SWIDTH 1040 0
DWIDTH 13 0
BBX 11 11 0 0
BITMAP
1F00
7FC0
6CC0
CB60
EB60
EB60
EB60
EB60
6CC0
7FC0
1F00
ENDCHAR
STARTCHAR 2780
ENCODING 10112
SWIDTH 1040 0
DWIDTH 13 0
BBX 11 11 0 0
BITMAP
1F00
2080
4440
8C20
8420
8420
8420
8420
4E40
2080
1F00
ENDCHAR
STARTCHAR 2781
ENCODING 10113
SWIDTH 1040 0
DWIDTH 13 0
BBX 11 11 0 0
BITMAP
1F00
2080
4E40
9120
8120
8220
8420
8820
5F40
2080
1F00
ENDCHAR
STARTCHAR 2782
ENCODING 10114
SWIDTH 1040 0
DWIDTH 13 0
BBX 11 11 0 0
BITMAP
1F00
2080
4E40
9120
8120
8620
8120
9120
4E40
2080
1F00
ENDCHAR
STARTCHAR 2783
ENCODING 10115
SWIDTH 1040 0
DWIDTH 13 0
BBX 11 11 0 0
BITMAP
1F00
2080
4240
8620
8A20
9220
BF20
8220
4240
2080
1F00
ENDCHAR
STARTCHAR 2784
ENCODING 10116
SWIDTH 1040 0
DWIDTH 13 0
BBX 11 11 0 0
BITMAP
1F00
2080
5F40
9020
9E20
9120
8120
9120
4E40
2080
1F00
ENDCHAR
STARTCHAR 2785
ENCODING 10117
SWIDTH 1040 0
DWIDTH 13 0
BBX 11 11 0 0
BITMAP
1F00
2080
4E40
9120
9020
9E20
9120
9120
4E40
2080
1F00
ENDCHAR
STARTCHAR 2786
ENCODING 10118
SWIDTH 1040 0
DWIDTH 13 0
BBX 11 11 0 0
BITMAP
1F00
2080
5F40
8120
8220
8220
8420
8420
4440
2080
1F00
ENDCHAR
STARTCHAR 2787
ENCODING 10119
SWIDTH 1040 0
DWIDTH 13 0
BBX 11 11 0 0
BITMAP
1F00
2080
4E40
9120
9120
8E20
9120
9120
4E40
2080
1F00
ENDCHAR
STARTCHAR 2788
ENCODING 10120
SWIDTH 1040 0
DWIDTH 13 0
BBX 11 11 0 0
BITMAP
1F00
2080
4E40
9120
9120
8F20
8120
9120
4E40
2080
1F00
ENDCHAR
STARTCHAR 2789
ENCODING 10121
SWIDTH 1040 0
DWIDTH 13 0
BBX 11 11 0 0
BITMAP
1F00
2080
5340
B4A0
94A0
94A0
94A0
94A0
5340
2080
1F00
ENDCHAR
STARTCHAR 278A
ENCODING 10122
SWIDTH 1040 0
DWIDTH 13 0
BBX 11 11 0 0
BITMAP
1F00
7FC0
7BC0
F3E0
FBE0
FBE0
FBE0
FBE0
71C0
7FC0
1F00
ENDCHAR
STARTCHAR 278B
ENCODING 10123
SWIDTH 1040 0
DWIDTH 13 0
BBX 11 11 0 0
BITMAP
1F00
7FC0
71C0
EEE0
FEE0
FDE0
FBE0
F7E0
60C0
7FC0
1F00
ENDCHAR
STARTCHAR 278C
ENCODING 10124
SWIDTH 1040 0
DWIDTH 13 0
BBX 11 11 0 0
BITMAP
1F00
7FC0
71C0
EEE0
FEE0
F9E0
FEE0
EEE0
71C0
7FC0
1F00
ENDCHAR
STARTCHAR 278D
ENCODING 10125
SWIDTH 1040 0
DWIDTH 13 0
BBX 11 11 0 0
BITMAP
1F00
7FC0
7DC0
F9E0
F5E0
EDE0
C0E0
FDE0
7DC0
7FC0
1F00
ENDCHAR
STARTCHAR 278E
ENCODING 10126
SWIDTH 1040 0
DWIDTH 13 0
BBX 11 11 0 0
BITMAP
1F00
7FC0
60C0
EFE0
E1E0
EEE0
FEE0
EEE0
71C0
7FC0
1F00
ENDCHAR
STARTCHAR 278F
ENCODING 10127
SWIDTH 1040 0
DWIDTH 13 0
BBX 11 11 0 0
BITMAP
1F00
7FC0
71C0
EEE0
EFE0
E1E0
EEE0
EEE0
71C0
7FC0
1F00
ENDCHAR
STARTCHAR 2790
ENCODING 10128
SWIDTH 1040 0
DWIDTH 13 0
BBX 11 11 0 0
BITMAP
1F00
7FC0
60C0
FEE0
FDE0
FDE0
FBE0
FBE0
7BC0
7FC0
1F00
ENDCHAR
STARTCHAR 2791
ENCODING 10129
SWIDTH 1040 0
DWIDTH 13 0
BBX 11 11 0 0
BITMAP
1F00
7FC0
71C0
EEE0
EEE0
F1E0
EEE0
EEE0
71C0
7FC0
1F00
ENDCHAR
STARTCHAR 2792
ENCODING 10130
SWIDTH 1040 0
DWIDTH 13 0
BBX 11 11 0 0
BITMAP
1F00
7FC0
71C0
EEE0
EEE0
F0E0
FEE0
EEE0
71C0
7FC0
1F00
ENDCHAR
STARTCHAR 2793
ENCODING 10131
SWIDTH 1040 0
DWIDTH 13 0
BBX 11 11 0 0
BITMAP
1F00
7FC0
6CC0
CB60
EB60
EB60
EB60
EB60
6CC0
7FC0
1F00
ENDCHAR
STARTCHAR 2800
ENCODING 10240
SWIDTH 480 0
DWIDTH 6 0
BBX 0 0 0 0
BITMAP
ENDCHAR
STARTCHAR 2801
ENCODING 10241
SWIDTH 480 0
DWIDTH 6 0
BBX 2 2 0 9
BITMAP
C0
C0
ENDCHAR
STARTCHAR 2802
ENCODING 10242
SWIDTH 480 0
DWIDTH 6 0
BBX 2 2 0 6
BITMAP
C0
C0
ENDCHAR
STARTCHAR 2803
ENCODING 10243
SWIDTH 480 0
DWIDTH 6 0
BBX 2 5 0 6
BITMAP
C0
C0
00
C0
C0
ENDCHAR
STARTCHAR 2804
ENCODING 10244
SWIDTH 480 0
DWIDTH 6 0
BBX 2 2 0 3
BITMAP
C0
C0
ENDCHAR
STARTCHAR 2805
ENCODING 10245
SWIDTH 480 0
DWIDTH 6 0
BBX 2 8 0 3
BITMAP
C0
C0
00
00
00
00
C0
C0
ENDCHAR
STARTCHAR 2806
ENCODING 10246
SWIDTH 480 0
DWIDTH 6 0
BBX 2 5 0 3
BITMAP
C0
C0
00
C0
C0
ENDCHAR
STARTCHAR 2807
ENCODING 10247
SWIDTH 480 0
DWIDTH 6 0
BBX 2 8 0 3
BITMAP
C0
C0
00
C0
C0
00
C0
C0
ENDCHAR
STARTCHAR 2808
ENCODING 10248
SWIDTH 480 0
DWIDTH 6 0
BBX 2 2 3 9
BITMAP
C0
C0
ENDCHAR
STARTCHAR 2809
ENCODING 10249
SWIDTH 480 0
DWIDTH 6 0
BBX 5 2 0 9
BITMAP
D8
D8
ENDCHAR
STARTCHAR 280A
ENCODING 10250
SWIDTH 480 0
DWIDTH 6 0
BBX 5 5 0 6
BITMAP
18
18
00
C0
C0
ENDCHAR
STARTCHAR 280B
ENCODING 10251
SWIDTH 480 0
DWIDTH 6 0
BBX 5 5 0 6
BITMAP
D8
D8
00
C0
C0
ENDCHAR
STARTCHAR 280C
ENCODING 10252
SWIDTH 480 0
DWIDTH 6 0
BBX 5 8 0 3
BITMAP
18
18
00
00
00
00
C0
C0
ENDCHAR
STARTCHAR 280D
ENCODING 10253
SWIDTH 480 0
DWIDTH 6 0
BBX 5 8 0 3
BITMAP
D8
D8
00
00
00
00
C0
C0
ENDCHAR
STARTCHAR 280E
ENCODING 10254
SWIDTH 480 0
DWIDTH 6 0
BBX 5 8 0 3
BITMAP
18
18
00
C0
C0
00
C0
C0
ENDCHAR
STARTCHAR 280F
ENCODING 10255
SWIDTH 480 0
DWIDTH 6 0
BBX 5 8 0 3
BITMAP
D8
D8
00
C0
C0
00
C0
C0
ENDCHAR
STARTCHAR 2810
ENCODING 10256
SWIDTH 480 0
DWIDTH 6 0
BBX 2 2 3 6
BITMAP
C0
C0
ENDCHAR
STARTCHAR 2811
ENCODING 10257
SWIDTH 480 0
DWIDTH 6 0
BBX 5 5 0 6
BITMAP
C0
C0
00
18
18
ENDCHAR
STARTCHAR 2812
ENCODING 10258
SWIDTH 480 0
DWIDTH 6 0
BBX 5 2 0 6
BITMAP
D8
D8
ENDCHAR
STARTCHAR 2813
ENCODING 10259
SWIDTH 480 0
DWIDTH 6 0
BBX 5 5 0 6
BITMAP
C0
C0
00
D8
D8
ENDCHAR
STARTCHAR 2814
ENCODING 10260
SWIDTH 480 0
DWIDTH 6 0
BBX 5 5 0 3
BITMAP
18
18
00
C0
C0
ENDCHAR
STARTCHAR 2815
ENCODING 10261
SWIDTH 480 0
DWIDTH 6 0
BBX 5 8 0 3
BITMAP
C0
C0
00
18
18
00
C0
C0
ENDCHAR
STARTCHAR 2816
ENCODING 10262
SWIDTH 480 0
DWIDTH 6 0
BBX 5 5 0 3
BITMAP
D8
D8
00
C0
C0
ENDCHAR
STARTCHAR 2817
ENCODING 10263
SWIDTH 480 0
DWIDTH 6 0
BBX 5 8 0 3
BITMAP
C0
C0
00
D8
D8
00
C0
C0
ENDCHAR
STARTCHAR 2818
ENCODING 10264
SWIDTH 480 0
DWIDTH 6 0
BBX 2 5 3 6
BITMAP
C0
C0
00
C0
C0
ENDCHAR
STARTCHAR 2819
ENCODING 10265
SWIDTH 480 0
DWIDTH 6 0
BBX 5 5 0 6
BITMAP
D8
D8
00
18
18
ENDCHAR
STARTCHAR 281A
ENCODING 10266
SWIDTH 480 0
DWIDTH 6 0
BBX 5 5 0 6
BITMAP
18
18
00
D8
D8
ENDCHAR
STARTCHAR 281B
ENCODING 10267
SWIDTH 480 0
DWIDTH 6 0
BBX 5 5 0 6
BITMAP
D8
D8
00
D8
D8
ENDCHAR
STARTCHAR 281C
ENCODING 10268
SWIDTH 480 0
DWIDTH 6 0
BBX 5 8 0 3
BITMAP
18
18
00
18
18
00
C0
C0
ENDCHAR
STARTCHAR 281D
ENCODING 10269
SWIDTH 480 0
DWIDTH 6 0
BBX 5 8 0 3
BITMAP
D8
D8
00
18
18
00
C0
C0
ENDCHAR
STARTCHAR 281E
ENCODING 10270
SWIDTH 480 0
DWIDTH 6 0
BBX 5 8 0 3
BITMAP
18
18
00
D8
D8
00
C0
C0
ENDCHAR
STARTCHAR 281F
ENCODING 10271
SWIDTH 480 0
DWIDTH 6 0
BBX 5 8 0 3
BITMAP
D8
D8
00
D8
D8
00
C0
C0
ENDCHAR
STARTCHAR 2820
ENCODING 10272
SWIDTH 480 0
DWIDTH 6 0
BBX 2 2 3 3
BITMAP
C0
C0
ENDCHAR
STARTCHAR 2821
ENCODING 10273
SWIDTH 480 0
DWIDTH 6 0
BBX 5 8 0 3
BITMAP
C0
C0
00
00
00
00
18
18
ENDCHAR
STARTCHAR 2822
ENCODING 10274
SWIDTH 480 0
DWIDTH 6 0
BBX 5 5 0 3
BITMAP
C0
C0
00
18
18
ENDCHAR
STARTCHAR 2823
ENCODING 10275
SWIDTH 480 0
DWIDTH 6 0
BBX 5 8 0 3
BITMAP
C0
C0
00
C0
C0
00
18
18
ENDCHAR
STARTCHAR 2824
ENCODING 10276
SWIDTH 480 0
DWIDTH 6 0
BBX 5 2 0 3
BITMAP
D8
D8
ENDCHAR
STARTCHAR 2825
ENCODING 10277
SWIDTH 480 0
DWIDTH 6 0
BBX 5 8 0 3
BITMAP
C0
C0
00
00
00
00
D8
D8
ENDCHAR
STARTCHAR 2826
ENCODING 10278
SWIDTH 480 0
DWIDTH 6 0
BBX 5 5 0 3
BITMAP
C0
C0
00
D8
D8
ENDCHAR
STARTCHAR 2827
ENCODING 10279
SWIDTH 480 0
DWIDTH 6 0
BBX 5 8 0 3
BITMAP
C0
C0
00
C0
C0
00
D8
D8
ENDCHAR
STARTCHAR 2828
ENCODING 10280
SWIDTH 480 0
DWIDTH 6 0
BBX 2 8 3 3
BITMAP
C0
C0
00
00
00
00
C0
C0
ENDCHAR
STARTCHAR 2829
ENCODING 10281
SWIDTH 480 0
DWIDTH 6 0
BBX 5 8 0 3
BITMAP
D8
D8
00
00
00
00
18
18
ENDCHAR
STARTCHAR 282A
ENCODING 10282
SWIDTH 480 0
DWIDTH 6 0
BBX 5 8 0 3
BITMAP
18
18
00
C0
C0
00
18
18
ENDCHAR
STARTCHAR 282B
ENCODING 10283
SWIDTH 480 0
DWIDTH 6 0
BBX 5 8 0 3
BITMAP
D8
D8
00
C0
C0
00
18
18
ENDCHAR
STARTCHAR 282C
ENCODING 10284
SWIDTH 480 0
DWIDTH 6 0
BBX 5 8 0 3
BITMAP
18
18
00
00
00
00
D8
D8
ENDCHAR
STARTCHAR 282D
ENCODING 10285
SWIDTH 480 0
DWIDTH 6 0
BBX 5 8 0 3
BITMAP
D8
D8
00
00
00
00
D8
D8
ENDCHAR
STARTCHAR 282E
ENCODING 10286
SWIDTH 480 0
DWIDTH 6 0
BBX 5 8 0 3
BITMAP
18
18
00
C0
C0
00
D8
D8
ENDCHAR
STARTCHAR 282F
ENCODING 10287
SWIDTH 480 0
DWIDTH 6 0
BBX 5 8 0 3
BITMAP
D8
D8
00
C0
C0
00
D8
D8
ENDCHAR
STARTCHAR 2830
ENCODING 10288
SWIDTH 480 0
DWIDTH 6 0
BBX 2 5 3 3
BITMAP
C0
C0
00
C0
C0
ENDCHAR
STARTCHAR 2831
ENCODING 10289
SWIDTH 480 0
DWIDTH 6 0
BBX 5 8 0 3
BITMAP
C0
C0
00
18
18
00
18
18
ENDCHAR
STARTCHAR 2832
ENCODING 10290
SWIDTH 480 0
DWIDTH 6 0
BBX 5 5 0 3
BITMAP
D8
D8
00
18
18
ENDCHAR
STARTCHAR 2833
ENCODING 10291
SWIDTH 480 0
DWIDTH 6 0
BBX 5 8 0 3
BITMAP
C0
C0
00
D8
D8
00
18
18
ENDCHAR
STARTCHAR 2834
ENCODING 10292
SWIDTH 480 0
DWIDTH 6 0
BBX 5 5 0 3
BITMAP
18
18
00
D8
D8
ENDCHAR
STARTCHAR 2835
ENCODING 10293
SWIDTH 480 0
DWIDTH 6 0
BBX 5 8 0 3
BITMAP
C0
C0
00
18
18
00
D8
D8
ENDCHAR
STARTCHAR 2836
ENCODING 10294
SWIDTH 480 0
DWIDTH 6 0
BBX 5 5 0 3
BITMAP
D8
D8
00
D8
D8
ENDCHAR
STARTCHAR 2837
ENCODING 10295
SWIDTH 480 0
DWIDTH 6 0
BBX 5 8 0 3
BITMAP
C0
C0
00
D8
D8
00
D8
D8
ENDCHAR
STARTCHAR 2838
ENCODING 10296
SWIDTH 480 0
DWIDTH 6 0
BBX 2 8 3 3
BITMAP
C0
C0
00
C0
C0
00
C0
C0
ENDCHAR
STARTCHAR 2839
ENCODING 10297
SWIDTH 480 0
DWIDTH 6 0
BBX 5 8 0 3
BITMAP
D8
D8
00
18
18
00
18
18
ENDCHAR
STARTCHAR 283A
ENCODING 10298
SWIDTH 480 0
DWIDTH 6 0
BBX 5 8 0 3
BITMAP
18
18
00
D8
D8
00
18
18
ENDCHAR
STARTCHAR 283B
ENCODING 10299
SWIDTH 480 0
DWIDTH 6 0
BBX 5 8 0 3
BITMAP
D8
D8
00
D8
D8
00
18
18
ENDCHAR
STARTCHAR 283C
ENCODING 10300
SWIDTH 480 0
DWIDTH 6 0
BBX 5 8 0 3
BITMAP
18
18
00
18
18
00
D8
D8
ENDCHAR
STARTCHAR 283D
ENCODING 10301
SWIDTH 480 0
DWIDTH 6 0
BBX 5 8 0 3
BITMAP
D8
D8
00
18
18
00
D8
D8
ENDCHAR
STARTCHAR 283E
ENCODING 10302
SWIDTH 480 0
DWIDTH 6 0
BBX 5 8 0 3
BITMAP
18
18
00
D8
D8
00
D8
D8
ENDCHAR
STARTCHAR 283F
ENCODING 10303
SWIDTH 480 0
DWIDTH 6 0
BBX 5 8 0 3
BITMAP
D8
D8
00
D8
D8
00
D8
D8
ENDCHAR
STARTCHAR 2840
ENCODING 10304
SWIDTH 480 0
DWIDTH 6 0
BBX 2 2 0 0
BITMAP
C0
C0
ENDCHAR
STARTCHAR 2841
ENCODING 10305
SWIDTH 480 0
DWIDTH 6 0
BBX 2 11 0 0
BITMAP
C0
C0
00
00
00
00
00
00
00
C0
C0
ENDCHAR
STARTCHAR 2842
ENCODING 10306
SWIDTH 480 0
DWIDTH 6 0
BBX 2 8 0 0
BITMAP
C0
C0
00
00
00
00
C0
C0
ENDCHAR
STARTCHAR 2843
ENCODING 10307
SWIDTH 480 0
DWIDTH 6 0
BBX 2 11 0 0
BITMAP
C0
C0
00
C0
C0
00
00
00
00
C0
C0
ENDCHAR
STARTCHAR 2844
ENCODING 10308
SWIDTH 480 0
DWIDTH 6 0
BBX 2 5 0 0
BITMAP
C0
C0
00
C0
C0
ENDCHAR
STARTCHAR 2845
ENCODING 10309
SWIDTH 480 0
DWIDTH 6 0
BBX 2 11 0 0
BITMAP
C0
C0
00
00
00
00
C0
C0
00
C0
C0
ENDCHAR
STARTCHAR 2846
ENCODING 10310
SWIDTH 480 0
DWIDTH 6 0
BBX 2 8 0 0
BITMAP
C0
C0
00
C0
C0
00
C0
C0
ENDCHAR
STARTCHAR 2847
ENCODING 10311
SWIDTH 480 0
DWIDTH 6 0
BBX 2 11 0 0
BITMAP
C0
C0
00
C0
C0
00
C0
C0
00
C0
C0
ENDCHAR
STARTCHAR 2848
ENCODING 10312
SWIDTH 480 0
DWIDTH 6 0
BBX 5 11 0 0
BITMAP
18
18
00
00
00
00
00
00
00
C0
C0
ENDCHAR
STARTCHAR 2849
ENCODING 10313
SWIDTH 480 0
DWIDTH 6 0
BBX 5 11 0 0
BITMAP
D8
D8
00
00
00
00
00
00
00
C0
C0
ENDCHAR
STARTCHAR 284A
ENCODING 10314
SWIDTH 480 0
DWIDTH 6 0
BBX 5 11 0 0
BITMAP
18
18
00
C0
C0
00
00
00
00
C0
C0
ENDCHAR
STARTCHAR 284B
ENCODING 10315
SWIDTH 480 0
DWIDTH 6 0
BBX 5 11 0 0
BITMAP
D8
D8
00
C0
C0
00
00
00
00
C0
C0
ENDCHAR
STARTCHAR 284C
ENCODING 10316
SWIDTH 480 0
DWIDTH 6 0
BBX 5 11 0 0
BITMAP
18
18
00
00
00
00
C0
C0
00
C0
C0
ENDCHAR
STARTCHAR 284D
ENCODING 10317
SWIDTH 480 0
DWIDTH 6 0
BBX 5 11 0 0
BITMAP
D8
D8
00
00
00
00
C0
C0
00
C0
C0
ENDCHAR
STARTCHAR 284E
ENCODING 10318
SWIDTH 480 0
DWIDTH 6 0
BBX 5 11 0 0
BITMAP
18
18
00
C0
C0
00
C0
C0
00
C0
C0
ENDCHAR
STARTCHAR 284F
ENCODING 10319
SWIDTH 480 0
DWIDTH 6 0
BBX 5 11 0 0
BITMAP
D8
D8
00
C0
C0
00
C0
C0
00
C0
C0
ENDCHAR
STARTCHAR 2850
ENCODING 10320
SWIDTH 480 0
DWIDTH 6 0
BBX 5 8 0 0
BITMAP
18
18
00
00
00
00
C0
C0
ENDCHAR
STARTCHAR 2851
ENCODING 10321
SWIDTH 480 0
DWIDTH 6 0
BBX 5 11 0 0
BITMAP
C0
C0
00
18
18
00
00
00
00
C0
C0
ENDCHAR
STARTCHAR 2852
ENCODING 10322
SWIDTH 480 0
DWIDTH 6 0
BBX 5 8 0 0
BITMAP
D8
D8
00
00
00
00
C0
C0
ENDCHAR
STARTCHAR 2853
ENCODING 10323
SWIDTH 480 0
DWIDTH 6 0
BBX 5 11 0 0
BITMAP
C0
C0
00
D8
D8
00
00
00
00
C0
C0
ENDCHAR
STARTCHAR 2854
ENCODING 10324
SWIDTH 480 0
DWIDTH 6 0
BBX 5 8 0 0
BITMAP
18
18
00
C0
C0
00
C0
C0
ENDCHAR
STARTCHAR 2855
ENCODING 10325
SWIDTH 480 0
DWIDTH 6 0
BBX 5 11 0 0
BITMAP
C0
C0
00
18
18
00
C0
C0
00
C0
C0
ENDCHAR
STARTCHAR 2856
ENCODING 10326
SWIDTH 480 0
DWIDTH 6 0
BBX 5 8 0 0
BITMAP
D8
D8
00
C0
C0
00
C0
C0
ENDCHAR
STARTCHAR 2857
ENCODING 10327
SWIDTH 480 0
DWIDTH 6 0
BBX 5 11 0 0
BITMAP
C0
C0
00
D8
D8
00
C0
C0
00
C0
C0
ENDCHAR
STARTCHAR 2858
ENCODING 10328
SWIDTH 480 0
DWIDTH 6 0
BBX 5 11 0 0
BITMAP
18
18
00
18
18
00
00
00
00
C0
C0
ENDCHAR
STARTCHAR 2859
ENCODING 10329
SWIDTH 480 0
DWIDTH 6 0
BBX 5 11 0 0
BITMAP
D8
D8
00
18
18
00
00
00
00
C0
C0
ENDCHAR
STARTCHAR 285A
ENCODING 10330
SWIDTH 480 0
DWIDTH 6 0
BBX 5 11 0 0
BITMAP
18
18
00
D8
D8
00
00
00
00
C0
C0
ENDCHAR
STARTCHAR 285B
ENCODING 10331
SWIDTH 480 0
DWIDTH 6 0
BBX 5 11 0 0
BITMAP
D8
D8
00
D8
D8
00
00
00
00
C0
C0
ENDCHAR
STARTCHAR 285C
ENCODING 10332
SWIDTH 480 0
DWIDTH 6 0
BBX 5 11 0 0
BITMAP
18
18
00
18
18
00
C0
C0
00
C0
C0
ENDCHAR
STARTCHAR 285D
ENCODING 10333
SWIDTH 480 0
DWIDTH 6 0
BBX 5 11 0 0
BITMAP
D8
D8
00
18
18
00
C0
C0
00
C0
C0
ENDCHAR
STARTCHAR 285E
ENCODING 10334
SWIDTH 480 0
DWIDTH 6 0
BBX 5 11 0 0
BITMAP
18
18
00
D8
D8
00
C0
C0
00
C0
C0
ENDCHAR
STARTCHAR 285F
ENCODING 10335
SWIDTH 480 0
DWIDTH 6 0
BBX 5 11 0 0
BITMAP
D8
D8
00
D8
D8
00
C0
C0
00
C0
C0
ENDCHAR
STARTCHAR 2860
ENCODING 10336
SWIDTH 480 0
DWIDTH 6 0
BBX 5 5 0 0
BITMAP
18
18
00
C0
C0
ENDCHAR
STARTCHAR 2861
ENCODING 10337
SWIDTH 480 0
DWIDTH 6 0
BBX 5 11 0 0
BITMAP
C0
C0
00
00
00
00
18
18
00
C0
C0
ENDCHAR
STARTCHAR 2862
ENCODING 10338
SWIDTH 480 0
DWIDTH 6 0
BBX 5 8 0 0
BITMAP
C0
C0
00
18
18
00
C0
C0
ENDCHAR
STARTCHAR 2863
ENCODING 10339
SWIDTH 480 0
DWIDTH 6 0
BBX 5 11 0 0
BITMAP
C0
C0
00
C0
C0
00
18
18
00
C0
C0
ENDCHAR
STARTCHAR 2864
ENCODING 10340
SWIDTH 480 0
DWIDTH 6 0
BBX 5 5 0 0
BITMAP
D8
D8
00
C0
C0
ENDCHAR
STARTCHAR 2865
ENCODING 10341
SWIDTH 480 0
DWIDTH 6 0
BBX 5 11 0 0
BITMAP
C0
C0
00
00
00
00
D8
D8
00
C0
C0
ENDCHAR
STARTCHAR 2866
ENCODING 10342
SWIDTH 480 0
DWIDTH 6 0
BBX 5 8 0 0
BITMAP
C0
C0
00
D8
D8
00
C0
C0
ENDCHAR
STARTCHAR 2867
ENCODING 10343
SWIDTH 480 0
DWIDTH 6 0
BBX 5 11 0 0
BITMAP
C0
C0
00
C0
C0
00
D8
D8
00
C0
C0
ENDCHAR
STARTCHAR 2868
ENCODING 10344
SWIDTH 480 0
DWIDTH 6 0
BBX 5 11 0 0
BITMAP
18
18
00
00
00
00
18
18
00
C0
C0
ENDCHAR
STARTCHAR 2869
ENCODING 10345
SWIDTH 480 0
DWIDTH 6 0
BBX 5 11 0 0
BITMAP
D8
D8
00
00
00
00
18
18
00
C0
C0
ENDCHAR
STARTCHAR 286A
ENCODING 10346
SWIDTH 480 0
DWIDTH 6 0
BBX 5 11 0 0
BITMAP
18
18
00
C0
C0
00
18
18
00
C0
C0
ENDCHAR
STARTCHAR 286B
ENCODING 10347
SWIDTH 480 0
DWIDTH 6 0
BBX 5 11 0 0
BITMAP
D8
D8
00
C0
C0
00
18
18
00
C0
C0
ENDCHAR
STARTCHAR 286C
ENCODING 10348
SWIDTH 480 0
DWIDTH 6 0
BBX 5 11 0 0
BITMAP
18
18
00
00
00
00
D8
D8
00
C0
C0
ENDCHAR
STARTCHAR 286D
ENCODING 10349
SWIDTH 480 0
DWIDTH 6 0
BBX 5 11 0 0
BITMAP
D8
D8
00
00
00
00
D8
D8
00
C0
C0
ENDCHAR
STARTCHAR 286E
ENCODING 10350
SWIDTH 480 0
DWIDTH 6 0
BBX 5 11 0 0
BITMAP
18
18
00
C0
C0
00
D8
D8
00
C0
C0
ENDCHAR
STARTCHAR 286F
ENCODING 10351
SWIDTH 480 0
DWIDTH 6 0
BBX 5 11 0 0
BITMAP
D8
D8
00
C0
C0
00
D8
D8
00
C0
C0
ENDCHAR
STARTCHAR 2870
ENCODING 10352
SWIDTH 480 0
DWIDTH 6 0
BBX 5 8 0 0
BITMAP
18
18
00
18
18
00
C0
C0
ENDCHAR
STARTCHAR 2871
ENCODING 10353
SWIDTH 480 0
DWIDTH 6 0
BBX 5 11 0 0
BITMAP
C0
C0
00
18
18
00
18
18
00
C0
C0
ENDCHAR
STARTCHAR 2872
ENCODING 10354
SWIDTH 480 0
DWIDTH 6 0
BBX 5 8 0 0
BITMAP
D8
D8
00
18
18
00
C0
C0
ENDCHAR
STARTCHAR 2873
ENCODING 10355
SWIDTH 480 0
DWIDTH 6 0
BBX 5 11 0 0
BITMAP
C0
C0
00
D8
D8
00
18
18
00
C0
C0
ENDCHAR
STARTCHAR 2874
ENCODING 10356
SWIDTH 480 0
DWIDTH 6 0
BBX 5 8 0 0
BITMAP
18
18
00
D8
D8
00
C0
C0
ENDCHAR
STARTCHAR 2875
ENCODING 10357
SWIDTH 480 0
DWIDTH 6 0
BBX 5 11 0 0
BITMAP
C0
C0
00
18
18
00
D8
D8
00
C0
C0
ENDCHAR
STARTCHAR 2876
ENCODING 10358
SWIDTH 480 0
DWIDTH 6 0
BBX 5 8 0 0
BITMAP
D8
D8
00
D8
D8
00
C0
C0
ENDCHAR
STARTCHAR 2877
ENCODING 10359
SWIDTH 480 0
DWIDTH 6 0
BBX 5 11 0 0
BITMAP
C0
C0
00
D8
D8
00
D8
D8
00
C0
C0
ENDCHAR
STARTCHAR 2878
ENCODING 10360
SWIDTH 480 0
DWIDTH 6 0
BBX 5 11 0 0
BITMAP
18
18
00
18
18
00
18
18
00
C0
C0
ENDCHAR
STARTCHAR 2879
ENCODING 10361
SWIDTH 480 0
DWIDTH 6 0
BBX 5 11 0 0
BITMAP
D8
D8
00
18
18
00
18
18
00
C0
C0
ENDCHAR
STARTCHAR 287A
ENCODING 10362
SWIDTH 480 0
DWIDTH 6 0
BBX 5 11 0 0
BITMAP
18
18
00
D8
D8
00
18
18
00
C0
C0
ENDCHAR
STARTCHAR 287B
ENCODING 10363
SWIDTH 480 0
DWIDTH 6 0
BBX 5 11 0 0
BITMAP
D8
D8
00
D8
D8
00
18
18
00
C0
C0
ENDCHAR
STARTCHAR 287C
ENCODING 10364
SWIDTH 480 0
DWIDTH 6 0
BBX 5 11 0 0
BITMAP
18
18
00
18
18
00
D8
D8
00
C0
C0
ENDCHAR
STARTCHAR 287D
ENCODING 10365
SWIDTH 480 0
DWIDTH 6 0
BBX 5 11 0 0
BITMAP
D8
D8
00
18
18
00
D8
D8
00
C0
C0
ENDCHAR
STARTCHAR 287E
ENCODING 10366
SWIDTH 480 0
DWIDTH 6 0
BBX 5 11 0 0
BITMAP
18
18
00
D8
D8
00
D8
D8
00
C0
C0
ENDCHAR
STARTCHAR 287F
ENCODING 10367
SWIDTH 480 0
DWIDTH 6 0
BBX 5 11 0 0
BITMAP
D8
D8
00
D8
D8
00
D8
D8
00
C0
C0
ENDCHAR
STARTCHAR 2880
ENCODING 10368
SWIDTH 480 0
DWIDTH 6 0
BBX 2 2 3 0
BITMAP
C0
C0
ENDCHAR
STARTCHAR 2881
ENCODING 10369
SWIDTH 480 0
DWIDTH 6 0
BBX 5 11 0 0
BITMAP
C0
C0
00
00
00
00
00
00
00
18
18
ENDCHAR
STARTCHAR 2882
ENCODING 10370
SWIDTH 480 0
DWIDTH 6 0
BBX 5 8 0 0
BITMAP
C0
C0
00
00
00
00
18
18
ENDCHAR
STARTCHAR 2883
ENCODING 10371
SWIDTH 480 0
DWIDTH 6 0
BBX 5 11 0 0
BITMAP
C0
C0
00
C0
C0
00
00
00
00
18
18
ENDCHAR
STARTCHAR 2884
ENCODING 10372
SWIDTH 480 0
DWIDTH 6 0
BBX 5 5 0 0
BITMAP
C0
C0
00
18
18
ENDCHAR
STARTCHAR 2885
ENCODING 10373
SWIDTH 480 0
DWIDTH 6 0
BBX 5 11 0 0
BITMAP
C0
C0
00
00
00
00
C0
C0
00
18
18
ENDCHAR
STARTCHAR 2886
ENCODING 10374
SWIDTH 480 0
DWIDTH 6 0
BBX 5 8 0 0
BITMAP
C0
C0
00
C0
C0
00
18
18
ENDCHAR
STARTCHAR 2887
ENCODING 10375
SWIDTH 480 0
DWIDTH 6 0
BBX 5 11 0 0
BITMAP
C0
C0
00
C0
C0
00
C0
C0
00
18
18
ENDCHAR
STARTCHAR 2888
ENCODING 10376
SWIDTH 480 0
DWIDTH 6 0
BBX 2 11 3 0
BITMAP
C0
C0
00
00
00
00
00
00
00
C0
C0
ENDCHAR
STARTCHAR 2889
ENCODING 10377
SWIDTH 480 0
DWIDTH 6 0
BBX 5 11 0 0
BITMAP
D8
D8
00
00
00
00
00
00
00
18
18
ENDCHAR
STARTCHAR 288A
ENCODING 10378
SWIDTH 480 0
DWIDTH 6 0
BBX 5 11 0 0
BITMAP
18
18
00
C0
C0
00
00
00
00
18
18
ENDCHAR
STARTCHAR 288B
ENCODING 10379
SWIDTH 480 0
DWIDTH 6 0
BBX 5 11 0 0
BITMAP
D8
D8
00
C0
C0
00
00
00
00
18
18
ENDCHAR
STARTCHAR 288C
ENCODING 10380
SWIDTH 480 0
DWIDTH 6 0
BBX 5 11 0 0
BITMAP
18
18
00
00
00
00
C0
C0
00
18
18
ENDCHAR
STARTCHAR 288D
ENCODING 10381
SWIDTH 480 0
DWIDTH 6 0
BBX 5 11 0 0
BITMAP
D8
D8
00
00
00
00
C0
C0
00
18
18
ENDCHAR
STARTCHAR 288E
ENCODING 10382
SWIDTH 480 0
DWIDTH 6 0
BBX 5 11 0 0
BITMAP
18
18
00
C0
C0
00
C0
C0
00
18
18
ENDCHAR
STARTCHAR 288F
ENCODING 10383
SWIDTH 480 0
DWIDTH 6 0
BBX 5 11 0 0
BITMAP
D8
D8
00
C0
C0
00
C0
C0
00
18
18
ENDCHAR
STARTCHAR 2890
ENCODING 10384
SWIDTH 480 0
DWIDTH 6 0
BBX 2 8 3 0
BITMAP
C0
C0
00
00
00
00
C0
C0
ENDCHAR
STARTCHAR 2891
ENCODING 10385
SWIDTH 480 0
DWIDTH 6 0
BBX 5 11 0 0
BITMAP
C0
C0
00
18
18
00
00
00
00
18
18
ENDCHAR
STARTCHAR 2892
ENCODING 10386
SWIDTH 480 0
DWIDTH 6 0
BBX 5 8 0 0
BITMAP
D8
D8
00
00
00
00
18
18
ENDCHAR
STARTCHAR 2893
ENCODING 10387
SWIDTH 480 0
DWIDTH 6 0
BBX 5 11 0 0
BITMAP
C0
C0
00
D8
D8
00
00
00
00
18
18
ENDCHAR
STARTCHAR 2894
ENCODING 10388
SWIDTH 480 0
DWIDTH 6 0
BBX 5 8 0 0
BITMAP
18
18
00
C0
C0
00
18
18
ENDCHAR
STARTCHAR 2895
ENCODING 10389
SWIDTH 480 0
DWIDTH 6 0
BBX 5 11 0 0
BITMAP
C0
C0
00
18
18
00
C0
C0
00
18
18
ENDCHAR
STARTCHAR 2896
ENCODING 10390
SWIDTH 480 0
DWIDTH 6 0
BBX 5 8 0 0
BITMAP
D8
D8
00
C0
C0
00
18
18
ENDCHAR
STARTCHAR 2897
ENCODING 10391
SWIDTH 480 0
DWIDTH 6 0
BBX 5 11 0 0
BITMAP
C0
C0
00
D8
D8
00
C0
C0
00
18
18
ENDCHAR
STARTCHAR 2898
ENCODING 10392
SWIDTH 480 0
DWIDTH 6 0
BBX 2 11 3 0
BITMAP
C0
C0
00
C0
C0
00
00
00
00
C0
C0
ENDCHAR
STARTCHAR 2899
ENCODING 10393
SWIDTH 480 0
DWIDTH 6 0
BBX 5 11 0 0
BITMAP
D8
D8
00
18
18
00
00
00
00
18
18
ENDCHAR
STARTCHAR 289A
ENCODING 10394
SWIDTH 480 0
DWIDTH 6 0
BBX 5 11 0 0
BITMAP
18
18
00
D8
D8
00
00
00
00
18
18
ENDCHAR
STARTCHAR 289B
ENCODING 10395
SWIDTH 480 0
DWIDTH 6 0
BBX 5 11 0 0
BITMAP
D8
D8
00
D8
D8
00
00
00
00
18
18
ENDCHAR
STARTCHAR 289C
ENCODING 10396
SWIDTH 480 0
DWIDTH 6 0
BBX 5 11 0 0
BITMAP
18
18
00
18
18
00
C0
C0
00
18
18
ENDCHAR
STARTCHAR 289D
ENCODING 10397
SWIDTH 480 0
DWIDTH 6 0
BBX 5 11 0 0
BITMAP
D8
D8
00
18
18
00
C0
C0
00
18
18
ENDCHAR
STARTCHAR 289E
ENCODING 10398
SWIDTH 480 0
DWIDTH 6 0
BBX 5 11 0 0
BITMAP
18
18
00
D8
D8
00
C0
C0
00
18
18
ENDCHAR
STARTCHAR 289F
ENCODING 10399
SWIDTH 480 0
DWIDTH 6 0
BBX 5 11 0 0
BITMAP
D8
D8
00
D8
D8
00
C0
C0
00
18
18
ENDCHAR
STARTCHAR 28A0
ENCODING 10400
SWIDTH 480 0
DWIDTH 6 0
BBX 2 5 3 0
BITMAP
C0
C0
00
C0
C0
ENDCHAR
STARTCHAR 28A1
ENCODING 10401
SWIDTH 480 0
DWIDTH 6 0
BBX 5 11 0 0
BITMAP
C0
C0
00
00
00
00
18
18
00
18
18
ENDCHAR
STARTCHAR 28A2
ENCODING 10402
SWIDTH 480 0
DWIDTH 6 0
BBX 5 8 0 0
BITMAP
C0
C0
00
18
18
00
18
18
ENDCHAR
STARTCHAR 28A3
ENCODING 10403
SWIDTH 480 0
DWIDTH 6 0
BBX 5 11 0 0
BITMAP
C0
C0
00
C0
C0
00
18
18
00
18
18
ENDCHAR
STARTCHAR 28A4
ENCODING 10404
SWIDTH 480 0
DWIDTH 6 0
BBX 5 5 0 0
BITMAP
D8
D8
00
18
18
ENDCHAR
STARTCHAR 28A5
ENCODING 10405
SWIDTH 480 0
DWIDTH 6 0
BBX 5 11 0 0
BITMAP
C0
C0
00
00
00
00
D8
D8
00
18
18
ENDCHAR
STARTCHAR 28A6
ENCODING 10406
SWIDTH 480 0
DWIDTH 6 0
BBX 5 8 0 0
BITMAP
C0
C0
00
D8
D8
00
18
18
ENDCHAR
STARTCHAR 28A7
ENCODING 10407
SWIDTH 480 0
DWIDTH 6 0
BBX 5 11 0 0
BITMAP
C0
C0
00
C0
C0
00
D8
D8
00
18
18
ENDCHAR
STARTCHAR 28A8
ENCODING 10408
SWIDTH 480 0
DWIDTH 6 0
BBX 2 11 3 0
BITMAP
C0
C0
00
00
00
00
C0
C0
00
C0
C0
ENDCHAR
STARTCHAR 28A9
ENCODING 10409
SWIDTH 480 0
DWIDTH 6 0
BBX 5 11 0 0
BITMAP
D8
D8
00
00
00
00
18
18
00
18
18
ENDCHAR
STARTCHAR 28AA
ENCODING 10410
SWIDTH 480 0
DWIDTH 6 0
BBX 5 11 0 0
BITMAP
18
18
00
C0
C0
00
18
18
00
18
18
ENDCHAR
STARTCHAR 28AB
ENCODING 10411
SWIDTH 480 0
DWIDTH 6 0
BBX 5 11 0 0
BITMAP
D8
D8
00
C0
C0
00
18
18
00
18
18
ENDCHAR
STARTCHAR 28AC
ENCODING 10412
SWIDTH 480 0
DWIDTH 6 0
BBX 5 11 0 0
BITMAP
18
18
00
00
00
00
D8
D8
00
18
18
ENDCHAR
STARTCHAR 28AD
ENCODING 10413
SWIDTH 480 0
DWIDTH 6 0
BBX 5 11 0 0
BITMAP
D8
D8
00
00
00
00
D8
D8
00
18
18
ENDCHAR
STARTCHAR 28AE
ENCODING 10414
SWIDTH 480 0
DWIDTH 6 0
BBX 5 11 0 0
BITMAP
18
18
00
C0
C0
00
D8
D8
00
18
18
ENDCHAR
STARTCHAR 28AF
ENCODING 10415
SWIDTH 480 0
DWIDTH 6 0
BBX 5 11 0 0
BITMAP
D8
D8
00
C0
C0
00
D8
D8
00
18
18
ENDCHAR
STARTCHAR 28B0
ENCODING 10416
SWIDTH 480 0
DWIDTH 6 0
BBX 2 8 3 0
BITMAP
C0
C0
00
C0
C0
00
C0
C0
ENDCHAR
STARTCHAR 28B1
ENCODING 10417
SWIDTH 480 0
DWIDTH 6 0
BBX 5 11 0 0
BITMAP
C0
C0
00
18
18
00
18
18
00
18
18
ENDCHAR
STARTCHAR 28B2
ENCODING 10418
SWIDTH 480 0
DWIDTH 6 0
BBX 5 8 0 0
BITMAP
D8
D8
00
18
18
00
18
18
ENDCHAR
STARTCHAR 28B3
ENCODING 10419
SWIDTH 480 0
DWIDTH 6 0
BBX 5 11 0 0
BITMAP
C0
C0
00
D8
D8
00
18
18
00
18
18
ENDCHAR
STARTCHAR 28B4
ENCODING 10420
SWIDTH 480 0
DWIDTH 6 0
BBX 5 8 0 0
BITMAP
18
18
00
D8
D8
00
18
18
ENDCHAR
STARTCHAR 28B5
ENCODING 10421
SWIDTH 480 0
DWIDTH 6 0
BBX 5 11 0 0
BITMAP
C0
C0
00
18
18
00
D8
D8
00
18
18
ENDCHAR
STARTCHAR 28B6
ENCODING 10422
SWIDTH 480 0
DWIDTH 6 0
BBX 5 8 0 0
BITMAP
D8
D8
00
D8
D8
00
18
18
ENDCHAR
STARTCHAR 28B7
ENCODING 10423
SWIDTH 480 0
DWIDTH 6 0
BBX 5 11 0 0
BITMAP
C0
C0
00
D8
D8
00
D8
D8
00
18
18
ENDCHAR
STARTCHAR 28B8
ENCODING 10424
SWIDTH 480 0
DWIDTH 6 0
BBX 2 11 3 0
BITMAP
C0
C0
00
C0
C0
00
C0
C0
00
C0
C0
ENDCHAR
STARTCHAR 28B9
ENCODING 10425
SWIDTH 480 0
DWIDTH 6 0
BBX 5 11 0 0
BITMAP
D8
D8
00
18
18
00
18
18
00
18
18
ENDCHAR
STARTCHAR 28BA
ENCODING 10426
SWIDTH 480 0
DWIDTH 6 0
BBX 5 11 0 0
BITMAP
18
18
00
D8
D8
00
18
18
00
18
18
ENDCHAR
STARTCHAR 28BB
ENCODING 10427
SWIDTH 480 0
DWIDTH 6 0
BBX 5 11 0 0
BITMAP
D8
D8
00
D8
D8
00
18
18
00
18
18
ENDCHAR
STARTCHAR 28BC
ENCODING 10428
SWIDTH 480 0
DWIDTH 6 0
BBX 5 11 0 0
BITMAP
18
18
00
18
18
00
D8
D8
00
18
18
ENDCHAR
STARTCHAR 28BD
ENCODING 10429
SWIDTH 480 0
DWIDTH 6 0
BBX 5 11 0 0
BITMAP
D8
D8
00
18
18
00
D8
D8
00
18
18
ENDCHAR
STARTCHAR 28BE
ENCODING 10430
SWIDTH 480 0
DWIDTH 6 0
BBX 5 11 0 0
BITMAP
18
18
00
D8
D8
00
D8
D8
00
18
18
ENDCHAR
STARTCHAR 28BF
ENCODING 10431
SWIDTH 480 0
DWIDTH 6 0
BBX 5 11 0 0
BITMAP
D8
D8
00
D8
D8
00
D8
D8
00
18
18
ENDCHAR
STARTCHAR 28C0
ENCODING 10432
SWIDTH 480 0
DWIDTH 6 0
BBX 5 2 0 0
BITMAP
D8
D8
ENDCHAR
STARTCHAR 28C1
ENCODING 10433
SWIDTH 480 0
DWIDTH 6 0
BBX 5 11 0 0
BITMAP
C0
C0
00
00
00
00
00
00
00
D8
D8
ENDCHAR
STARTCHAR 28C2
ENCODING 10434
SWIDTH 480 0
DWIDTH 6 0
BBX 5 8 0 0
BITMAP
C0
C0
00
00
00
00
D8
D8
ENDCHAR
STARTCHAR 28C3
ENCODING 10435
SWIDTH 480 0
DWIDTH 6 0
BBX 5 11 0 0
BITMAP
C0
C0
00
C0
C0
00
00
00
00
D8
D8
ENDCHAR
STARTCHAR 28C4
ENCODING 10436
SWIDTH 480 0
DWIDTH 6 0
BBX 5 5 0 0
BITMAP
C0
C0
00
D8
D8
ENDCHAR
STARTCHAR 28C5
ENCODING 10437
SWIDTH 480 0
DWIDTH 6 0
BBX 5 11 0 0
BITMAP
C0
C0
00
00
00
00
C0
C0
00
D8
D8
ENDCHAR
STARTCHAR 28C6
ENCODING 10438
SWIDTH 480 0
DWIDTH 6 0
BBX 5 8 0 0
BITMAP
C0
C0
00
C0
C0
00
D8
D8
ENDCHAR
STARTCHAR 28C7
ENCODING 10439
SWIDTH 480 0
DWIDTH 6 0
BBX 5 11 0 0
BITMAP
C0
C0
00
C0
C0
00
C0
C0
00
D8
D8
ENDCHAR
STARTCHAR 28C8
ENCODING 10440
SWIDTH 480 0
DWIDTH 6 0
BBX 5 11 0 0
BITMAP
18
18
00
18
18
00
00
00
00
D8
D8
ENDCHAR
STARTCHAR 28C9
ENCODING 10441
SWIDTH 480 0
DWIDTH 6 0
BBX 5 11 0 0
BITMAP
D8
D8
00
00
00
00
00
00
00
D8
D8
ENDCHAR
STARTCHAR 28CA
ENCODING 10442
SWIDTH 480 0
DWIDTH 6 0
BBX 5 11 0 0
BITMAP
18
18
00
C0
C0
00
00
00
00
D8
D8
ENDCHAR
STARTCHAR 28CB
ENCODING 10443
SWIDTH 480 0
DWIDTH 6 0
BBX 5 11 0 0
BITMAP
D8
D8
00
C0
C0
00
00
00
00
D8
D8
ENDCHAR
STARTCHAR 28CC
ENCODING 10444
SWIDTH 480 0
DWIDTH 6 0
BBX 5 11 0 0
BITMAP
18
18
00
00
00
00
C0
C0
00
D8
D8
ENDCHAR
STARTCHAR 28CD
ENCODING 10445
SWIDTH 480 0
DWIDTH 6 0
BBX 5 11 0 0
BITMAP
D8
D8
00
00
00
00
C0
C0
00
D8
D8
ENDCHAR
STARTCHAR 28CE
ENCODING 10446
SWIDTH 480 0
DWIDTH 6 0
BBX 5 11 0 0
BITMAP
18
18
00
C0
C0
00
C0
C0
00
D8
D8
ENDCHAR
STARTCHAR 28CF
ENCODING 10447
SWIDTH 480 0
DWIDTH 6 0
BBX 5 11 0 0
BITMAP
D8
D8
00
C0
C0
00
C0
C0
00
D8
D8
ENDCHAR
STARTCHAR 28D0
ENCODING 10448
SWIDTH 480 0
DWIDTH 6 0
BBX 5 8 0 0
BITMAP
18
18
00
00
00
00
D8
D8
ENDCHAR
STARTCHAR 28D1
ENCODING 10449
SWIDTH 480 0
DWIDTH 6 0
BBX 5 11 0 0
BITMAP
C0
C0
00
18
18
00
00
00
00
D8
D8
ENDCHAR
STARTCHAR 28D2
ENCODING 10450
SWIDTH 480 0
DWIDTH 6 0
BBX 5 8 0 0
BITMAP
D8
D8
00
00
00
00
D8
D8
ENDCHAR
STARTCHAR 28D3
ENCODING 10451
SWIDTH 480 0
DWIDTH 6 0
BBX 5 11 0 0
BITMAP
C0
C0
00
D8
D8
00
00
00
00
D8
D8
ENDCHAR
STARTCHAR 28D4
ENCODING 10452
SWIDTH 480 0
DWIDTH 6 0
BBX 5 8 0 0
BITMAP
18
18
00
C0
C0
00
D8
D8
ENDCHAR
STARTCHAR 28D5
ENCODING 10453
SWIDTH 480 0
DWIDTH 6 0
BBX 5 11 0 0
BITMAP
C0
C0
00
18
18
00
C0
C0
00
D8
D8
ENDCHAR
STARTCHAR 28D6
ENCODING 10454
SWIDTH 480 0
DWIDTH 6 0
BBX 5 8 0 0
BITMAP
D8
D8
00
C0
C0
00
D8
D8
ENDCHAR
STARTCHAR 28D7
ENCODING 10455
SWIDTH 480 0
DWIDTH 6 0
BBX 5 11 0 0
BITMAP
C0
C0
00
D8
D8
00
C0
C0
00
D8
D8
ENDCHAR
STARTCHAR 28D8
ENCODING 10456
SWIDTH 480 0
DWIDTH 6 0
BBX 5 11 0 0
BITMAP
18
18
00
18
18
00
00
00
00
D8
D8
ENDCHAR
STARTCHAR 28D9
ENCODING 10457
SWIDTH 480 0
DWIDTH 6 0
BBX 5 11 0 0
BITMAP
D8
D8
00
18
18
00
00
00
00
D8
D8
ENDCHAR
STARTCHAR 28DA
ENCODING 10458
SWIDTH 480 0
DWIDTH 6 0
BBX 5 11 0 0
BITMAP
18
18
00
D8
D8
00
00
00
00
D8
D8
ENDCHAR
STARTCHAR 28DB
ENCODING 10459
SWIDTH 480 0
DWIDTH 6 0
BBX 5 11 0 0
BITMAP
D8
D8
00
D8
D8
00
00
00
00
D8
D8
ENDCHAR
STARTCHAR 28DC
ENCODING 10460
SWIDTH 480 0
DWIDTH 6 0
BBX 5 11 0 0
BITMAP
18
18
00
18
18
00
C0
C0
00
D8
D8
ENDCHAR
STARTCHAR 28DD
ENCODING 10461
SWIDTH 480 0
DWIDTH 6 0
BBX 5 11 0 0
BITMAP
D8
D8
00
18
18
00
C0
C0
00
D8
D8
ENDCHAR
STARTCHAR 28DE
ENCODING 10462
SWIDTH 480 0
DWIDTH 6 0
BBX 5 11 0 0
BITMAP
18
18
00
D8
D8
00
C0
C0
00
D8
D8
ENDCHAR
STARTCHAR 28DF
ENCODING 10463
SWIDTH 480 0
DWIDTH 6 0
BBX 5 11 0 0
BITMAP
D8
D8
00
D8
D8
00
C0
C0
00
D8
D8
ENDCHAR
STARTCHAR 28E0
ENCODING 10464
SWIDTH 480 0
DWIDTH 6 0
BBX 5 5 0 0
BITMAP
18
18
00
D8
D8
ENDCHAR
STARTCHAR 28E1
ENCODING 10465
SWIDTH 480 0
DWIDTH 6 0
BBX 5 11 0 0
BITMAP
C0
C0
00
00
00
00
18
18
00
D8
D8
ENDCHAR
STARTCHAR 28E2
ENCODING 10466
SWIDTH 480 0
DWIDTH 6 0
BBX 5 8 0 0
BITMAP
C0
C0
00
18
18
00
D8
D8
ENDCHAR
STARTCHAR 28E3
ENCODING 10467
SWIDTH 480 0
DWIDTH 6 0
BBX 5 11 0 0
BITMAP
C0
C0
00
C0
C0
00
18
18
00
D8
D8
ENDCHAR
STARTCHAR 28E4
ENCODING 10468
SWIDTH 480 0
DWIDTH 6 0
BBX 5 5 0 0
BITMAP
D8
D8
00
D8
D8
ENDCHAR
STARTCHAR 28E5
ENCODING 10469
SWIDTH 480 0
DWIDTH 6 0
BBX 5 11 0 0
BITMAP
C0
C0
00
00
00
00
D8
D8
00
D8
D8
ENDCHAR
STARTCHAR 28E6
ENCODING 10470
SWIDTH 480 0
DWIDTH 6 0
BBX 5 8 0 0
BITMAP
C0
C0
00
D8
D8
00
D8
D8
ENDCHAR
STARTCHAR 28E7
ENCODING 10471
SWIDTH 480 0
DWIDTH 6 0
BBX 5 11 0 0
BITMAP
C0
C0
00
C0
C0
00
D8
D8
00
D8
D8
ENDCHAR
STARTCHAR 28E8
ENCODING 10472
SWIDTH 480 0
DWIDTH 6 0
BBX 5 11 0 0
BITMAP
18
18
00
00
00
00
18
18
00
D8
D8
ENDCHAR
STARTCHAR 28E9
ENCODING 10473
SWIDTH 480 0
DWIDTH 6 0
BBX 5 11 0 0
BITMAP
D8
D8
00
00
00
00
18
18
00
D8
D8
ENDCHAR
STARTCHAR 28EA
ENCODING 10474
SWIDTH 480 0
DWIDTH 6 0
BBX 5 11 0 0
BITMAP
18
18
00
C0
C0
00
18
18
00
D8
D8
ENDCHAR
STARTCHAR 28EB
ENCODING 10475
SWIDTH 480 0
DWIDTH 6 0
BBX 5 11 0 0
BITMAP
D8
D8
00
C0
C0
00
18
18
00
D8
D8
ENDCHAR
STARTCHAR 28EC
ENCODING 10476
SWIDTH 480 0
DWIDTH 6 0
BBX 5 11 0 0
BITMAP
18
18
00
00
00
00
D8
D8
00
D8
D8
ENDCHAR
STARTCHAR 28ED
ENCODING 10477
SWIDTH 480 0
DWIDTH 6 0
BBX 5 11 0 0
BITMAP
D8
D8
00
00
00
00
D8
D8
00
D8
D8
ENDCHAR
STARTCHAR 28EE
ENCODING 10478
SWIDTH 480 0
DWIDTH 6 0
BBX 5 11 0 0
BITMAP
18
18
00
C0
C0
00
D8
D8
00
D8
D8
ENDCHAR
STARTCHAR 28EF
ENCODING 10479
SWIDTH 480 0
DWIDTH 6 0
BBX 5 11 0 0
BITMAP
D8
D8
00
C0
C0
00
D8
D8
00
D8
D8
ENDCHAR
STARTCHAR 28F0
ENCODING 10480
SWIDTH 480 0
DWIDTH 6 0
BBX 5 8 0 0
BITMAP
18
18
00
18
18
00
D8
D8
ENDCHAR
STARTCHAR 28F1
ENCODING 10481
SWIDTH 480 0
DWIDTH 6 0
BBX 5 11 0 0
BITMAP
C0
C0
00
18
18
00
18
18
00
D8
D8
ENDCHAR
STARTCHAR 28F2
ENCODING 10482
SWIDTH 480 0
DWIDTH 6 0
BBX 5 8 0 0
BITMAP
D8
D8
00
18
18
00
D8
D8
ENDCHAR
STARTCHAR 28F3
ENCODING 10483
SWIDTH 480 0
DWIDTH 6 0
BBX 5 11 0 0
BITMAP
C0
C0
00
D8
D8
00
18
18
00
D8
D8
ENDCHAR
STARTCHAR 28F4
ENCODING 10484
SWIDTH 480 0
DWIDTH 6 0
BBX 5 8 0 0
BITMAP
18
18
00
D8
D8
00
D8
D8
ENDCHAR
STARTCHAR 28F5
ENCODING 10485
SWIDTH 480 0
DWIDTH 6 0
BBX 5 11 0 0
BITMAP
C0
C0
00
18
18
00
D8
D8
00
D8
D8
ENDCHAR
STARTCHAR 28F6
ENCODING 10486
SWIDTH 480 0
DWIDTH 6 0
BBX 5 8 0 0
BITMAP
D8
D8
00
D8
D8
00
D8
D8
ENDCHAR
STARTCHAR 28F7
ENCODING 10487
SWIDTH 480 0
DWIDTH 6 0
BBX 5 11 0 0
BITMAP
C0
C0
00
D8
D8
00
D8
D8
00
D8
D8
ENDCHAR
STARTCHAR 28F8
ENCODING 10488
SWIDTH 480 0
DWIDTH 6 0
BBX 5 11 0 0
BITMAP
18
18
00
18
18
00
18
18
00
D8
D8
ENDCHAR
STARTCHAR 28F9
ENCODING 10489
SWIDTH 480 0
DWIDTH 6 0
BBX 5 11 0 0
BITMAP
D8
D8
00
18
18
00
18
18
00
D8
D8
ENDCHAR
STARTCHAR 28FA
ENCODING 10490
SWIDTH 480 0
DWIDTH 6 0
BBX 5 11 0 0
BITMAP
18
18
00
D8
D8
00
18
18
00
D8
D8
ENDCHAR
STARTCHAR 28FB
ENCODING 10491
SWIDTH 480 0
DWIDTH 6 0
BBX 5 11 0 0
BITMAP
D8
D8
00
D8
D8
00
18
18
00
D8
D8
ENDCHAR
STARTCHAR 28FC
ENCODING 10492
SWIDTH 480 0
DWIDTH 6 0
BBX 5 11 0 0
BITMAP
18
18
00
18
18
00
D8
D8
00
D8
D8
ENDCHAR
STARTCHAR 28FD
ENCODING 10493
SWIDTH 480 0
DWIDTH 6 0
BBX 5 11 0 0
BITMAP
D8
D8
00
18
18
00
D8
D8
00
D8
D8
ENDCHAR
STARTCHAR 28FE
ENCODING 10494
SWIDTH 480 0
DWIDTH 6 0
BBX 5 11 0 0
BITMAP
18
18
00
D8
D8
00
D8
D8
00
D8
D8
ENDCHAR
STARTCHAR 28FF
ENCODING 10495
SWIDTH 480 0
DWIDTH 6 0
BBX 5 11 0 0
BITMAP
D8
D8
00
D8
D8
00
D8
D8
00
D8
D8
ENDCHAR
STARTCHAR 2C7B
ENCODING 11387
SWIDTH 480 0
DWIDTH 6 0
BBX 5 8 0 0
BITMAP
F8
08
08
08
F8
08
08
F8
ENDCHAR
STARTCHAR 3000
ENCODING 12288
SWIDTH 1040 0
DWIDTH 13 0
BBX 0 0 0 0
BITMAP
ENDCHAR
STARTCHAR 3001
ENCODING 12289
SWIDTH 1040 0
DWIDTH 13 0
BBX 3 3 0 0
BITMAP
80
40
20
ENDCHAR
STARTCHAR 3002
ENCODING 12290
SWIDTH 1040 0
DWIDTH 13 0
BBX 4 4 0 0
BITMAP
60
90
90
60
ENDCHAR
STARTCHAR 3003
ENCODING 12291
SWIDTH 1040 0
DWIDTH 13 0
BBX 6 6 2 3
BITMAP
6C
48
48
48
90
90
ENDCHAR
STARTCHAR 3004
ENCODING 12292
SWIDTH 1040 0
DWIDTH 13 0
BBX 11 11 0 0
BITMAP
1F00
2080
4040
95A0
9620
9520
94A0
6720
0040
2080
1F00
ENDCHAR
STARTCHAR 3005
ENCODING 12293
SWIDTH 1040 0
DWIDTH 13 0
BBX 10 11 0 0
BITMAP
1000
1000
1FC0
2040
2040
4080
8080
1900
0600
0100
0080
ENDCHAR
STARTCHAR 3006
ENCODING 12294
SWIDTH 1040 0
DWIDTH 13 0
BBX 11 11 0 0
BITMAP
0020
0040
0080
1D00
2200
4500
4800
9000
A000
C000
8000
ENDCHAR
STARTCHAR 3007
ENCODING 12295
SWIDTH 1040 0
DWIDTH 13 0
BBX 11 11 0 0
BITMAP
0E00
3180
4040
4040
8020
8020
8020
4040
4040
3180
0E00
ENDCHAR
STARTCHAR 3008
ENCODING 12296
SWIDTH 400 0
DWIDTH 5 0
BBX 4 11 0 0
BITMAP
10
20
20
40
40
80
40
40
20
20
10
ENDCHAR
STARTCHAR 3009
ENCODING 12297
SWIDTH 400 0
DWIDTH 5 0
BBX 4 11 0 0
BITMAP
80
40
40
20
20
10
20
20
40
40
80
ENDCHAR
STARTCHAR 300A
ENCODING 12298
SWIDTH 640 0
DWIDTH 8 0
BBX 7 11 0 0
BITMAP
12
24
24
48
48
90
48
48
24
24
12
ENDCHAR
STARTCHAR 300B
ENCODING 12299
SWIDTH 640 0
DWIDTH 8 0
BBX 7 11 0 0
BITMAP
90
48
48
24
24
12
24
24
48
48
90
ENDCHAR
STARTCHAR 300C
ENCODING 12300
SWIDTH 400 0
DWIDTH 5 0
BBX 4 7 0 4
BITMAP
F0
80
80
80
80
80
80
ENDCHAR
STARTCHAR 300D
ENCODING 12301
SWIDTH 400 0
DWIDTH 5 0
BBX 4 7 0 0
BITMAP
10
10
10
10
10
10
F0
ENDCHAR
STARTCHAR 300E
ENCODING 12302
SWIDTH 480 0
DWIDTH 6 0
BBX 5 8 0 3
BITMAP
F8
88
B8
A0
A0
A0
A0
E0
ENDCHAR
STARTCHAR 300F
ENCODING 12303
SWIDTH 480 0
DWIDTH 6 0
BBX 5 8 0 0
BITMAP
38
28
28
28
28
E8
88
F8
ENDCHAR
STARTCHAR 3010
ENCODING 12304
SWIDTH 400 0
DWIDTH 5 0
BBX 4 11 0 0
BITMAP
F0
E0
C0
80
80
80
80
80
C0
E0
F0
ENDCHAR
STARTCHAR 3011
ENCODING 12305
SWIDTH 400 0
DWIDTH 5 0
BBX 4 11 0 0
BITMAP
F0
70
30
10
10
10
10
10
30
70
F0
ENDCHAR
STARTCHAR 3012
ENCODING 12306
SWIDTH 1040 0
DWIDTH 13 0
BBX 9 9 1 1
BITMAP
FF80
0000
0000
FF80
0800
0800
0800
0800
0800
ENDCHAR
STARTCHAR 3013
ENCODING 12307
SWIDTH 1040 0
DWIDTH 13 0
BBX 11 8 0 2
BITMAP
FFE0
FFE0
0000
0000
0000
0000
FFE0
FFE0
ENDCHAR
STARTCHAR 3014
ENCODING 12308
SWIDTH 400 0
DWIDTH 5 0
BBX 4 11 0 0
BITMAP
30
C0
80
80
80
80
80
80
80
C0
30
ENDCHAR
STARTCHAR 3015
ENCODING 12309
SWIDTH 400 0
DWIDTH 5 0
BBX 4 11 0 0
BITMAP
C0
30
10
10
10
10
10
10
10
30
C0
ENDCHAR
STARTCHAR 3016
ENCODING 12310
SWIDTH 480 0
DWIDTH 6 0
BBX 5 11 0 0
BITMAP
F8
90
A0
A0
A0
A0
A0
A0
A0
90
F8
ENDCHAR
STARTCHAR 3017
ENCODING 12311
SWIDTH 480 0
DWIDTH 6 0
BBX 5 11 0 0
BITMAP
F8
48
28
28
28
28
28
28
28
48
F8
ENDCHAR
STARTCHAR 3018
ENCODING 12312
SWIDTH 480 0
DWIDTH 6 0
BBX 5 11 0 0
BITMAP
38
C8
B0
A0
A0
A0
A0
A0
B0
C8
38
ENDCHAR
STARTCHAR 3019
ENCODING 12313
SWIDTH 480 0
DWIDTH 6 0
BBX 5 11 0 0
BITMAP
E0
98
68
28
28
28
28
28
68
98
E0
ENDCHAR
STARTCHAR 301A
ENCODING 12314
SWIDTH 480 0
DWIDTH 6 0
BBX 5 11 0 0
BITMAP
F8
A0
A0
A0
A0
A0
A0
A0
A0
A0
F8
ENDCHAR
STARTCHAR 301B
ENCODING 12315
SWIDTH 480 0
DWIDTH 6 0
BBX 5 11 0 0
BITMAP
F8
28
28
28
28
28
28
28
28
28
F8
ENDCHAR
STARTCHAR 301C
ENCODING 12316
SWIDTH 1040 0
DWIDTH 13 0
BBX 9 3 1 4
BITMAP
7000
8880
0700
ENDCHAR
STARTCHAR 3036
ENCODING 12342
SWIDTH 1040 0
DWIDTH 13 0
BBX 11 11 0 0
BITMAP
0E00
3180
4040
5F40
8020
9F20
8420
4440
4040
3180
0E00
ENDCHAR
STARTCHAR 303C
ENCODING 12348
SWIDTH 1040 0
DWIDTH 13 0
BBX 9 9 1 1
BITMAP
FF80
8180
8280
8480
8880
9080
A080
C080
FF80
ENDCHAR
STARTCHAR 3041
ENCODING 12353
SWIDTH 1040 0
DWIDTH 13 0
BBX 9 10 1 0
BITMAP
1000
FF00
1000
3E00
5500
9480
9480
8880
9080
6300
ENDCHAR
STARTCHAR 3042
ENCODING 12354
SWIDTH 1040 0
DWIDTH 13 0
BBX 11 11 0 0
BITMAP
0800
FFC0
1000
1F80
3240
5220
9220
9420
8820
9040
6380
ENDCHAR
STARTCHAR 3043
ENCODING 12355
SWIDTH 1040 0
DWIDTH 13 0
BBX 9 9 1 0
BITMAP
8000
8100
8100
8080
8080
8080
9080
9000
6000
ENDCHAR
STARTCHAR 3044
ENCODING 12356
SWIDTH 1040 0
DWIDTH 13 0
BBX 11 10 0 0
BITMAP
8000
8080
8040
8040
8020
8020
8820
8820
4800
3000
ENDCHAR
STARTCHAR 3045
ENCODING 12357
SWIDTH 1040 0
DWIDTH 13 0
BBX 8 10 1 0
BITMAP
38
06
00
3E
C1
01
01
01
06
38
ENDCHAR
STARTCHAR 3046
ENCODING 12358
SWIDTH 1040 0
DWIDTH 13 0
BBX 10 11 0 0
BITMAP
3C00
0300
0000
1F00
E080
0040
0040
0040
0080
0300
1C00
ENDCHAR
STARTCHAR 3047
ENCODING 12359
SWIDTH 1040 0
DWIDTH 13 0
BBX 9 10 1 0
BITMAP
7800
0600
0000
FF00
0400
0800
1C00
2400
4400
8380
ENDCHAR
STARTCHAR 3048
ENCODING 12360
SWIDTH 1040 0
DWIDTH 13 0
BBX 11 11 0 0
BITMAP
3C00
0300
0000
7F80
0100
0200
0C00
1200
2200
4200
81E0
ENDCHAR
STARTCHAR 3049
ENCODING 12361
SWIDTH 1040 0
DWIDTH 13 0
BBX 9 10 1 0
BITMAP
1000
FD00
1080
1000
3E00
5100
9080
9080
9080
6300
ENDCHAR
STARTCHAR 304A
ENCODING 12362
SWIDTH 1040 0
DWIDTH 13 0
BBX 11 11 0 0
BITMAP
1000
FE80
1040
1020
1F80
3040
5020
9020
9020
9040
6180
ENDCHAR
STARTCHAR 304B
ENCODING 12363
SWIDTH 1040 0
DWIDTH 13 0
BBX 11 11 0 0
BITMAP
1000
1080
1040
FE20
2120
2100
2100
2100
4100
4100
8E00
ENDCHAR
STARTCHAR 304C
ENCODING 12364
SWIDTH 1040 0
DWIDTH 13 0
BBX 11 11 0 0
BITMAP
10A0
10A0
1100
FE80
2140
2140
2100
2100
4100
4100
8E00
ENDCHAR
STARTCHAR 304D
ENCODING 12365
SWIDTH 1040 0
DWIDTH 13 0
BBX 11 11 0 0
BITMAP
0200
7FC0
0100
FFE0
0080
0080
3F40
40C0
4000
4000
3F00
ENDCHAR
STARTCHAR 304E
ENCODING 12366
SWIDTH 1040 0
DWIDTH 13 0
BBX 11 11 0 0
BITMAP
02A0
7FA0
0100
FFC0
0080
0080
3F40
40C0
4000
4000
3F00
ENDCHAR
STARTCHAR 304F
ENCODING 12367
SWIDTH 1040 0
DWIDTH 13 0
BBX 8 11 1 0
BITMAP
01
02
0C
10
60
80
60
10
0C
02
01
ENDCHAR
STARTCHAR 3050
ENCODING 12368
SWIDTH 1040 0
DWIDTH 13 0
BBX 10 11 1 0
BITMAP
0100
0200
0C00
1140
6140
8000
6000
1000
0C00
0200
0100
ENDCHAR
ENDFONT
